<svg id="a4d61680-8f9d-4341-8d78-11e185ab1164" data-name="Layer 2" xmlns="http://www.w3.org/2000/svg" viewBox="0 0 1479.9 1510.2"><title>erovoutika-icon(white)svg</title><path d="M740,308.3c-237.3,0-431.5,184.1-447.5,417.3H399.6A85.3,85.3,0,0,1,479,671.4c2.9,0,5.7.2,8.5.4V493.2c0,3.9,560.6-1.3,560.6-1.3L950.4,633.3H636.7v66.9H942.3a85.3,85.3,0,0,1,143.3,25.4h101.8C1171.4,492.4,977.2,308.3,740,308.3Z" transform="translate(0 0)" style="fill:#fff"/><path d="M1006.2,842.1a84.8,84.8,0,0,1-63.9-28.8L935,823.6H636.7v77.2h411.4L953,1042.2H487.5V841.7a79.4,79.4,0,0,1-8.5.4,85.3,85.3,0,0,1-77.9-50.5H292.8C310.6,1023,504,1205.3,740,1205.3s429.4-182.3,447.1-413.7h-103A85.3,85.3,0,0,1,1006.2,842.1Z" transform="translate(0 0)" style="fill:#fff"/><path d="M479.6,824.9a68.2,68.2,0,1,0-66.3-83.6H290.9v31H413.3A68.1,68.1,0,0,0,479.6,824.9Zm0-101.4a33.3,33.3,0,1,1-33.3,33.3A33.3,33.3,0,0,1,479.6,723.5Z" transform="translate(0 0)" style="fill:#fff"/><path d="M1009.1,688.6a68.2,68.2,0,1,0,66.3,83.7h112.8V741.2H1075.4A68.1,68.1,0,0,0,1009.1,688.6Zm0,101.4a33.3,33.3,0,1,1,33.3-33.2A33.2,33.2,0,0,1,1009.1,790Z" transform="translate(0 0)" style="fill:#fff"/><path d="M1473,897.8c-38.6-20.8-76.8-42.2-115.2-63.1-5.4-3-7.4-5.6-6.7-12.3,4.9-46.2,5.1-92.5-.9-138.6-1-7.6.8-11.9,7.7-15.8,38-21.2,75.5-43.2,113.3-64.6,5.6-3.2,7.3-6.4,5.8-12.7-10.8-44.4-23.8-88-42.2-129.9-10.3-23.4-10.2-22.9-35.4-19.4-37.7,5.2-75.6,9.5-113.3,14.4-6.9.9-10.7-1.1-14.2-7.3-22.2-38.7-48.2-74.7-78.8-107.2-5.2-5.5-5.4-9.6-2.3-16.3,18.4-39.3,36.2-79,54.6-118.3,2.9-6.3,2-9.9-3.1-14.5a803,803,0,0,0-122.9-89.3c-5.7-3.4-9-2.9-13.8,1.6-31.7,29.7-63.9,59-95.6,88.8-5.5,5.1-9.7,6.5-17.1,3.1-41.7-19.8-85.5-33.6-130.8-42.5-7-1.4-9.2-4.5-10.5-10.7-8.3-42.9-17.1-85.7-25.3-128.6-1.4-7.2-4.5-9.9-11.7-10.6a717.2,717.2,0,0,0-150.1-.1c-6.7.7-9.7,3-11.1,9.9-8.4,43.5-17.4,87-25.9,130.5-1.1,5.8-3,8.2-9.2,9.4a565.2,565.2,0,0,0-131.7,42.8c-7.6,3.5-12.3,3.2-18.7-2.8-31.6-29.9-63.9-59-95.7-88.7-4.9-4.6-8.2-4.6-13.7-1.4a799.1,799.1,0,0,0-122.8,89.6c-4.6,4.1-5.1,7.2-2.5,12.8,18.5,39.6,36.4,79.5,55.2,119,3.6,7.6,2.5,12-3,17.9a562.9,562.9,0,0,0-82.5,114.8c-3.6,6.7-7.7,8.5-14.9,7.7-43.5-4.9-87-9.2-130.5-14.2-6.8-.8-9.4,1.1-11.9,6.9C25.9,503.6,11.8,550.9.7,599.2c-2.2,9.4.8,13.2,8.5,17.3,38,20.5,75.7,41.4,113.4,62.5,2.8,1.6,6.2,5.9,6,8.6-4.8,47.9-5,95.7,1.1,143.4.9,6.6-1.1,10.2-6.9,13.5C84.7,866,46.8,888.1,8.7,909.6c-6.1,3.5-7.3,7-5.8,13.5,11.6,49.2,27.2,96.9,47.9,143,2.9,6.5,6.2,8.7,13.6,7.7,43.7-5.8,87.5-10.9,131.3-16.5,5.6-.8,8.5.7,11.2,5.6a574.6,574.6,0,0,0,80.9,110.2c4.1,4.4,4.3,7.9,1.9,13.2-18.6,39.9-36.7,80.1-55.4,120.1-2.9,6.2-2.1,9.9,3,14.4a811.3,811.3,0,0,0,123,89.4c5.5,3.3,9,3,13.8-1.5,31.9-30,64.3-59.5,96.2-89.5,5.5-5.2,9.6-5.5,16.3-2.5,41.1,18.8,83.6,33.4,128.1,41.7,9.3,1.7,12.5,6.1,14.2,14.9,7.8,41.4,16.6,82.7,24.4,124.1,1.5,8,4.7,11.4,12.7,11.8,39.9,1,74,1,74,1s44.1.3,74.2-1c7.3-1.3,10.8-3.1,12.3-10.9,7.9-42.1,16.8-84,24.8-126,1.5-8.2,4.5-12.1,13.1-13.8,46-8.7,90-23.8,132.4-43.5,5.2-2.4,8.2-1.6,12.3,2.2,32.8,30.5,65.9,60.6,98.6,91.1,4.5,4.1,7.4,4.8,12.9,1.5a791.3,791.3,0,0,0,122.8-89.4c5.4-4.7,5.5-8.3,2.6-14.3-18.7-40.2-37-80.7-55.8-120.9-2.3-5-2.3-8,1.7-12.2a590.2,590.2,0,0,0,86-119.3c2.9-5.4,6-6.7,11.9-6,43.8,4.9,87.7,9.2,131.5,14.2,7.3.8,10.6-1.3,13.4-8a805.3,805.3,0,0,0,44.7-142.1C1480.9,904.5,1479.4,901.2,1473,897.8ZM735.8,1256.6c-281.7-2.9-498.1-232.4-496.6-505.3,1.4-266.8,222.4-501.5,512.3-494.7,280.4,6.5,490.3,236.5,489,505C1239.2,1026.6,1020.8,1258.7,735.8,1256.6Z" transform="translate(0 0)" style="fill:#fff"/></svg>