<svg xmlns="http://www.w3.org/2000/svg" viewBox="0 0 543.1 232.5"><title>robotics-for-kids-white</title><g id="ad032823-59b7-416c-96ae-b2ba8733067a" data-name="Compound Erovoutika"><path d="M128.8,126.6a8.8,8.8,0,1,0,8.5,10.7H153v-3.9H137.3A8.7,8.7,0,0,0,128.8,126.6Zm0,13a4.3,4.3,0,0,1,0-8.5,4.3,4.3,0,1,1,0,8.5Zm-67.6,4.5a8.8,8.8,0,1,0-8.5-10.7H38v3.9H52.7A8.7,8.7,0,0,0,61.2,144.1Zm0-13a4.3,4.3,0,1,1-4.3,4.3A4.2,4.2,0,0,1,61.2,131.1Zm-22.7-.7a57.4,57.4,0,0,1,114,0H139.4a11.6,11.6,0,0,0-20.5-1.2H81.3v-8.5h40.1l12.4-18.6H62v21.6h-.8a11.6,11.6,0,0,0-10.6,6.8Zm114.4,9.9a57.5,57.5,0,0,1-114.8,0H50.6a11.6,11.6,0,0,0,10.6,6.8H62v26.5h59.7L134,155.2H81.3v-9.7h38.1l1.2-1.8a11.6,11.6,0,0,0,18.8-3.4ZM202,163.1H188.9l-7.1-11.3h-15v11.3H157V141.2h27.5a6,6,0,0,0,3.8-1.3,4.4,4.4,0,0,0,1.6-3.6,4.8,4.8,0,0,0-1.4-3.7,5.7,5.7,0,0,0-4-1.3H157l6.4-11.2h20.3a27.7,27.7,0,0,1,5.6.7,15.5,15.5,0,0,1,5.2,2.4,13,13,0,0,1,3.9,4.7,15.6,15.6,0,0,1,1.6,7.6,18.6,18.6,0,0,1-.6,4.8,15.9,15.9,0,0,1-1.6,4,13,13,0,0,1-2.6,3.1,8.8,8.8,0,0,1-3.5,1.7l1.8,2.1,2.6,3.6Zm23.5-43c7.6,0,13.3,1.8,17.2,5.3s5.7,9.1,5.7,16.7-1.9,13.2-5.7,16.7-9.6,5.3-17.2,5.3-13.4-1.8-17.2-5.3-5.7-9.1-5.7-16.7,1.9-13.2,5.7-16.7S217.8,120.1,225.5,120.1Zm0,32.9a37.2,37.2,0,0,0,6.2-.4,9.5,9.5,0,0,0,4.1-1.6,7.6,7.6,0,0,0,2.3-3.4,20.5,20.5,0,0,0,.7-5.5,20.7,20.7,0,0,0-.7-5.6,7.3,7.3,0,0,0-2.3-3.3,9.5,9.5,0,0,0-4.1-1.6,48.2,48.2,0,0,0-12.4,0,9.5,9.5,0,0,0-4.1,1.6,7.3,7.3,0,0,0-2.3,3.3,20.7,20.7,0,0,0-.7,5.6,20.5,20.5,0,0,0,.7,5.5,7.6,7.6,0,0,0,2.3,3.4,9.5,9.5,0,0,0,4.1,1.6A37.2,37.2,0,0,0,225.5,153Zm32.7-32.2,14.1,28.3L287,120.8h11.5l-20.1,38.5a15.9,15.9,0,0,1-2.5,3.3,5.2,5.2,0,0,1-3.8,1.5,5.5,5.5,0,0,1-3.7-1.4,13,13,0,0,1-2.5-3.4l-19.6-38.5Zm61.5-.7c7.6,0,13.3,1.8,17.2,5.3s5.7,9.1,5.7,16.7-1.9,13.2-5.7,16.7-9.5,5.3-17.2,5.3-13.4-1.8-17.2-5.3-5.7-9.1-5.7-16.7,1.9-13.2,5.7-16.7S312,120.1,319.7,120.1Zm0,32.9a37.2,37.2,0,0,0,6.2-.4A9.5,9.5,0,0,0,330,151a7.6,7.6,0,0,0,2.3-3.4,20.5,20.5,0,0,0,.7-5.5,20.7,20.7,0,0,0-.7-5.6,7.3,7.3,0,0,0-2.3-3.3,9.5,9.5,0,0,0-4.1-1.6,48.2,48.2,0,0,0-12.4,0,9.5,9.5,0,0,0-4.1,1.6,7.3,7.3,0,0,0-2.3,3.3,20.7,20.7,0,0,0-.7,5.6,20.5,20.5,0,0,0,.7,5.5,7.6,7.6,0,0,0,2.3,3.4,9.5,9.5,0,0,0,4.1,1.6A37.2,37.2,0,0,0,319.7,153Zm68.6-8.2c0,12.8-6.6,19.3-19.6,19.3a34.3,34.3,0,0,1-9.7-1.2,16.6,16.6,0,0,1-6.8-3.7,14.4,14.4,0,0,1-3.8-6,23.9,23.9,0,0,1-1.3-8.4v-24h9.7v24a14.1,14.1,0,0,0,.4,3.9,4.4,4.4,0,0,0,1.8,2.6,8.5,8.5,0,0,0,3.6,1.4,34.4,34.4,0,0,0,6.1.4,20.5,20.5,0,0,0,4.7-.4,6.1,6.1,0,0,0,3-1.5,5,5,0,0,0,1.6-2.6,14,14,0,0,0,.5-3.8v-24h9.8Zm44.4-24-6.3,11.1H415.2v31.5h-9.7V131.9H390.8l6.3-11.1Zm12.8,42.6h-9.7V120.8h9.7Zm45.6,0H476.4L467,152.2c-1.7-1.9-2.9-3.4-3.8-4.5l-2.1-2.7c.1,1,.1,2,.1,3.1s.1,2,.1,3.1v12.2h-9.8V120.8h9.8v9.9c0,1.3,0,2.6-.1,3.8s0,2.5-.1,3.6l2.3-2.8c.9-1.1,2-2.5,3.5-4.1l9-10.4H490L478,133l-2.8,2.8-2.1,2.1-1.7,1.6-1.5,1.3,3.2,3.2,5,5.3Zm16.4,0,5.9-11h10.8l2.6.2-1.5-2.9-1.6-3.3L518,135.1l-14.7,28.3H491.8l20.1-38.5a12,12,0,0,1,2.5-3.3,5.2,5.2,0,0,1,3.8-1.5,4.9,4.9,0,0,1,3.7,1.4,11.1,11.1,0,0,1,2.5,3.4L544,163.4Z" transform="translate(-0.9 -1.1)" style="fill:#fff"/></g><g id="e8505535-22b0-4cf9-aa09-3c6c92e844b1" data-name="Cog"><path d="M186.9,166.1a2,2,0,0,1-1.7-.9l-5.4-9.2a1.9,1.9,0,0,0-1.7-1h-5.5a2.1,2.1,0,0,0-2,2.1v7a2,2,0,0,1-2,2H156.5a2,2,0,0,1-2-2v-2.3a63.9,63.9,0,0,1-59.6,39.4c-36-.3-63.6-29.7-63.5-64.5A64,64,0,0,1,158,124.3l3.4-6.1a1.8,1.8,0,0,1,1.7-1.1H183a28.6,28.6,0,0,1,5.7.7h.2a1.4,1.4,0,0,0,.7-1.7,100.5,100.5,0,0,0-5.4-16.6c-1.3-3-1.3-2.9-4.5-2.5l-14.5,1.9a1.6,1.6,0,0,1-1.8-.9,67.8,67.8,0,0,0-10-13.7,1.6,1.6,0,0,1-.3-2.1L160,67.1a1.3,1.3,0,0,0-.4-1.9,98.3,98.3,0,0,0-15.7-11.4,1.2,1.2,0,0,0-1.7.2L129.9,65.3c-.7.7-1.2.9-2.1.4a77.5,77.5,0,0,0-16.7-5.4,1.5,1.5,0,0,1-1.4-1.3c-1.1-5.5-2.2-11-3.2-16.5-.2-.9-.6-1.3-1.5-1.3a94.8,94.8,0,0,0-19.2-.1c-.9.1-1.2.4-1.4,1.3L81.1,59.1a1.4,1.4,0,0,1-1.2,1.2,66.2,66.2,0,0,0-16.8,5.5,1.9,1.9,0,0,1-2.4-.4L48.4,54.1a1.2,1.2,0,0,0-1.7-.2A103,103,0,0,0,31,65.3c-.6.6-.7,1-.3,1.7,2.3,5,4.6,10.1,7,15.2a1.7,1.7,0,0,1-.3,2.3A68.9,68.9,0,0,0,26.8,99.1a1.6,1.6,0,0,1-1.9,1L8.2,98.3a1.2,1.2,0,0,0-1.5.9,101.8,101.8,0,0,0-5.7,18c-.3,1.2.1,1.7,1.1,2.2l14.4,8a1.7,1.7,0,0,1,.8,1.1,80,80,0,0,0,.2,18.3,1.7,1.7,0,0,1-.9,1.8L2,156.9a1.2,1.2,0,0,0-.7,1.7,91.5,91.5,0,0,0,6.1,18.3,1.4,1.4,0,0,0,1.7,1c5.6-.8,11.2-1.4,16.8-2.1.7-.1,1.1,0,1.4.7a75.5,75.5,0,0,0,10.4,14.1,1.2,1.2,0,0,1,.2,1.6c-2.4,5.1-4.7,10.3-7.1,15.4a1.4,1.4,0,0,0,.4,1.8,111,111,0,0,0,15.7,11.5,1.4,1.4,0,0,0,1.8-.2L61,209.2a1.7,1.7,0,0,1,2.1-.3,66.2,66.2,0,0,0,16.3,5.3,2,2,0,0,1,1.8,1.9c1,5.3,2.2,10.6,3.2,15.9a1.6,1.6,0,0,0,1.6,1.5h9.4s5.7.1,9.5-.1c1-.2,1.4-.4,1.6-1.4,1-5.4,2.1-10.7,3.2-16.1.2-1,.5-1.5,1.6-1.7a78.8,78.8,0,0,0,17-5.6,1.1,1.1,0,0,1,1.5.3c4.2,3.9,8.5,7.7,12.6,11.6a1.2,1.2,0,0,0,1.7.2,103,103,0,0,0,15.7-11.4,1.3,1.3,0,0,0,.3-1.9c-2.4-5.1-4.7-10.3-7.1-15.4a1.2,1.2,0,0,1,.2-1.6,74.5,74.5,0,0,0,11-15.2,1.3,1.3,0,0,1,1.5-.8l16.8,1.8c.9.1,1.4-.1,1.7-1a91.5,91.5,0,0,0,3.4-9.2Z" transform="translate(-0.9 -1.1)" style="fill:#fff"/></g><g id="a239043b-53b8-4add-a697-de9ab2ff1a77" data-name="Compound Mech Arm"><path d="M180,55.1a19,19,0,1,0,19,19A19,19,0,0,0,180,55.1Zm0,28a9,9,0,1,1,9-9A9,9,0,0,1,180,83.1Zm60-50a16,16,0,1,0-16-16A16,16,0,0,0,240,33.1Zm0-23.5a7.6,7.6,0,1,1-7.6,7.5A7.6,7.6,0,0,1,240,9.6Zm83,21.5a13,13,0,1,0-13,13A13,13,0,0,0,323,31.1Zm-19.2,0a6.2,6.2,0,0,1,12.4,0,6.2,6.2,0,0,1-12.4,0Zm25.2,33a11,11,0,1,0,11,11A11,11,0,0,0,329,64.1Zm0,16.3a5.3,5.3,0,1,1,5.2-5.3A5.2,5.2,0,0,1,329,80.4ZM240,36.1l3.1-.2L201.7,79.8l-.4-.3a19,19,0,0,0,.7-5.4,22,22,0,0,0-22-22,20.2,20.2,0,0,0-4.3.5l45.9-40.2a18.4,18.4,0,0,0-.6,4.7A19,19,0,0,0,240,36.1Zm54-5a16.4,16.4,0,0,0,3.8,10.4l-49.2-7.4a19,19,0,0,0,5.6-29.6V4.1l49.1,12.3v.2A16.1,16.1,0,0,0,294,31.1Zm21.5,40.3L302.2,45.1a16.1,16.1,0,0,0,22.9-8.6l10.3,26.2a13.9,13.9,0,0,0-19.9,8.7Zm3.5,30.7,12,18-26-18,11.9-19.9a14,14,0,0,0,11.4,6.9Zm45.8-21.5-7.7,30.7-2.9-21.4L337.8,86A13.8,13.8,0,0,0,343,75.1a6.1,6.1,0,0,0-.1-1.4Z" transform="translate(-0.9 -1.1)" style="fill:#fff"/></g><g id="a969d683-2253-4236-b888-ecf31dd7c978" data-name="Robotics for Kids!"><path d="M276.8,196a2.7,2.7,0,0,1-1.9-.7,2.9,2.9,0,0,1-.6-1.9V175.6a2.2,2.2,0,0,1,2.5-2.5h7.8a8.6,8.6,0,0,1,5.8,1.8,6.4,6.4,0,0,1,2,5.1,7,7,0,0,1-1.2,4.2,6.2,6.2,0,0,1-3.7,2.3,5,5,0,0,1,2.7,2.5l2,3.7a2.2,2.2,0,0,1,.3,2.2,2,2,0,0,1-2,1.1,3.5,3.5,0,0,1-1.8-.5,3.3,3.3,0,0,1-1.1-1.4l-3.1-5.6a2.3,2.3,0,0,0-1.2-1.2,2.7,2.7,0,0,0-1.6-.4h-2.5v6.5a2.9,2.9,0,0,1-.6,1.9A2.5,2.5,0,0,1,276.8,196Zm2.4-12.6h4.5c2.6,0,4-1.1,4-3.2s-1.4-3.2-4-3.2h-4.5Zm24,12.6a8.9,8.9,0,0,1-4.4-1,7.8,7.8,0,0,1-2.9-2.8,10.2,10.2,0,0,1-1-4.4,9.4,9.4,0,0,1,1-4.3,7.4,7.4,0,0,1,2.9-2.9,10.2,10.2,0,0,1,4.4-1,9.8,9.8,0,0,1,4.4,1,6.3,6.3,0,0,1,2.9,2.9,8.3,8.3,0,0,1,1.1,4.3,9,9,0,0,1-1.1,4.4,6.6,6.6,0,0,1-2.9,2.8A8.7,8.7,0,0,1,303.2,196Zm0-3.6a3.1,3.1,0,0,0,2.5-1.1,5,5,0,0,0,1-3.5,4.6,4.6,0,0,0-1-3.4,2.8,2.8,0,0,0-2.5-1.1,3.1,3.1,0,0,0-2.5,1.1,5.1,5.1,0,0,0-.9,3.4,5.6,5.6,0,0,0,.9,3.5A3.4,3.4,0,0,0,303.2,192.4Zm21,3.6a5.7,5.7,0,0,1-2.9-.7,4.1,4.1,0,0,1-2-1.9h0a2.4,2.4,0,1,1-4.8,0V175.3a2.2,2.2,0,0,1,2.5-2.5c1.6,0,2.4.8,2.4,2.5v6.8a3.9,3.9,0,0,1,2-1.8,6.4,6.4,0,0,1,2.8-.7,6.9,6.9,0,0,1,3.6,1,5.7,5.7,0,0,1,2.4,2.9,9.4,9.4,0,0,1,.9,4.3,10.2,10.2,0,0,1-.9,4.4,6,6,0,0,1-2.4,2.8A6.1,6.1,0,0,1,324.2,196Zm-1.4-3.6a3.4,3.4,0,0,0,2.5-1.1,5.6,5.6,0,0,0,.9-3.5,5.1,5.1,0,0,0-.9-3.4,3.1,3.1,0,0,0-2.5-1.1,2.8,2.8,0,0,0-2.5,1.1,4.6,4.6,0,0,0-1,3.4,5,5,0,0,0,1,3.5A3.1,3.1,0,0,0,322.8,192.4Zm18.8,3.6a8.7,8.7,0,0,1-4.4-1,7.8,7.8,0,0,1-2.9-2.8,8.9,8.9,0,0,1-1-4.4,8.3,8.3,0,0,1,1-4.3,7.4,7.4,0,0,1,2.9-2.9,10.2,10.2,0,0,1,8.8,0,7.4,7.4,0,0,1,2.9,2.9,8.3,8.3,0,0,1,1.1,4.3,9,9,0,0,1-1.1,4.4A7.8,7.8,0,0,1,346,195,8.7,8.7,0,0,1,341.6,196Zm0-3.6a3.3,3.3,0,0,0,2.5-1.1,5,5,0,0,0,1-3.5,4.6,4.6,0,0,0-1-3.4,3.4,3.4,0,0,0-5,0,5.1,5.1,0,0,0-1,3.4,5.6,5.6,0,0,0,1,3.5A3.3,3.3,0,0,0,341.6,192.4Zm18.8,3.6c-4.4,0-6.6-2.1-6.6-6.4v-6h-1.3c-1.3,0-1.9-.6-1.9-1.8s.6-1.8,1.9-1.8h1.3v-2.5c0-1.6.8-2.4,2.5-2.4a2.1,2.1,0,0,1,2.4,2.4V180h3a1.8,1.8,0,1,1,0,3.6h-3v5.8a2.8,2.8,0,0,0,.6,2,2.4,2.4,0,0,0,2,.7h1.6a.7.7,0,0,1,.8.3,1.9,1.9,0,0,1,.3,1.3,2.5,2.5,0,0,1-.3,1.3,1.4,1.4,0,0,1-.9.8l-1.1.3Zm8.2-18.9a3.3,3.3,0,0,1-2.1-.6,2.3,2.3,0,0,1-.7-1.8,2.1,2.1,0,0,1,.7-1.8,3.3,3.3,0,0,1,2.1-.6q2.7,0,2.7,2.4T368.6,177.1Zm0,18.8a2.1,2.1,0,0,1-1.8-.7,2.7,2.7,0,0,1-.7-1.9V182.4c0-1.8.9-2.7,2.5-2.7a2.4,2.4,0,0,1,1.8.7,3,3,0,0,1,.6,2v10.9a2.7,2.7,0,0,1-.6,1.9A2.1,2.1,0,0,1,368.6,195.9Zm13.8.1a9.3,9.3,0,0,1-4.5-1,7.1,7.1,0,0,1-2.9-2.8,8.9,8.9,0,0,1-1-4.4,8.7,8.7,0,0,1,1-4.4,7.1,7.1,0,0,1,2.9-2.8,10.6,10.6,0,0,1,4.5-1l2.1.3a5.8,5.8,0,0,1,2.2.8c.5.3.9.6,1,1.1a2,2,0,0,1-.1,1.3,1.8,1.8,0,0,1-.9,1,1.4,1.4,0,0,1-1.4-.1,4.5,4.5,0,0,0-2.5-.7,3.7,3.7,0,0,0-2.9,1.2,5.9,5.9,0,0,0,0,6.6,3.7,3.7,0,0,0,2.9,1.2h1.3l1.2-.5a1.4,1.4,0,0,1,1.4-.1,1.8,1.8,0,0,1,.9,1,2.8,2.8,0,0,1,0,1.3c-.1.5-.5.8-1,1.1a8.3,8.3,0,0,1-2.2.8Zm13.6,0-2.9-.2a10.7,10.7,0,0,1-2.7-.9c-.5-.3-.9-.6-1-1.1a1.3,1.3,0,0,1,0-1.2,1.4,1.4,0,0,1,.8-.9,1.5,1.5,0,0,1,1.3,0l2.4.8,2.2.2a3.2,3.2,0,0,0,1.9-.4,1.3,1.3,0,0,0,.7-1.2c0-.7-.6-1.2-1.6-1.4l-3.4-.6a5.6,5.6,0,0,1-3.1-1.4,4.1,4.1,0,0,1-1-2.9,4.2,4.2,0,0,1,.9-2.7,5.5,5.5,0,0,1,2.4-1.8,10.5,10.5,0,0,1,3.6-.7,11.2,11.2,0,0,1,5,1.1,1.7,1.7,0,0,1,.9,1,1.9,1.9,0,0,1,0,1.3,2,2,0,0,1-.9.9,1.2,1.2,0,0,1-1.3-.1l-2-.7-1.6-.2a3.8,3.8,0,0,0-2.1.5,1.4,1.4,0,0,0-.6,1.2c0,.7.5,1.2,1.5,1.4l3.4.6a5.6,5.6,0,0,1,3.1,1.4,3.8,3.8,0,0,1,1.1,2.8,4.2,4.2,0,0,1-1.9,3.8A8.1,8.1,0,0,1,396,196Zm22.3,0a2.5,2.5,0,0,1-1.8-.7,2.4,2.4,0,0,1-.6-1.8v-9.9h-1.1c-1.3,0-1.9-.6-1.9-1.8s.6-1.8,1.9-1.8h1.1c0-2.2.6-3.9,1.8-4.9a7.9,7.9,0,0,1,5-2h1a1.7,1.7,0,0,1,1.5.4,1.7,1.7,0,0,1,.6,1.2,2.1,2.1,0,0,1-.3,1.2,1.6,1.6,0,0,1-1.1.7h-.5a4.5,4.5,0,0,0-2.4.8,2.9,2.9,0,0,0-.8,2.1v.6H423c1.3,0,1.9.6,1.9,1.8s-.6,1.8-1.9,1.8h-2.3v9.9A2.2,2.2,0,0,1,418.3,196Zm15.8,0a8.7,8.7,0,0,1-4.4-1,7.1,7.1,0,0,1-2.9-2.8,8.9,8.9,0,0,1-1-4.4,8.3,8.3,0,0,1,1-4.3,6.8,6.8,0,0,1,2.9-2.9,9.8,9.8,0,0,1,4.4-1,10.2,10.2,0,0,1,4.4,1,7.4,7.4,0,0,1,2.9,2.9,8.3,8.3,0,0,1,1,4.3,8.9,8.9,0,0,1-1,4.4,7.8,7.8,0,0,1-2.9,2.8A8.9,8.9,0,0,1,434.1,196Zm0-3.6a3.4,3.4,0,0,0,2.5-1.1,5.6,5.6,0,0,0,1-3.5,5.1,5.1,0,0,0-1-3.4,3.1,3.1,0,0,0-2.5-1.1,3,3,0,0,0-2.5,1.1,4.6,4.6,0,0,0-1,3.4,5,5,0,0,0,1,3.5A3.3,3.3,0,0,0,434.1,192.4Zm13.8,3.6a2.2,2.2,0,0,1-2.5-2.5V182.1a2.1,2.1,0,0,1,2.3-2.4,2.1,2.1,0,0,1,2.4,2.4v.6c.8-1.9,2.4-2.9,4.8-3.1a1.6,1.6,0,0,1,1.2.4,2.5,2.5,0,0,1,.5,1.6,1.9,1.9,0,0,1-2,2.2h-.7q-3.6.3-3.6,3.6v6A2.2,2.2,0,0,1,447.9,196Zm22.5,0a2.9,2.9,0,0,1-1.9-.7,2.9,2.9,0,0,1-.6-1.9v-18a2.5,2.5,0,0,1,.6-1.9,2.5,2.5,0,0,1,1.9-.7,2.3,2.3,0,0,1,2.5,2.6v7.5h0l8.5-8.9,1.2-.8a2.8,2.8,0,0,1,1.3-.3,2.2,2.2,0,0,1,1.6.5,1.9,1.9,0,0,1,.5,1.4,2.7,2.7,0,0,1-.7,1.4l-7.5,7.7,7.9,8.5a2.4,2.4,0,0,1,.8,1.6,1.8,1.8,0,0,1-.6,1.4,2,2,0,0,1-1.6.6,3.3,3.3,0,0,1-1.5-.4l-1.2-1.1-8.7-9.1h0v8a2.4,2.4,0,0,1-2.5,2.6ZM493,177.1a3.3,3.3,0,0,1-2.1-.6,2.3,2.3,0,0,1-.7-1.8,2.1,2.1,0,0,1,.7-1.8,3.3,3.3,0,0,1,2.1-.6q2.7,0,2.7,2.4T493,177.1Zm0,18.8a2.1,2.1,0,0,1-1.8-.7,2.7,2.7,0,0,1-.6-1.9V182.4q0-2.7,2.4-2.7a2.3,2.3,0,0,1,1.8.7,3,3,0,0,1,.6,2v10.9a2.7,2.7,0,0,1-.6,1.9A2.1,2.1,0,0,1,493,195.9Zm12.2.1a6.5,6.5,0,0,1-3.6-1,7.3,7.3,0,0,1-2.4-2.8,11.9,11.9,0,0,1-.8-4.4,11,11,0,0,1,.8-4.3,7,7,0,0,1,2.4-2.9,7.5,7.5,0,0,1,3.6-1,6.9,6.9,0,0,1,2.9.7,5.1,5.1,0,0,1,2,1.8v-6.8c0-1.7.8-2.5,2.4-2.5s2.4.8,2.4,2.5v18.2a2.4,2.4,0,1,1-4.8,0h0a3.9,3.9,0,0,1-1.9,1.9A6,6,0,0,1,505.2,196Zm1.5-3.6a3.4,3.4,0,0,0,2.5-1.1,5.6,5.6,0,0,0,1-3.5,5.1,5.1,0,0,0-1-3.4,3.1,3.1,0,0,0-2.5-1.1,3,3,0,0,0-2.5,1.1,4.6,4.6,0,0,0-1,3.4,5,5,0,0,0,1,3.5A3.3,3.3,0,0,0,506.7,192.4Zm18,3.6-2.9-.2a10.7,10.7,0,0,1-2.7-.9,2,2,0,0,1-1.1-1.1,2.4,2.4,0,0,1,0-1.2,1.8,1.8,0,0,1,.8-.9,1.7,1.7,0,0,1,1.4,0,11.3,11.3,0,0,0,2.4.8l2.1.2a3.5,3.5,0,0,0,2-.4,1.4,1.4,0,0,0,.6-1.2c0-.7-.5-1.2-1.6-1.4l-3.4-.6a5.3,5.3,0,0,1-3-1.4,4.4,4.4,0,0,1-.2-5.6,5.2,5.2,0,0,1,2.5-1.8,9.6,9.6,0,0,1,3.6-.7,11.5,11.5,0,0,1,5,1.1,1.7,1.7,0,0,1,.9,1,2,2,0,0,1-.1,1.3,1.8,1.8,0,0,1-.8.9,1.4,1.4,0,0,1-1.4-.1l-1.9-.7-1.7-.2a3.4,3.4,0,0,0-2,.5,1.3,1.3,0,0,0-.7,1.2c0,.7.5,1.2,1.5,1.4l3.4.6a5.9,5.9,0,0,1,3.2,1.4,3.7,3.7,0,0,1,1,2.8,4.2,4.2,0,0,1-1.9,3.8A7.8,7.8,0,0,1,524.7,196Zm12-.2a2.7,2.7,0,0,1-2-.7,2.9,2.9,0,0,1,0-4,2.7,2.7,0,0,1,2-.7,2.4,2.4,0,0,1,2,.7,2.9,2.9,0,0,1,0,4A2.4,2.4,0,0,1,536.7,195.8Zm0-7.1c-1,0-1.5-.6-1.6-1.7L534,176a3,3,0,0,1,.6-2.3,2.9,2.9,0,0,1,4.2,0,3,3,0,0,1,.6,2.3l-1.1,11C538.2,188.1,537.7,188.7,536.7,188.7Z" transform="translate(-0.9 -1.1)" style="fill:#fff"/></g></svg>