<svg id="b7a1c653-6b2d-4b2e-9812-df536d006252" data-name="Layer 1" xmlns="http://www.w3.org/2000/svg" viewBox="0 0 543.1 232.4"><title>erovoutika-logo-&amp;amp;-desc(white)</title><g id="f29d5da1-84ee-4736-aba7-8427e27f4918" data-name="b945bfc3-d9d6-426b-99f8-c72e5823deb4"><g id="f14d1b39-f796-4e11-8e0b-a275d7edc1ec" data-name="a59307d2-4dbd-4934-84df-7a5dcb9041df"><path d="M127.9,125.5A8.7,8.7,0,0,0,119,134v.2a8.8,8.8,0,0,0,17.4,2h15.7v-3.9H136.4A8.7,8.7,0,0,0,127.9,125.5Zm0,13a4.4,4.4,0,0,1-3.6-4.9,4.3,4.3,0,0,1,8.5,1.3,4.2,4.2,0,0,1-3.6,3.6ZM60.3,143a8.7,8.7,0,0,0,8.9-8.5v-.2a8.8,8.8,0,0,0-17.4-2H37.1v3.9H51.8A8.7,8.7,0,0,0,60.3,143Zm0-13a4.3,4.3,0,1,1-4.3,4.3,4.2,4.2,0,0,1,4.1-4.3h.2Zm-22.7-.7a57.4,57.4,0,0,1,114,0H138.5a11.7,11.7,0,0,0-15.4-5.8,11.9,11.9,0,0,0-5.1,4.6H80.4v-8.5h40.1L132.9,101H61.1v21.6h-.8a11.5,11.5,0,0,0-10.6,6.8ZM152,139.2a57.5,57.5,0,0,1-114.8,0H49.7A11.5,11.5,0,0,0,60.3,146h.8v26.5h59.7l12.3-18.4H80.4v-9.7h38.1l1.2-1.8a11.6,11.6,0,0,0,16.4.1,12.1,12.1,0,0,0,2.4-3.5ZM201.1,162H188l-7.1-11.3h-15V162h-9.8V140.1h27.5a5.8,5.8,0,0,0,3.8-1.3,4.2,4.2,0,0,0,1.6-3.6,4.7,4.7,0,0,0-1.4-3.7,5.7,5.7,0,0,0-4-1.3H156.1l6.4-11.2h20.3a26,26,0,0,1,5.6.7,16.4,16.4,0,0,1,5.2,2.4,11.9,11.9,0,0,1,3.9,4.7,15.6,15.6,0,0,1,1.6,7.6,19.7,19.7,0,0,1-.6,4.8,15.2,15.2,0,0,1-1.6,4,13,13,0,0,1-2.6,3.1,8.8,8.8,0,0,1-3.5,1.7l1.8,2.1,2.6,3.6Zm23.5-43c7.6,0,13.3,1.8,17.2,5.3s5.7,9.1,5.7,16.7-1.9,13.2-5.7,16.7-9.6,5.3-17.2,5.3-13.4-1.8-17.2-5.3-5.7-9.1-5.7-16.7,1.9-13.2,5.7-16.7S216.9,119,224.6,119Zm0,32.9a43,43,0,0,0,6.2-.4,9.8,9.8,0,0,0,4.1-1.6,7.1,7.1,0,0,0,2.3-3.4,20.2,20.2,0,0,0,.7-5.5,21,21,0,0,0-.7-5.6,6.4,6.4,0,0,0-2.3-3.3,9.8,9.8,0,0,0-4.1-1.6,51.4,51.4,0,0,0-12.4,0,9.8,9.8,0,0,0-4.1,1.6,6.4,6.4,0,0,0-2.3,3.3,21,21,0,0,0-.7,5.6,20.2,20.2,0,0,0,.7,5.5,7.1,7.1,0,0,0,2.3,3.4,9.8,9.8,0,0,0,4.1,1.6A43,43,0,0,0,224.6,151.9Zm32.7-32.2L271.4,148l14.7-28.3h11.5l-20.1,38.5a15.9,15.9,0,0,1-2.5,3.3,5.4,5.4,0,0,1-3.8,1.5,5.5,5.5,0,0,1-3.7-1.4,12,12,0,0,1-2.5-3.4l-19.6-38.5Zm61.5-.7c7.6,0,13.3,1.8,17.2,5.3s5.7,9.1,5.7,16.7-1.9,13.2-5.7,16.7-9.5,5.3-17.2,5.3-13.4-1.8-17.2-5.3-5.7-9.1-5.7-16.7,1.9-13.2,5.7-16.7,9.5-5.3,17.2-5.3Zm0,32.9a43,43,0,0,0,6.2-.4,9.8,9.8,0,0,0,4.1-1.6,7.1,7.1,0,0,0,2.3-3.4,20.2,20.2,0,0,0,.7-5.5,21,21,0,0,0-.7-5.6,6.4,6.4,0,0,0-2.3-3.3,9.8,9.8,0,0,0-4.1-1.6,51.4,51.4,0,0,0-12.4,0,9.8,9.8,0,0,0-4.1,1.6,6.4,6.4,0,0,0-2.3,3.3,21,21,0,0,0-.7,5.6,20.2,20.2,0,0,0,.7,5.5,7.1,7.1,0,0,0,2.3,3.4,9.8,9.8,0,0,0,4.1,1.6,43,43,0,0,0,6.2.4Zm68.6-8.2c0,12.8-6.6,19.3-19.6,19.3a31.9,31.9,0,0,1-9.7-1.2,16.2,16.2,0,0,1-6.8-3.7,15.8,15.8,0,0,1-3.8-6,23.8,23.8,0,0,1-1.3-8.4v-24h9.7v24a17.2,17.2,0,0,0,.4,3.9,4.4,4.4,0,0,0,1.8,2.6,9.3,9.3,0,0,0,3.6,1.4,41.7,41.7,0,0,0,6.1.4,24.2,24.2,0,0,0,4.7-.4,5.7,5.7,0,0,0,3-1.5,4.8,4.8,0,0,0,1.6-2.6,15.8,15.8,0,0,0,.5-3.8v-24h9.8Zm44.4-24-6.3,11.1H414.3v31.5h-9.7V130.8H389.9l6.3-11.1Zm12.8,42.6h-9.7V119.7h9.7Zm45.6,0H475.5l-9.4-11.2c-1.7-1.9-2.9-3.4-3.8-4.5l-2.1-2.7c.1,1,.1,2,.1,3.1s.1,2,.1,3.1v12.2h-9.8V119.7h9.8v9.9c0,1.3,0,2.6-.1,3.8s0,2.5-.1,3.6l2.3-2.8c.9-1.1,2-2.5,3.5-4.1l9-10.4h14.1l-12,12.2-2.8,2.8-2.1,2.1-1.7,1.6-1.5,1.3,3.2,3.2,5,5.3Zm16.4,0,5.9-11h10.8l2.6.2-1.5-2.9-1.6-3.3L517.1,134l-14.7,28.3H490.9L511,123.8a11.5,11.5,0,0,1,2.5-3.3,5.4,5.4,0,0,1,3.8-1.5,4.7,4.7,0,0,1,3.7,1.4,12,12,0,0,1,2.5,3.4l19.6,38.5Z" transform="translate(0)" style="fill:#fff"/></g><g id="b72062e3-10d9-4a2a-b428-d755f2ada37a" data-name="a433ada8-2cc4-46fb-8fcb-4a9356045014"><path d="M186,165a2,2,0,0,1-1.7-.9l-5.4-9.2a1.9,1.9,0,0,0-1.7-1h-5.5a2.2,2.2,0,0,0-2,2.1v7a2,2,0,0,1-2,2H155.6a2,2,0,0,1-2-2v-2.3A63.9,63.9,0,0,1,94,200.1c-36-.3-63.6-29.7-63.5-64.5a64,64,0,0,1,126.6-12.4l3.4-6.1a1.8,1.8,0,0,1,1.7-1.1h19.9a27.8,27.8,0,0,1,5.7.7h.2a1.4,1.4,0,0,0,.7-1.7,97.5,97.5,0,0,0-5.4-16.6c-1.3-3-1.3-2.9-4.5-2.5l-14.5,1.9a1.6,1.6,0,0,1-1.8-.9,64.2,64.2,0,0,0-10-13.7,1.7,1.7,0,0,1-.3-2.1L159.1,66a1.3,1.3,0,0,0-.3-1.8h-.1A98.9,98.9,0,0,0,143,52.7a1.2,1.2,0,0,0-1.7.2h0L129,64.2c-.7.7-1.2.9-2.1.4a83.4,83.4,0,0,0-16.7-5.4,1.5,1.5,0,0,1-1.4-1.3c-1.1-5.5-2.2-11-3.2-16.5-.2-.9-.6-1.3-1.5-1.3A94.8,94.8,0,0,0,84.9,40c-.9.1-1.2.4-1.4,1.3L80.2,58A1.5,1.5,0,0,1,79,59.2a66.2,66.2,0,0,0-16.8,5.5,1.9,1.9,0,0,1-2.4-.4L47.5,53a1.2,1.2,0,0,0-1.7-.2h0A103,103,0,0,0,30.1,64.2c-.6.6-.7,1-.3,1.7,2.3,5,4.6,10.1,7,15.2a1.7,1.7,0,0,1-.3,2.3A68.9,68.9,0,0,0,25.9,98,1.6,1.6,0,0,1,24,99L7.3,97.2a1.2,1.2,0,0,0-1.5.8h0A94.2,94.2,0,0,0,.1,116c-.3,1.2.1,1.7,1.1,2.2l14.4,8a1.5,1.5,0,0,1,.8,1.1,80,80,0,0,0,.2,18.3,1.7,1.7,0,0,1-.9,1.8L1.1,155.8a1.2,1.2,0,0,0-.8,1.5h0v.2a91.5,91.5,0,0,0,6.1,18.3,1.6,1.6,0,0,0,1.7,1L25,174.7c.7-.1,1.1,0,1.4.7a75.5,75.5,0,0,0,10.4,14.1,1.1,1.1,0,0,1,.3,1.5H37c-2.4,5.1-4.7,10.3-7.1,15.4a1.4,1.4,0,0,0,.4,1.8A111,111,0,0,0,46,219.8a1.4,1.4,0,0,0,1.8-.2l12.3-11.5a1.7,1.7,0,0,1,2.1-.3,67.6,67.6,0,0,0,16.3,5.3,1.9,1.9,0,0,1,1.8,1.9c1,5.3,2.2,10.6,3.2,15.9a1.7,1.7,0,0,0,1.6,1.5h9.4s5.7.1,9.5-.1c1-.2,1.4-.4,1.6-1.4,1-5.4,2.1-10.7,3.2-16.1.2-1,.5-1.5,1.6-1.7a77,77,0,0,0,17-5.6,1.1,1.1,0,0,1,1.5.3c4.2,3.9,8.5,7.7,12.6,11.6a1.2,1.2,0,0,0,1.7.2h0a103,103,0,0,0,15.7-11.4,1.3,1.3,0,0,0,.4-1.8h-.1c-2.4-5.1-4.7-10.3-7.1-15.4a1.1,1.1,0,0,1,.1-1.5h.1a74.5,74.5,0,0,0,11-15.2,1.3,1.3,0,0,1,1.5-.8l16.8,1.8c.9.1,1.4-.1,1.7-1,1.3-3,2.4-6.1,3.4-9.2Z" transform="translate(0)" style="fill:#fff"/></g><g id="e054ce1b-a84f-400d-8c5b-0c974d3a2dde" data-name="a4765e0a-69fb-459b-a165-5f6d07418919"><path d="M179.1,54a19,19,0,1,0,19,19A19,19,0,0,0,179.1,54Zm0,28a9,9,0,1,1,9-9h0A9,9,0,0,1,179.1,82Zm60-50a16,16,0,1,0-16-16A16,16,0,0,0,239.1,32Zm0-23.5a7.6,7.6,0,1,1-7.6,7.6h0a7.6,7.6,0,0,1,7.6-7.6Zm83,21.5a13,13,0,1,0-13,13A13,13,0,0,0,322.1,30Zm-19.2,0a6.2,6.2,0,1,1,6.2,6.2,6.2,6.2,0,0,1-6.2-6.2Zm25.2,33a11,11,0,1,0,11,11A11,11,0,0,0,328.1,63Zm0,16.3a5.3,5.3,0,1,1,5.2-5.4h0a5.2,5.2,0,0,1-5.1,5.3h-.1ZM239.1,35l3.1-.2L200.8,78.7l-.4-.3a20,20,0,0,0,.7-5.4,21.9,21.9,0,0,0-21.8-22h-.2a21,21,0,0,0-4.3.5l45.9-40.2a18.4,18.4,0,0,0-.6,4.7,19,19,0,0,0,19,19Zm54-5a16.4,16.4,0,0,0,3.8,10.4L247.7,33a19,19,0,0,0,8.4-25.5,19.8,19.8,0,0,0-2.8-4.1V3l49.1,12.3v.2A16.1,16.1,0,0,0,293.1,30Zm21.5,40.3L301.3,44a16.1,16.1,0,0,0,21.9-6.3h0a16,16,0,0,0,1-2.3l10.3,26.2a13.9,13.9,0,0,0-18.8,5.8h0A14.5,14.5,0,0,0,314.6,70.3Zm3.5,30.7,12,18-26-18L316,81.1A13.9,13.9,0,0,0,327.4,88Zm45.8-21.5-7.7,30.7-2.9-21.4-16.4-3.9A14.1,14.1,0,0,0,342.1,74a6.6,6.6,0,0,0-.1-1.4Z" transform="translate(0)" style="fill:#fff"/></g></g><g id="a101b61c-7ef5-4d8f-8ad8-857dba53ead7" data-name="a19f8ce4-b3b0-482e-9525-8bc53e5c6970"><path d="M193,168.5h3a9,9,0,0,1,3.6.5,3.9,3.9,0,0,1,1.7,1.4,5.4,5.4,0,0,1,.6,2.5,4.3,4.3,0,0,1-.7,2.5,4.5,4.5,0,0,1-2.1,1.5l3.6,6.7h-3.2l-3.4-6.4h-.2v6.4H193Zm2.9,5.9h.9a2.9,2.9,0,0,0,1.8-.3,1.4,1.4,0,0,0,.6-1.2,1.4,1.4,0,0,0-.3-.9,1.8,1.8,0,0,0-.7-.5l-1.6-.2h-.7Z" transform="translate(0)" style="fill:#fff"/><path d="M209.9,172.2a5.5,5.5,0,0,1,5.1,2.9,5.1,5.1,0,0,1,.8,2.9,5.2,5.2,0,0,1-.8,3,5.3,5.3,0,0,1-2.1,2.1,6.1,6.1,0,0,1-3,.8,5.8,5.8,0,0,1-4.1-1.7,5.9,5.9,0,0,1,.2-8.5A5.8,5.8,0,0,1,209.9,172.2Zm.1,2.6a3.1,3.1,0,0,0-2.2.9,3.2,3.2,0,0,0-.9,2.3,3.4,3.4,0,0,0,.9,2.4,2.7,2.7,0,0,0,2.1.9,3.1,3.1,0,0,0,2.2-.9,3.4,3.4,0,0,0,.9-2.4,3.2,3.2,0,0,0-.9-2.3A2.7,2.7,0,0,0,210,174.8Z" transform="translate(0)" style="fill:#fff"/><path d="M220.9,168.1v5.6a6.1,6.1,0,0,1,1.6-1.2,6.3,6.3,0,0,1,1.9-.3,4.7,4.7,0,0,1,3.7,1.6,6.4,6.4,0,0,1,0,8.4,5.2,5.2,0,0,1-3.8,1.7,3.9,3.9,0,0,1-1.8-.4,5.7,5.7,0,0,1-1.6-1.1v1.2h-2.8V168.1Zm2.9,6.6a3.1,3.1,0,0,0-2.2.9,3.9,3.9,0,0,0,0,4.8,3.1,3.1,0,0,0,4.4,0,3.4,3.4,0,0,0,.9-2.4,3.2,3.2,0,0,0-.9-2.3,2.7,2.7,0,0,0-2.2-1Z" transform="translate(0)" style="fill:#fff"/><path d="M237.2,172.2a6.3,6.3,0,0,1,3,.7,7.7,7.7,0,0,1,2.2,2.2,5.9,5.9,0,0,1,.7,2.9,5.2,5.2,0,0,1-.8,3,5.3,5.3,0,0,1-2.1,2.1,6.1,6.1,0,0,1-3,.8,5.8,5.8,0,0,1-4.1-1.7,5.9,5.9,0,0,1,.2-8.5A5.8,5.8,0,0,1,237.2,172.2Zm.1,2.6a3.1,3.1,0,0,0-2.2.9,3.2,3.2,0,0,0-.9,2.3,3.4,3.4,0,0,0,.9,2.4,2.7,2.7,0,0,0,2.1.9,3.1,3.1,0,0,0,2.2-.9,3.4,3.4,0,0,0,.9-2.4,4,4,0,0,0-.8-2.3A3.1,3.1,0,0,0,237.3,174.8Z" transform="translate(0)" style="fill:#fff"/><path d="M245.8,168.3h2.8v4.1h1.6v2.5h-1.6v8.7h-2.8v-8.7h-1.5v-2.5h1.5Z" transform="translate(0)" style="fill:#fff"/><path d="M252.8,167.8a1.6,1.6,0,0,1,1.3.6,2.1,2.1,0,0,1,.5,1.3,1.8,1.8,0,0,1-1.6,1.8h-.2a1.4,1.4,0,0,1-1.2-.6,1.6,1.6,0,0,1-.6-1.3,1.7,1.7,0,0,1,.5-1.2A1.6,1.6,0,0,1,252.8,167.8Zm-1.4,4.6h2.8v11.2h-2.8Z" transform="translate(0)" style="fill:#fff"/><path d="M267.7,174.7l-2.4,1.3a3.2,3.2,0,0,0-1.3-1,3.9,3.9,0,0,0-1.5-.2,3.8,3.8,0,0,0-2.5.9,3.1,3.1,0,0,0-1,2.4,2.9,2.9,0,0,0,1,2.3,3.4,3.4,0,0,0,2.4.9,3.3,3.3,0,0,0,2.9-1.3l2.2,1.6a6.7,6.7,0,0,1-9.6.5,5.6,5.6,0,0,1-1.7-4,6.1,6.1,0,0,1,.8-3,6.9,6.9,0,0,1,2.3-2.2,7.1,7.1,0,0,1,3.2-.7,7.7,7.7,0,0,1,3,.6A6.7,6.7,0,0,1,267.7,174.7Z" transform="translate(0)" style="fill:#fff"/><path d="M277,174l-1.7,1.7a3,3,0,0,0-1.9-1l-.8.2a.8.8,0,0,0-.2.5.6.6,0,0,0,.1.4l.9.5,1,.5a6.2,6.2,0,0,1,2.2,1.7,3.5,3.5,0,0,1-.5,4.4,3.8,3.8,0,0,1-2.9,1,4.9,4.9,0,0,1-3.9-1.9l1.7-1.9a2.7,2.7,0,0,0,1.2.9,1.7,1.7,0,0,0,1.2.4,1.6,1.6,0,0,0,.9-.3.9.9,0,0,0,.3-.6c0-.4-.4-.8-1.2-1.3l-1-.4c-1.8-.9-2.7-2.1-2.7-3.4a3.3,3.3,0,0,1,1-2.3,4.1,4.1,0,0,1,2.6-.9,5.2,5.2,0,0,1,2.1.4A5.4,5.4,0,0,1,277,174Z" transform="translate(0)" style="fill:#fff"/><path d="M293.5,172.4h2.8v11.2h-2.8v-1.2a5.7,5.7,0,0,1-1.6,1.1,3.9,3.9,0,0,1-1.8.4,4.8,4.8,0,0,1-3.7-1.7,5.4,5.4,0,0,1-1.6-4.2,6,6,0,0,1,1.5-4.2,5.1,5.1,0,0,1,3.7-1.6,6.3,6.3,0,0,1,1.9.3,6.1,6.1,0,0,1,1.6,1.2Zm-2.9,2.3a2.7,2.7,0,0,0-2.2,1,4,4,0,0,0-.8,2.3,3.4,3.4,0,0,0,.9,2.4,2.7,2.7,0,0,0,2.1.9,3.1,3.1,0,0,0,2.2-.9,3.6,3.6,0,0,0,0-4.8A3.1,3.1,0,0,0,290.6,174.7Z" transform="translate(0)" style="fill:#fff"/><path d="M299.2,172.4H302v1.2l1.7-1.1a4.5,4.5,0,0,1,1.6-.3,4.1,4.1,0,0,1,2.8,1.1,4.3,4.3,0,0,1,1,2.9v7.4h-2.8v-4.9a11.4,11.4,0,0,0-.2-2.6,1.3,1.3,0,0,0-.6-1,1.5,1.5,0,0,0-1.1-.4,2,2,0,0,0-1.5.6,3,3,0,0,0-.8,1.6,16.2,16.2,0,0,0-.1,2.2v4.5h-2.8Z" transform="translate(0)" style="fill:#fff"/><path d="M320,168.1h2.8v15.5H320v-1.2a5.7,5.7,0,0,1-1.6,1.1,3.9,3.9,0,0,1-1.8.4,5.2,5.2,0,0,1-3.8-1.7,6.6,6.6,0,0,1,0-8.4,4.7,4.7,0,0,1,3.7-1.6,6.3,6.3,0,0,1,1.9.3,6.1,6.1,0,0,1,1.6,1.2Zm-2.9,6.6a2.7,2.7,0,0,0-2.2,1,3.2,3.2,0,0,0-.9,2.3,3.4,3.4,0,0,0,.9,2.4,3.1,3.1,0,0,0,4.4,0,3.9,3.9,0,0,0,0-4.8,3.1,3.1,0,0,0-2.2-.9Z" transform="translate(0)" style="fill:#fff"/><path d="M336.4,168.5h2.9l5.8,15.1h-3l-1.1-3.1h-6.2l-1.2,3.1h-3Zm1.5,4-2,5.2h4Z" transform="translate(0)" style="fill:#fff"/><path d="M347,172.4h2.9v5.4a5.5,5.5,0,0,0,.2,2.2,1.6,1.6,0,0,0,.7.9,1.5,1.5,0,0,0,1.1.4,1.7,1.7,0,0,0,1.2-.4,1.8,1.8,0,0,0,.8-.9,14.8,14.8,0,0,0,.1-2.1v-5.5h2.8v4.8a10.9,10.9,0,0,1-.4,4,5.5,5.5,0,0,1-1.7,2,4.5,4.5,0,0,1-2.8.7,5.1,5.1,0,0,1-2.9-.8,4.6,4.6,0,0,1-1.6-2.3,11.7,11.7,0,0,1-.4-3.7Z" transform="translate(0)" style="fill:#fff"/><path d="M360,168.3h2.8v4.1h1.6v2.5h-1.6v8.7H360v-8.7h-1.5v-2.5H360Z" transform="translate(0)" style="fill:#fff"/><path d="M371.2,172.2a5.9,5.9,0,0,1,2.9.7,5.8,5.8,0,0,1,2.2,2.2,6,6,0,0,1,.8,2.9,6.1,6.1,0,0,1-.8,3,5.3,5.3,0,0,1-2.1,2.1,6.1,6.1,0,0,1-3,.8,5.8,5.8,0,0,1-4.1-1.7,5.9,5.9,0,0,1-1.7-4.2,5.2,5.2,0,0,1,1.9-4.3A5.8,5.8,0,0,1,371.2,172.2Zm0,2.6a2.7,2.7,0,0,0-2.1.9,3.2,3.2,0,0,0-.9,2.3,4.1,4.1,0,0,0,.8,2.4,3.1,3.1,0,0,0,4.4,0h0a3.4,3.4,0,0,0,.9-2.4,3.2,3.2,0,0,0-.9-2.3A3.1,3.1,0,0,0,371.2,174.8Z" transform="translate(0)" style="fill:#fff"/><path d="M379.4,172.4h2.8v1.3a4.8,4.8,0,0,1,1.6-1.2,6.3,6.3,0,0,1,1.9-.3,3.3,3.3,0,0,1,3.2,2,5.7,5.7,0,0,1,1.6-1.5,4.2,4.2,0,0,1,2.2-.5,3.1,3.1,0,0,1,2.1.5,3.7,3.7,0,0,1,1.3,1.5,9.2,9.2,0,0,1,.4,2.9v6.5h-2.9v-5.7a4.3,4.3,0,0,0-.4-2.5,1.7,1.7,0,0,0-1.5-.7,1.7,1.7,0,0,0-1.2.4,3.1,3.1,0,0,0-.9,1.1,9.9,9.9,0,0,0-.3,2.4v5h-2.8v-5.4a16.4,16.4,0,0,0-.2-2.2,1.8,1.8,0,0,0-.7-1,1.7,1.7,0,0,0-1-.3,2,2,0,0,0-1.3.4,2.7,2.7,0,0,0-.9,1.2,17.9,17.9,0,0,0-.2,2.3v5h-2.8Z" transform="translate(0)" style="fill:#fff"/><path d="M407.4,172.4h2.8v11.2h-2.8v-1.2a6.2,6.2,0,0,1-1.7,1.1,3.9,3.9,0,0,1-1.8.4,4.8,4.8,0,0,1-3.7-1.7,5.4,5.4,0,0,1-1.6-4.2,6,6,0,0,1,1.5-4.2,5.2,5.2,0,0,1,3.7-1.6,6.3,6.3,0,0,1,1.9.3,6.6,6.6,0,0,1,1.7,1.2Zm-3,2.3a2.3,2.3,0,0,0-2.1,1,3.2,3.2,0,0,0-.9,2.3,3.4,3.4,0,0,0,.9,2.4,2.7,2.7,0,0,0,2.1.9,3.1,3.1,0,0,0,2.2-.9,3.7,3.7,0,0,0,0-4.8A3.1,3.1,0,0,0,404.4,174.7Z" transform="translate(0)" style="fill:#fff"/><path d="M413.3,168.3h2.8v4.1h1.7v2.5h-1.7v8.7h-2.8v-8.7h-1.4v-2.5h1.4Z" transform="translate(0)" style="fill:#fff"/><path d="M420.4,167.8a1.4,1.4,0,0,1,1.2.6,1.7,1.7,0,0,1,0,2.6,1.7,1.7,0,0,1-1.2.5,1.6,1.6,0,0,1-1.3-.6,2.1,2.1,0,0,1-.5-1.3,1.7,1.7,0,0,1,.5-1.2A1.6,1.6,0,0,1,420.4,167.8Zm-1.4,4.6h2.8v11.2H419Z" transform="translate(0)" style="fill:#fff"/><path d="M429.6,172.2a5.9,5.9,0,0,1,2.9.7,5.8,5.8,0,0,1,2.2,2.2,6,6,0,0,1,.8,2.9,6.1,6.1,0,0,1-.8,3,5.6,5.6,0,0,1-2.2,2.1,6,6,0,0,1-2.9.8,5.8,5.8,0,0,1-4.1-1.7,5.5,5.5,0,0,1-1.7-4.2,5.2,5.2,0,0,1,1.9-4.3A5.8,5.8,0,0,1,429.6,172.2Zm0,2.6a3.1,3.1,0,0,0-2.2.9,2.9,2.9,0,0,0-.8,2.3,3.1,3.1,0,0,0,.8,2.4,3.1,3.1,0,0,0,4.4,0h0a3.4,3.4,0,0,0,.9-2.4,3.2,3.2,0,0,0-.9-2.3A3.1,3.1,0,0,0,429.6,174.8Z" transform="translate(0)" style="fill:#fff"/><path d="M437.8,172.4h2.8v1.2l1.7-1.1a4.5,4.5,0,0,1,1.6-.3,4.1,4.1,0,0,1,2.8,1.1,4.3,4.3,0,0,1,1,2.9v7.4h-2.8v-4.9a11.4,11.4,0,0,0-.2-2.6,1.3,1.3,0,0,0-.6-1,1.5,1.5,0,0,0-1.1-.4,2,2,0,0,0-1.5.6,3,3,0,0,0-.8,1.6,16.2,16.2,0,0,0-.1,2.2v4.5h-2.8Z" transform="translate(0)" style="fill:#fff"/><path d="M464.5,170.6l-2.2,1.8a3.1,3.1,0,0,0-2.2-1.5,1.7,1.7,0,0,0-1,.3.9.9,0,0,0-.3.7,1.9,1.9,0,0,0,.2.7l2.1,1.9a11.2,11.2,0,0,1,2,1.8,6.5,6.5,0,0,1,1.3,1.6,5.7,5.7,0,0,1,.3,1.8,4,4,0,0,1-1.3,3.1,4.5,4.5,0,0,1-3.3,1.2,5.4,5.4,0,0,1-2.8-.8,6.4,6.4,0,0,1-2.1-2.5l2.5-1.4c.7,1.3,1.5,2,2.5,2a1.7,1.7,0,0,0,1.2-.5,1.2,1.2,0,0,0,.5-1,1.3,1.3,0,0,0-.4-1,12.9,12.9,0,0,0-1.7-1.6,11.4,11.4,0,0,1-3.1-3.1,3.2,3.2,0,0,1-.8-2.1,3.6,3.6,0,0,1,1.2-2.7,4.2,4.2,0,0,1,3-1.2,3.9,3.9,0,0,1,2.1.6A6,6,0,0,1,464.5,170.6Z" transform="translate(0)" style="fill:#fff"/><path d="M472.4,172.2a5.4,5.4,0,0,1,5.1,2.9,5.1,5.1,0,0,1,.8,2.9,6.1,6.1,0,0,1-.8,3,5.3,5.3,0,0,1-2.1,2.1,6.1,6.1,0,0,1-3,.8,5.8,5.8,0,0,1-4.1-1.7,5.9,5.9,0,0,1-1.7-4.2,5.2,5.2,0,0,1,1.9-4.3A5.8,5.8,0,0,1,472.4,172.2Zm0,2.6a2.7,2.7,0,0,0-2.1.9,3.2,3.2,0,0,0-.9,2.3,3.4,3.4,0,0,0,.9,2.4,2.7,2.7,0,0,0,2.1.9,3.1,3.1,0,0,0,2.2-.9,3.4,3.4,0,0,0,.9-2.4,3.2,3.2,0,0,0-.9-2.3A3.1,3.1,0,0,0,472.4,174.8Z" transform="translate(0)" style="fill:#fff"/><path d="M480.3,168.1h2.8v15.5h-2.8Z" transform="translate(0)" style="fill:#fff"/><path d="M485.6,172.4h2.9v5.4a5.5,5.5,0,0,0,.2,2.2,1.3,1.3,0,0,0,.7.9,1.5,1.5,0,0,0,1.1.4,1.7,1.7,0,0,0,1.2-.4,1.8,1.8,0,0,0,.8-.9,14.8,14.8,0,0,0,.1-2.1v-5.5h2.8v4.8a10.9,10.9,0,0,1-.4,4,5.5,5.5,0,0,1-1.7,2,4.5,4.5,0,0,1-2.8.7,4.4,4.4,0,0,1-4.6-3.1,11.6,11.6,0,0,1-.3-3.7Z" transform="translate(0)" style="fill:#fff"/><path d="M498.6,168.3h2.8v4.1H503v2.5h-1.6v8.7h-2.8v-8.7h-1.5v-2.5h1.5Z" transform="translate(0)" style="fill:#fff"/><path d="M505.6,167.8a1.6,1.6,0,0,1,1.3.6,2.1,2.1,0,0,1,.5,1.3,1.8,1.8,0,0,1-1.6,1.8h-.2a1.4,1.4,0,0,1-1.2-.6,1.6,1.6,0,0,1-.6-1.3,2.1,2.1,0,0,1,1.8-1.8Zm-1.4,4.6H507v11.2h-2.8Z" transform="translate(0)" style="fill:#fff"/><path d="M514.8,172.2a5.5,5.5,0,0,1,5.1,2.9,5.1,5.1,0,0,1,.8,2.9,5.2,5.2,0,0,1-.8,3,5.3,5.3,0,0,1-2.1,2.1,6.1,6.1,0,0,1-3,.8,5.8,5.8,0,0,1-4.1-1.7A5.9,5.9,0,0,1,509,178,5.8,5.8,0,0,1,514.8,172.2Zm0,2.6a2.7,2.7,0,0,0-2.1.9,3.2,3.2,0,0,0-.9,2.3,3.4,3.4,0,0,0,.9,2.4,2.7,2.7,0,0,0,2.1.9,3.1,3.1,0,0,0,2.2-.9,3.4,3.4,0,0,0,.9-2.4,3.2,3.2,0,0,0-.9-2.3A3.1,3.1,0,0,0,514.8,174.8Z" transform="translate(0)" style="fill:#fff"/><path d="M523,172.4h2.8v1.2l1.7-1.1a4.5,4.5,0,0,1,1.6-.3,3.4,3.4,0,0,1,2.8,1.1,3.8,3.8,0,0,1,1,2.9v7.4h-2.8v-4.9a22.6,22.6,0,0,0-.1-2.6,2.3,2.3,0,0,0-.7-1,1.5,1.5,0,0,0-1.1-.4,2,2,0,0,0-1.4.6,4.2,4.2,0,0,0-.9,1.6,16.2,16.2,0,0,0-.1,2.2v4.5H523Z" transform="translate(0)" style="fill:#fff"/><path d="M542.4,174l-1.7,1.7a3,3,0,0,0-1.9-1l-.8.2a.8.8,0,0,0-.2.5.5.5,0,0,0,.2.4l.8.5,1,.5a6.2,6.2,0,0,1,2.2,1.7,3.3,3.3,0,0,1,.6,1.9,3.5,3.5,0,0,1-1,2.5,4.5,4.5,0,0,1-3,1,4.9,4.9,0,0,1-3.9-1.9l1.7-1.9a3.4,3.4,0,0,0,1.2.9,1.7,1.7,0,0,0,1.2.4,1.6,1.6,0,0,0,.9-.3.9.9,0,0,0,.3-.6c0-.4-.4-.8-1.2-1.3l-1-.4c-1.8-.9-2.7-2.1-2.7-3.4a3,3,0,0,1,1.1-2.3,3.5,3.5,0,0,1,2.6-.9,4.5,4.5,0,0,1,2,.4A4.3,4.3,0,0,1,542.4,174Z" transform="translate(0)" style="fill:#fff"/></g></svg>