<svg xmlns="http://www.w3.org/2000/svg" xmlns:xlink="http://www.w3.org/1999/xlink" viewBox="0 0 975.6 1066.8"><defs><clipPath id="adc1b6fe-408c-4a50-b477-a952097c842f" transform="translate(-146.4 -51.7)"><polygon points="609.7 1008.3 606 872 750 872 746.3 1008.3 609.7 1008.3" style="fill:none"/></clipPath></defs><title>robot-hero-vector-2</title><g id="a7ce058a-65ea-48cf-81a4-25e91994f76f" data-name="Robot"><g id="e29e38fc-4299-485a-9383-1fe8ae4316e3" data-name="Arm"><line x1="200.5" y1="467" x2="364.1" y2="630.6" style="fill:#172f45"/><rect x="398.7" y="484.8" width="60" height="231.4" transform="translate(-445.5 427.4) rotate(-45)" style="fill:#172f45"/></g><circle id="a8a0c9ab-e020-4748-9780-e7a654decb46" data-name="Wrist Joint" cx="110.5" cy="252.1" r="35.5" style="fill:#adb5bd"/><g id="bfe0f580-1c23-4e51-bc10-eefe80f913a5" data-name="Hand"><path id="b0fe3aab-a21a-4879-b10e-63c3e33a3bea" data-name="Thumb Finger" d="M309.2,197.1,285,224l1.2,4.3,2.7,9.7,5.6,19.7.8.6,34.8-45.1A64.7,64.7,0,0,0,309.2,197.1Z" transform="translate(-146.4 -51.7)" style="fill:#adb5bd"/><path id="a1951c67-13fa-43ef-8052-726f7d578ca5" data-name="Pinky Finger" d="M201.6,224l-32.5-46.9a63.9,63.9,0,0,0-22.7,13.2l27.9,48C183.2,233.1,192.3,228.4,201.6,224Z" transform="translate(-146.4 -51.7)" style="fill:#adb5bd"/><path id="b2d1d640-ab21-48c4-a131-58c289061ede" data-name="Index Finger" d="M259,146.4a64.9,64.9,0,0,0-25.7,5.6c2.6,19,5.3,37.9,7.9,56.6,9.7-3.1,19.6-5.7,29.6-7.9" transform="translate(-146.4 -51.7)" style="fill:#adb5bd"/><path id="a83f37ad-4d64-432f-8f3b-69132a5f8f6d" data-name="Middle Finger" d="M222.6,215.1l12.8-5c-7.6-17.2-15.1-34.6-22.7-52.1a63.7,63.7,0,0,0-24.6,9.5l18.5,53.8,12.8-5Z" transform="translate(-146.4 -51.7)" style="fill:#adb5bd"/><path id="a5cb4986-9ddb-4949-8ff5-e9e5f3a1dbe9" data-name="Palm" d="M273,207.7A330.7,330.7,0,0,0,177.3,245l35.4,70.4a331.1,331.1,0,0,0,81.9-32q-6.5-22.2-12.6-43.8c-.9-3.3-1.8-6.6-2.8-9.9C277.1,222.3,275.1,215,273,207.7Z" transform="translate(-146.4 -51.7)" style="fill:#dee2e6"/></g><g id="ecd0fae1-4894-429a-b5b5-25fdc966eee2" data-name="Forearm"><path d="M262.2,318l72.4,196.9" transform="translate(-146.4 -51.7)" style="fill:#172f45"/><path d="M306.4,525.3Q271,429,235.7,332.8A98.4,98.4,0,0,1,292,312l70.8,192.6Z" transform="translate(-146.4 -51.7)" style="fill:#172f45"/></g><circle id="ab0760a1-5902-41cf-b6e9-ad116d8f0a4e" data-name="Arm Joint" cx="185.8" cy="452.3" r="41.7" style="fill:#adb5bd"/><g id="ac9743f2-efdd-4c62-90b0-42721d074136" data-name="Shoulder Joints"><path d="M484.9,691.5a51.9,51.9,0,0,0,36.7,63.6l26.9-100.3A51.8,51.8,0,0,0,484.9,691.5Z" transform="translate(-146.4 -51.7)" style="fill:#adb5bd"/><path d="M918.5,753.9,891.6,854.2a51.9,51.9,0,1,0,26.9-100.3Z" transform="translate(-146.4 -51.7)" style="fill:#adb5bd"/></g><rect id="a87c1dab-cab1-420f-9392-385fe97a12f1" data-name="Neck" x="678.8" y="639.5" width="127.8" height="62.07" transform="matrix(0.97, 0.26, -0.26, 0.97, 52.44, -221.03)" style="fill:#1a3a57"/><path id="ff0d321d-8688-4982-860e-37a86673575a" data-name="Body" d="M835.8,1083l-380-101.8q41.4-155,83-309.9c4.9-18.1,23.8-30.1,42.3-26.5a2507,2507,0,0,1,314.3,84.3c17.8,6,28.3,25.9,23.4,44Z" transform="translate(-146.4 -51.7)" style="fill:#dee2e6"/><path id="a9911400-b3d4-4ce1-88d6-c9c06354ac8a" data-name="Head" d="M956.9,702.2A2623.1,2623.1,0,0,1,541.2,590.8c-37.4-13.7-59.2-56.8-49-94.9l65.4-244.1c10.2-38.1,50.6-64.6,89.9-57.7a2617.4,2617.4,0,0,1,415.7,111.4c37.5,13.7,59.3,56.8,49.1,94.9l-65.4,244.1C1036.6,682.6,996.3,709,956.9,702.2Z" transform="translate(-146.4 -51.7)" style="fill:#dee2e6"/><path id="a472ebd3-e49d-4204-904f-fb69fbce995b" data-name="Screen" d="M904.6,640.2a2009.5,2009.5,0,0,1-287.1-76.9c-37.6-13.4-59.3-56.6-49.1-94.6L610,313.4c10.2-38,50.6-64.5,89.8-57.4A2020.9,2020.9,0,0,1,987,333c37.5,13.4,59.3,56.6,49.1,94.6q-20.8,77.7-41.6,155.2C984.3,620.9,943.9,647.4,904.6,640.2Z" transform="translate(-146.4 -51.7)" style="fill:#172f45"/><g id="e37f03aa-4368-4fcd-aeef-905fb0ad1a39" data-name="Face"><circle cx="914.2" cy="457.4" r="39.5" transform="matrix(0.26, -0.97, 0.97, 0.26, 89.33, 1170.37)" style="fill:#2489d3"/><circle cx="700.7" cy="400.2" r="39.5" transform="translate(-13.6 921.8) rotate(-75)" style="fill:#2489d3"/><path d="M771.4,563.3c36.1,9.6,75.2-19.2,87.3-64.5L728,463.8C715.9,509.1,735.3,553.6,771.4,563.3Z" transform="translate(-146.4 -51.7)" style="fill:#2489d3"/></g><g id="f578045d-6002-4459-92d0-343f9247e959" data-name="Ears"><path d="M1117.7,532.7c7.6-28.4,4.9-54.1-5.8-59.5L1083,581.3C1094.9,581.9,1110.1,561,1117.7,532.7Z" transform="translate(-146.4 -51.7)" style="fill:#dee2e6"/><path d="M1112,473l.6-2.2c2.6-9.8-.9-19.2-7.9-21.1l-5.3-1.4-39.7,148.3,5.3,1.4c6.9,1.9,14.7-4.5,17.3-14.3l.6-2.2v-.2l28.9-108.1Z" transform="translate(-146.4 -51.7)" style="fill:#172f45"/><path d="M486.8,363.6c-7.6,28.4-4.9,54.1,5.7,59.5l29-108.1C509.5,314.4,494.4,335.2,486.8,363.6Z" transform="translate(-146.4 -51.7)" style="fill:#dee2e6"/><path d="M522.1,312.6l-.5,2.2v.2l-29,108.1v.2l-.6,2.2c-2.6,9.8.9,19.2,7.8,21L505,448l39.8-148.3-5.3-1.4C532.5,296.4,524.8,302.8,522.1,312.6Z" transform="translate(-146.4 -51.7)" style="fill:#172f45"/></g><g id="a653b947-41fb-484d-b159-033f51511643" data-name="Antenna"><rect x="844.6" y="131.6" width="80.6" height="16" transform="translate(374.6 906.6) rotate(-75)" style="fill:#eeeff1"/><path d="M875.1,176.2c-43.6-11.7-86.8,8.2-96.5,44.4l157.9,42.3C946.2,226.7,918.7,187.9,875.1,176.2Z" transform="translate(-146.4 -51.7)" style="fill:#adb5bd"/><circle cx="755" cy="26.5" r="26.5" style="fill:#febd17"/></g></g><g id="a5243117-ebd6-43be-896b-a4fcc4d7693b" data-name="Laptop"><path id="b75c207e-7565-4d65-97b0-8d9528a0ea5f" data-name="Keyboard" d="M948.5,1118.5h-541a18.4,18.4,0,0,1-18.5-18.2H967A18.4,18.4,0,0,1,948.5,1118.5Z" transform="translate(-146.4 -51.7)" style="fill:#adb5bd"/><path id="efed9ccb-a590-40f8-91d9-1abf28804763" data-name="Screen" d="M961.9,1103.3H394.1a8.8,8.8,0,0,1-8.7-8.1L360,793.5a18.1,18.1,0,0,1,17.9-20H978.1a18.1,18.1,0,0,1,17.9,20l-25.4,301.7A8.8,8.8,0,0,1,961.9,1103.3Z" transform="translate(-146.4 -51.7)" style="fill:#ced4da"/><g id="e1eb992e-3e32-4f21-bf3b-2b8910f7f237" data-name="Company Logo"><g style="isolation:isolate"><g style="clip-path:url(#adc1b6fe-408c-4a50-b477-a952097c842f)"><path d="M678,901a44.7,44.7,0,0,0-16.1,3,43.3,43.3,0,0,0-13.3,8.3,40.5,40.5,0,0,0-9.2,12.1,39.6,39.6,0,0,0-3.9,14.9h10.2a8.2,8.2,0,0,1,1.2-2,6.1,6.1,0,0,1,1.7-1.5,8.4,8.4,0,0,1,2.1-1.1,10.1,10.1,0,0,1,2.5-.3h.8V918.1h53.6L698,930.9H668.2V937h29a6.9,6.9,0,0,1,1.3-1.1l1.4-.8,1.6-.5a5.5,5.5,0,0,1,1.8-.2,10.1,10.1,0,0,1,2.5.3,8.4,8.4,0,0,1,2.1,1.1,6.1,6.1,0,0,1,1.7,1.5,8.2,8.2,0,0,1,1.2,2h9.7a39.6,39.6,0,0,0-3.9-14.9,40.5,40.5,0,0,0-9.2-12.1,43.3,43.3,0,0,0-13.3-8.3,44.7,44.7,0,0,0-16.1-3" transform="translate(-146.4 -51.7)" style="fill:#adb5bd"/><path d="M720.3,945.2h-9.7a8,8,0,0,1-3,3.3,6.7,6.7,0,0,1-2.1.9,5.9,5.9,0,0,1-2.3.4l-1.8-.2-1.6-.5-1.4-.8-1.3-1.1-.7.9H668.2V955h38.8L698,967.6H654.3l-.2-17.9h-.8a5.9,5.9,0,0,1-2.3-.4,6.7,6.7,0,0,1-2.1-.9,8,8,0,0,1-3-3.3H635.7a37.7,37.7,0,0,0,4.4,14.5,39.1,39.1,0,0,0,9.3,11.7,42.6,42.6,0,0,0,13,7.7,44.9,44.9,0,0,0,31.2,0,42.6,42.6,0,0,0,13-7.7,39.1,39.1,0,0,0,9.3-11.7,37.7,37.7,0,0,0,4.4-14.5" transform="translate(-146.4 -51.7)" style="fill:#adb5bd"/><path d="M653.3,945.1l-1.2-.2-1-.7-.7-.9a3.7,3.7,0,0,1,0-2.4,3.1,3.1,0,0,1,.7-.9l1-.7,1.2-.2,1.2.2,1,.7a2,2,0,0,1,.7.9,2.6,2.6,0,0,1,0,2.4,2.4,2.4,0,0,1-.6.9l-1,.7-1.3.2m0-9.2a7.8,7.8,0,0,0-2.2.4,6.9,6.9,0,0,0-1.9,1,6.7,6.7,0,0,0-1.4,1.5,10.8,10.8,0,0,0-.8,1.9H635.4v2.8H647a6.6,6.6,0,0,0,.9,1.9,6.7,6.7,0,0,0,1.4,1.5l1.9,1a7.8,7.8,0,0,0,2.2.3,6.9,6.9,0,0,0,2.5-.4,7.2,7.2,0,0,0,2-1.4,5.2,5.2,0,0,0,1.4-1.9,6,6,0,0,0,.5-2.4,6.4,6.4,0,0,0-.5-2.4,14.3,14.3,0,0,0-1.4-2,7.4,7.4,0,0,0-2.1-1.3,7,7,0,0,0-2.5-.5" transform="translate(-146.4 -51.7)" style="fill:#adb5bd"/><path d="M703.5,945.1l-1.2-.2a2.6,2.6,0,0,1-1-.7,2.8,2.8,0,0,1-.7-.9,1.7,1.7,0,0,1-.2-1.2,2.5,2.5,0,0,1,.2-1.2,3.1,3.1,0,0,1,.7-.9l1-.7,1.2-.2,1.3.2,1,.7a2.8,2.8,0,0,1,.6.9,2.6,2.6,0,0,1,0,2.4l-.7.9-1,.7-1.2.2m.1-9.2a7.5,7.5,0,0,0-2.6.5,8.6,8.6,0,0,0-2,1.3,6.6,6.6,0,0,0-1.4,2,6.5,6.5,0,0,0-.6,2.4,6,6,0,0,0,.5,2.4,6.7,6.7,0,0,0,1.4,1.9,9,9,0,0,0,2,1.4,7.5,7.5,0,0,0,2.6.4,7.6,7.6,0,0,0,2.1-.3l1.9-1a5,5,0,0,0,1.4-1.5,6.6,6.6,0,0,0,.9-1.9h10.7v-2.8H709.8a4.6,4.6,0,0,0-.8-1.9,5,5,0,0,0-1.4-1.5,6.4,6.4,0,0,0-1.8-1,8.5,8.5,0,0,0-2.2-.4" transform="translate(-146.4 -51.7)" style="fill:#adb5bd"/><path d="M677.9,986.4h-.3a49.8,49.8,0,0,1-18.3-3.7,44.9,44.9,0,0,1-14.9-9.6,43.7,43.7,0,0,1-10-14.1,44.7,44.7,0,0,1-3.9-17.4,41.8,41.8,0,0,1,3.4-17.1,44.6,44.6,0,0,1,9.9-14.5,46.3,46.3,0,0,1,15.1-10,49.5,49.5,0,0,1,19-3.8h1.2a50.2,50.2,0,0,1,18.8,4.1,48.3,48.3,0,0,1,14.8,10.2,46.1,46.1,0,0,1,9.6,14.7,43.5,43.5,0,0,1-.8,34.2,46.7,46.7,0,0,1-10.2,14,48,48,0,0,1-14.9,9.5,50.8,50.8,0,0,1-18.5,3.5M678,872h-3.7l-1.8.2h-2.3l-.3.2c-.1,0-.1.1-.2.2s-.1.3-.1.5l-.6,3.1c-.2,1-.4,2-.7,3l-.6,3.1-.6,3.1a.4.4,0,0,1-.1.3c0,.1-.1.2-.1.3l-.3.2h-.4l-3.3.7-3.2.9-3.1,1.1-3.1,1.3h-1.3a.2.2,0,0,1-.2-.2l-.3-.2-2.3-2.1-2.4-2-2.3-2.1-2.4-2.1c0-.1-.1-.1-.2-.2H641l-3.1,1.9-3,2L632,888l-2.8,2.3-.2.3v.5c0,.1.1.3.1.4a24.4,24.4,0,0,1,1.4,2.8l1.4,2.8c.4.9.9,1.8,1.4,2.7l1.3,2.8c.1.2.2.3.2.5s.1.2,0,.4a.8.8,0,0,1-.1.4l-.3.3-2.2,2.5c-.7.9-1.4,1.7-2,2.6l-1.9,2.7-1.6,2.9-.3.3a.2.2,0,0,1-.2.2h-1l-3.1-.4-3.1-.3-3.1-.3-3.2-.3h-.8c0,.1-.1.1-.2.2s-.1.2-.1.3a17.5,17.5,0,0,0-1.2,3.2,30.1,30.1,0,0,0-1.1,3.2l-.9,3.2c-.3,1.1-.5,2.2-.8,3.3v.6a.6.6,0,0,0,.1.4l.3.3.5.3,2.7,1.4,2.8,1.4,2.7,1.4,2.7,1.5h.2l.2.2.2.3v.2c-.1,1-.1,2.1-.2,3.2v3.2c.1,1.1.1,2.2.2,3.3s.2,2.1.4,3.2v.4a.4.4,0,0,1-.1.3c0,.1-.1.2-.2.3l-.3.2-2.7,1.4-2.6,1.5-2.7,1.5-2.7,1.4-.3.2-.2.3v.7c.3,1.1.7,2.2,1,3.3s.7,2.1,1.1,3.2l1.3,3.1,1.5,3.1.2.3a.2.2,0,0,0,.2.2h.9l3-.4,3.1-.4,3.1-.3,3-.4h.7c.1.1.2.1.2.2l.2.2,1.7,2.6c.6.8,1.2,1.7,1.9,2.5a22,22,0,0,0,2,2.3,23.9,23.9,0,0,0,2.2,2.3c0,.1.1.2.2.3s.1.1.1.2v.3l-.2.4-1.2,2.6-1.2,2.6c-.5.9-.9,1.7-1.3,2.6l-1.2,2.6-.2.4v.3l.2.3.3.3,2.7,2.1,2.9,2,2.9,1.9,3,1.7h1.3l2.2-2,2.2-1.9,2.2-1.9,2.2-2h.2l.3-.2h.4a.1.1,0,0,1,.1.1h.4a.1.1,0,0,0,.1.1l2.9,1.2,3,1,3,.8,3.1.6.5.2a.5.5,0,0,1,.4.2.8.8,0,0,1,.2.4c.1.2.2.3.2.5l.6,2.7a25.6,25.6,0,0,0,.5,2.7l.6,2.6.6,2.7c0,.2.1.3.1.4s.2.3.3.3.2.2.3.2h14.6l.3-.2.3-.2c0-.1.1-.3.1-.4l.6-2.7.6-2.7a27.4,27.4,0,0,0,.5-2.8l.6-2.7c.1-.2.1-.3.2-.4a.5.5,0,0,1,.2-.4l.3-.2.6-.2,3.1-.6,3.1-.9,3.1-1,3-1.2a.1.1,0,0,1,.1-.1h.7c0,.1.1.1.2.1s.1.1.1.2l2.3,1.9,2.3,2,2.2,2,2.3,1.9c0,.1.1.1.2.2h1l3-1.8,2.9-1.8,2.9-2,2.7-2.2.3-.3c.1-.1.1-.1.1-.2V991c0-.1-.1-.2-.1-.3s-.9-1.8-1.3-2.6l-1.2-2.7-1.3-2.6a21,21,0,0,0-1.3-2.6c0-.2,0-.3-.1-.3v-.3c0-.1.1-.2.1-.3l.2-.2a27.3,27.3,0,0,0,2.3-2.5,26.2,26.2,0,0,0,2.2-2.5l2-2.7,1.8-2.8c0-.1.1-.2.2-.3h.2c0-.1.1-.1.2-.1h.5l3.1.3,3.1.3,3,.3,3.1.3h.9l.2-.3c.1,0,.1-.2.2-.3a28.8,28.8,0,0,0,1.3-3.1,16.6,16.6,0,0,0,1.2-3.1,30.1,30.1,0,0,0,1.1-3.2l.9-3.2a.8.8,0,0,0,.1-.4c0-.2,0-.3-.1-.4s-.1-.1-.2-.2a.5.5,0,0,0-.4-.2l-2.6-1.5-2.7-1.4-2.7-1.4-2.7-1.4-.3-.2-.2-.2a.4.4,0,0,1-.1-.3V948l.3-3.1c.1-1.1.2-2.1.2-3.1s0-2.1-.1-3.2-.1-2.1-.2-3.1V935a.4.4,0,0,1,.1-.3c.1-.1.1-.3.2-.3l.5-.3,2.7-1.5,2.7-1.5,2.7-1.4,2.8-1.5.3-.2.2-.3a.4.4,0,0,0,.1-.3V927c-.3-1-.5-2-.8-3s-.5-2-.8-3a24.7,24.7,0,0,0-1-2.9c-.4-1-.7-2-1.2-3l-.4-.9a1.6,1.6,0,0,0-.3-.6c-.2-.2-.3-.3-.5-.3h-2.1l-2.7.3-2.7.3-2.8.4-2.7.3h-.6l-.3-.2c-.1,0-.1-.1-.2-.2s-.2-.2-.2-.3-1.1-1.8-1.7-2.6a22,22,0,0,0-1.7-2.5c-.6-.9-1.3-1.7-1.9-2.5l-2.1-2.3-.3-.4a.4.4,0,0,1-.1-.3V903c0-.1.1-.2.2-.4s.9-1.8,1.3-2.8,1-1.8,1.4-2.7.9-1.9,1.4-2.8l1.3-2.7.2-.4v-.4c0-.1-.1-.2-.1-.3l-.3-.3-2.8-2.3-2.9-2.2-3-2-3.1-1.9h-1.3l-2.4,2.1-2.3,2.1-2.4,2.1-2.3,2.1c-.1.1-.2.1-.2.2h-1.3a.1.1,0,0,0-.1-.1l-3.1-1.3-3.1-1.1-3.2-.9-3.3-.7h-.4l-.3-.2-.2-.3c0-.1-.1-.3-.1-.4l-.6-3-.6-3.1-.6-3-.6-3.1c0-.1-.1-.3-.1-.4l-.3-.3c0-.1-.2-.1-.3-.2h-2.3l-1.8-.2H678" transform="translate(-146.4 -51.7)" style="fill:#adb5bd"/></g></g></g></g></svg>