<svg xmlns="http://www.w3.org/2000/svg" xmlns:xlink="http://www.w3.org/1999/xlink" viewBox="0 0 1116.5 1810.9"><defs><linearGradient id="a" x1="554.75" y1="861" x2="554.75" y2="789" gradientUnits="userSpaceOnUse"><stop offset="0.09" stop-color="#172f45"/><stop offset="0.19" stop-color="#375066"/><stop offset="0.38" stop-color="#6c859d"/><stop offset="0.55" stop-color="#93acc5"/><stop offset="0.68" stop-color="#aac4dd"/><stop offset="0.76" stop-color="#b3cde6"/><stop offset="1" stop-color="#d4e2f1"/></linearGradient><linearGradient id="b" x1="554.75" y1="861" x2="554.75" y2="817.72" gradientUnits="userSpaceOnUse"><stop offset="0.05" stop-color="#172f45"/><stop offset="0.16" stop-color="#375066"/><stop offset="0.36" stop-color="#6c859d"/><stop offset="0.54" stop-color="#93acc5"/><stop offset="0.67" stop-color="#aac4dd"/><stop offset="0.76" stop-color="#b3cde6"/><stop offset="1" stop-color="#d4e2f1"/></linearGradient><linearGradient id="c" x1="558.25" y1="638" x2="558.25" y2="154" gradientUnits="userSpaceOnUse"><stop offset="0.5" stop-color="#172f45"/><stop offset="0.54" stop-color="#375066"/><stop offset="0.61" stop-color="#6c859d"/><stop offset="0.68" stop-color="#93acc5"/><stop offset="0.73" stop-color="#aac4dd"/><stop offset="0.76" stop-color="#b3cde6"/><stop offset="1" stop-color="#d4e2f1"/></linearGradient><linearGradient id="d" x1="558.25" y1="638" x2="558.25" y2="154" gradientUnits="userSpaceOnUse"><stop offset="0.09" stop-color="#172f45"/><stop offset="0.2" stop-color="#375066"/><stop offset="0.39" stop-color="#6c859d"/><stop offset="0.55" stop-color="#93acc5"/><stop offset="0.68" stop-color="#aac4dd"/><stop offset="0.76" stop-color="#b3cde6"/><stop offset="1" stop-color="#d4e2f1"/></linearGradient><linearGradient id="e" x1="558.25" y1="85.17" x2="558.25" y2="29.56" xlink:href="#c"/><linearGradient id="f" x1="558.25" y1="72.09" x2="558.25" y2="42.65" gradientUnits="userSpaceOnUse"><stop offset="0.04" stop-color="#172f45"/><stop offset="0.15" stop-color="#375066"/><stop offset="0.36" stop-color="#6c859d"/><stop offset="0.53" stop-color="#93acc5"/><stop offset="0.67" stop-color="#aac4dd"/><stop offset="0.76" stop-color="#b3cde6"/><stop offset="1" stop-color="#d4e2f1"/></linearGradient></defs><title>robot_with_shadow</title><g style="opacity:0.4"><ellipse cx="558.3" cy="1739.9" rx="512.1" ry="57" style="fill:#3d8bff"/><ellipse cx="558.3" cy="1741" rx="506.9" ry="56.5" style="fill:#3c87f8"/><ellipse cx="558.3" cy="1742.2" rx="501.7" ry="55.9" style="fill:#3a84f1"/><ellipse cx="558.3" cy="1743.3" rx="496.5" ry="55.3" style="fill:#3980ea"/><ellipse cx="558.3" cy="1744.4" rx="491.3" ry="54.7" style="fill:#377de2"/><ellipse cx="558.3" cy="1745.5" rx="486.1" ry="54.2" style="fill:#3679db"/><ellipse cx="558.3" cy="1746.6" rx="481" ry="53.6" style="fill:#3476d4"/><ellipse cx="558.3" cy="1747.7" rx="475.8" ry="53" style="fill:#3372cd"/><ellipse cx="558.3" cy="1748.8" rx="470.6" ry="52.4" style="fill:#316fc6"/><ellipse cx="558.3" cy="1750" rx="465.4" ry="51.8" style="fill:#306bbf"/><ellipse cx="558.3" cy="1751.1" rx="460.2" ry="51.3" style="fill:#2e68b7"/><ellipse cx="558.3" cy="1752.2" rx="455" ry="50.7" style="fill:#2d64b0"/><ellipse cx="558.3" cy="1753.3" rx="449.8" ry="50.1" style="fill:#2b61a9"/><ellipse cx="558.3" cy="1754.4" rx="444.6" ry="49.5" style="fill:#2a5da2"/><ellipse cx="558.3" cy="1755.5" rx="439.4" ry="48.9" style="fill:#29599b"/><ellipse cx="558.3" cy="1756.7" rx="434.2" ry="48.4" style="fill:#275694"/><ellipse cx="558.3" cy="1757.8" rx="429" ry="47.8" style="fill:#26528d"/><ellipse cx="558.3" cy="1758.9" rx="423.8" ry="47.2" style="fill:#244f85"/><ellipse cx="558.3" cy="1760" rx="418.6" ry="46.6" style="fill:#234b7e"/><ellipse cx="558.3" cy="1761.1" rx="413.4" ry="46.1" style="fill:#214877"/><ellipse cx="558.3" cy="1762.2" rx="408.2" ry="45.5" style="fill:#204470"/><ellipse cx="558.3" cy="1763.4" rx="403.1" ry="44.9" style="fill:#1e4169"/><ellipse cx="558.3" cy="1764.5" rx="397.9" ry="44.3" style="fill:#1d3d62"/><ellipse cx="558.3" cy="1765.6" rx="392.7" ry="43.7" style="fill:#1b3a5a"/><ellipse cx="558.3" cy="1766.7" rx="387.5" ry="43.2" style="fill:#1a3653"/><ellipse cx="558.3" cy="1767.8" rx="382.3" ry="42.6" style="fill:#18334c"/><ellipse cx="558.3" cy="1768.9" rx="377.1" ry="42" style="fill:#172f45"/><ellipse cx="558.3" cy="1769.1" rx="370.6" ry="41.3" style="fill:#162d45"/><ellipse cx="558.3" cy="1769.3" rx="364.2" ry="40.6" style="fill:#152c45"/><ellipse cx="558.3" cy="1769.5" rx="357.8" ry="39.9" style="fill:#152a45"/><ellipse cx="558.3" cy="1769.7" rx="351.3" ry="39.1" style="fill:#142945"/><ellipse cx="558.3" cy="1769.8" rx="344.9" ry="38.4" style="fill:#132744"/><ellipse cx="558.3" cy="1770" rx="338.4" ry="37.7" style="fill:#122644"/><ellipse cx="558.3" cy="1770.2" rx="332" ry="37" style="fill:#112444"/><ellipse cx="558.3" cy="1770.4" rx="325.5" ry="36.3" style="fill:#112344"/><ellipse cx="558.3" cy="1770.6" rx="319.1" ry="35.5" style="fill:#102144"/><ellipse cx="558.3" cy="1770.7" rx="312.7" ry="34.8" style="fill:#0f2044"/><ellipse cx="558.3" cy="1770.9" rx="306.2" ry="34.1" style="fill:#0e1e44"/><ellipse cx="558.3" cy="1771.1" rx="299.8" ry="33.4" style="fill:#0d1d44"/><ellipse cx="558.3" cy="1771.3" rx="293.3" ry="32.7" style="fill:#0d1c44"/><ellipse cx="558.3" cy="1771.5" rx="286.9" ry="32" style="fill:#0c1a43"/><ellipse cx="558.3" cy="1771.6" rx="280.5" ry="31.2" style="fill:#0b1943"/><ellipse cx="558.3" cy="1771.8" rx="274" ry="30.5" style="fill:#0a1743"/><ellipse cx="558.3" cy="1772" rx="267.6" ry="29.8" style="fill:#091643"/><ellipse cx="558.3" cy="1772.2" rx="261.1" ry="29.1" style="fill:#081443"/><ellipse cx="558.3" cy="1772.4" rx="254.7" ry="28.4" style="fill:#081343"/><ellipse cx="558.3" cy="1772.5" rx="248.2" ry="27.7" style="fill:#071143"/><ellipse cx="558.3" cy="1772.7" rx="241.8" ry="26.9" style="fill:#061043"/><ellipse cx="558.3" cy="1772.9" rx="235.4" ry="26.2" style="fill:#050e42"/><ellipse cx="558.3" cy="1773.1" rx="228.9" ry="25.5" style="fill:#040d42"/><ellipse cx="558.3" cy="1773.3" rx="222.5" ry="24.8" style="fill:#040b42"/><ellipse cx="558.3" cy="1773.4" rx="216" ry="24.1" style="fill:#030a42"/><ellipse cx="558.3" cy="1773.6" rx="209.6" ry="23.3" style="fill:#020842"/></g><path d="M890.3,992.8a23.3,23.3,0,0,1,32,7.3l133.2,213.3a23.2,23.2,0,1,1-39.3,24.5L883,1024.7A23.1,23.1,0,0,1,890.3,992.8Z" style="fill:#172f45"/><path d="M1035.8,1239a13.6,13.6,0,0,0,7.1-2,13.7,13.7,0,0,0,6-8.3,13.3,13.3,0,0,0-1.7-10.1L914,1005.3a13.5,13.5,0,0,0-11.4-6.2,13.9,13.9,0,0,0-7.1,2,13.4,13.4,0,0,0-4.2,18.4l133.2,213.2A13.1,13.1,0,0,0,1035.8,1239Z" style="fill:#172f45;opacity:0.1"/><path d="M1032.4,1232.6a12.3,12.3,0,0,0,6.5-1.9,12.4,12.4,0,0,0,4-17l-126-201.5a12.3,12.3,0,0,0-10.5-5.8,11.5,11.5,0,0,0-6.5,1.9,12.4,12.4,0,0,0-4,17l126,201.5A12.4,12.4,0,0,0,1032.4,1232.6Z" style="fill:#253d54;opacity:0.18181799999999998"/><path d="M1028.9,1226.1a11.4,11.4,0,0,0,9.7-17.4L919.9,1019.1a11.3,11.3,0,0,0-9.7-5.4,11.6,11.6,0,0,0-6,1.7,11.5,11.5,0,0,0-3.6,15.7l118.7,189.7A11.4,11.4,0,0,0,1028.9,1226.1Z" style="fill:#334c62;opacity:0.263636"/><path d="M1025.5,1219.7a11,11,0,0,0,5.5-1.6,10.5,10.5,0,0,0,4.6-6.5,10.2,10.2,0,0,0-1.3-7.8L922.9,1025.9a10.4,10.4,0,0,0-8.9-4.8,10.2,10.2,0,0,0-5.4,1.5,10.3,10.3,0,0,0-3.4,14.3l111.5,177.9A10.2,10.2,0,0,0,1025.5,1219.7Z" style="fill:#425a71;opacity:0.345455"/><path d="M1022,1213.2a9.7,9.7,0,0,0,5-1.4,9.5,9.5,0,0,0,4.2-5.8,9.7,9.7,0,0,0-1.2-7.1L925.8,1032.8a9.2,9.2,0,0,0-7.9-4.4,9.7,9.7,0,0,0-5,1.4,9.5,9.5,0,0,0-4.2,5.9,9.1,9.1,0,0,0,1.2,7L1014,1208.8A9.5,9.5,0,0,0,1022,1213.2Z" style="fill:#506880;opacity:0.42727299999999996"/><path d="M1018.6,1206.8a8.7,8.7,0,0,0,4.4-1.3,8.4,8.4,0,0,0,3.8-5.2,8.5,8.5,0,0,0-1.1-6.4l-96.9-154.2a8.3,8.3,0,0,0-7.1-4,9,9,0,0,0-4.5,1.3,8.2,8.2,0,0,0-3.7,5.2,8.6,8.6,0,0,0,1,6.3l96.9,154.3A8.4,8.4,0,0,0,1018.6,1206.8Z" style="fill:#5e778e;opacity:0.509091"/><path d="M1015.1,1200.3a7.4,7.4,0,0,0,3.9-1.1,7.3,7.3,0,0,0,3.3-4.6,7,7,0,0,0-.9-5.6l-89.6-142.5a7.4,7.4,0,0,0-6.3-3.5,6.7,6.7,0,0,0-3.9,1.2,7.1,7.1,0,0,0-3.3,4.6,7,7,0,0,0,.9,5.6l89.6,142.4A7.4,7.4,0,0,0,1015.1,1200.3Z" style="fill:#6c859d;opacity:0.590909"/><path d="M1011.7,1193.9a7,7,0,0,0,3.4-1,6.5,6.5,0,0,0,2.8-4,6.2,6.2,0,0,0-.8-4.8l-82.3-130.7a6.5,6.5,0,0,0-5.5-3,5.9,5.9,0,0,0-3.4,1,6.3,6.3,0,0,0-2.9,3.9,6.5,6.5,0,0,0,.9,4.9l82.3,130.7A6.4,6.4,0,0,0,1011.7,1193.9Z" style="fill:#7a94ab;opacity:0.672727"/><path d="M1008.2,1187.4a6,6,0,0,0,2.9-.8,5.5,5.5,0,0,0,2.4-3.4,5.1,5.1,0,0,0-.7-4l-75.1-118.9a5.4,5.4,0,0,0-4.6-2.6,6,6,0,0,0-2.9.8,6,6,0,0,0-2.4,3.4,5.4,5.4,0,0,0,.7,4.1l75.1,118.9A5.3,5.3,0,0,0,1008.2,1187.4Z" style="fill:#88a2ba;opacity:0.754545"/><path d="M1004.8,1181a4.8,4.8,0,0,0,2.3-.7,4.5,4.5,0,0,0,2-2.8,3.9,3.9,0,0,0-.6-3.3l-67.8-107.1a4.4,4.4,0,0,0-3.8-2.1,4.8,4.8,0,0,0-2.3.7,4.5,4.5,0,0,0-2,2.8,3.9,3.9,0,0,0,.6,3.3l67.8,107.1A4.4,4.4,0,0,0,1004.8,1181Z" style="fill:#97b0c9;opacity:0.836364"/><path d="M1001.3,1174.5a3.7,3.7,0,0,0,1.8-.5,3.4,3.4,0,0,0,1.6-2.1,3.4,3.4,0,0,0-.5-2.6L943.7,1074a3.5,3.5,0,0,0-3-1.6,4.1,4.1,0,0,0-1.8.5,3.2,3.2,0,0,0-1.5,2.1,3.4,3.4,0,0,0,.4,2.6l60.6,95.3A3.4,3.4,0,0,0,1001.3,1174.5Z" style="fill:#a5bfd7;opacity:0.9181819999999999"/><path d="M997.9,1168.1a2.5,2.5,0,0,0,1.2-.4,2.3,2.3,0,0,0,1.1-1.5,1.9,1.9,0,0,0-.3-1.8l-53.2-83.5a2.5,2.5,0,0,0-2.2-1.2,1.9,1.9,0,0,0-1.2.4,2.1,2.1,0,0,0-1.1,1.5,1.9,1.9,0,0,0,.3,1.8l53.3,83.5A2.4,2.4,0,0,0,997.9,1168.1Z" style="fill:#b3cde6"/><path d="M855.9,887.8s-28.3,87.1,0,178.7c0,0,104.3-8.6,104.3-89.4S855.9,887.8,855.9,887.8Z" style="fill:#fff"/><path d="M860.6,1059.3c8.7-1.3,27-4.8,45-13.3,31.9-15,48-38.2,48-68.9,0-50.1-44.7-70.3-73.8-78.1a18.9,18.9,0,0,0-23.4,14.7C850.3,944.4,843.9,1000.8,860.6,1059.3Z" style="fill:#b9d1e8"/><path d="M856.5,912.8c-5.7,29.3-11.7,82.7,4,138.3,8.1,0,26.1-2.5,43.6-10.8,30.7-14.7,46.2-37.1,46.1-66.6-.2-48.1-43.1-67.4-71.2-74.9a14.4,14.4,0,0,0-4-.6A17.9,17.9,0,0,0,856.5,912.8Z" style="fill:#bfd5ea"/><path d="M856.6,911.9c-5.3,27.8-10.8,78.4,3.8,130.9,7.6,1.4,25.3-.1,42.3-8.3,29.4-14.2,44.3-35.8,44-64.2-.3-46.1-41.5-64.6-68.6-71.8a23.8,23.8,0,0,0-3.7-.6A17.2,17.2,0,0,0,856.6,911.9Z" style="fill:#c6d9ec"/><path d="M856.7,911c-4.9,26.4-9.9,74,3.6,123.6,7,2.8,24.4,2.2,40.9-5.8,28.3-13.9,42.4-34.7,42.1-61.9-.6-44.1-39.9-61.8-66-68.6a22.5,22.5,0,0,0-3.6-.6A16.1,16.1,0,0,0,856.7,911Z" style="fill:#ccdeee"/><path d="M856.8,910.1c-4.5,25-9.1,69.6,3.4,116.3,6.5,4.1,23.6,4.5,39.5-3.4,27.1-13.4,40.6-33.4,40.1-59.6-.7-42.1-38.2-58.8-63.4-65.3a20.2,20.2,0,0,0-3.4-.6A15.2,15.2,0,0,0,856.8,910.1Z" style="fill:#d2e2f0"/><path d="M856.9,909.2c-4.1,23.6-8.2,65.2,3.2,108.9,5.9,5.5,22.8,6.9,38.2-.9,25.8-12.9,38.6-32.2,38-57.2-.9-40.1-36.5-56-60.7-62.2a18.8,18.8,0,0,0-3.3-.5A14.3,14.3,0,0,0,856.9,909.2Z" style="fill:#d9e6f2"/><path d="M857,908.3c-3.8,22.2-7.3,60.8,3,101.6,5.4,6.8,21.9,9.2,36.8,1.6,24.6-12.6,36.8-31,36.1-54.9-1.1-38.1-35-53.2-58.2-59a15.9,15.9,0,0,0-3-.6A13.6,13.6,0,0,0,857,908.3Z" style="fill:#dfeaf5"/><path d="M857.1,907.4c-3.4,20.8-6.5,56.4,2.8,94.3,4.8,8.1,21.1,11.5,35.4,4,23.5-12.1,34.9-29.8,34.1-52.5-1.2-36.1-33.3-50.4-55.5-55.8a15,15,0,0,0-2.9-.6A12.6,12.6,0,0,0,857.1,907.4Z" style="fill:#e6eef7"/><path d="M857.2,906.5c-3,19.4-5.6,52,2.6,86.9,4.2,9.5,20.2,13.9,34.1,6.6,22.2-11.7,33-28.6,32.1-50.2-1.5-34.2-31.7-47.5-53-52.7l-2.7-.5A11.7,11.7,0,0,0,857.2,906.5Z" style="fill:#ecf2f9"/><path d="M857.3,905.6c-2.6,17.9-4.7,47.7,2.4,79.6,3.7,10.8,19.4,16.2,32.7,9,21-11.3,31.2-27.4,30.1-47.9-1.6-32.1-30.1-44.6-50.3-49.4l-2.5-.5A10.7,10.7,0,0,0,857.3,905.6Z" style="fill:#f2f7fb"/><path d="M857.4,904.7c-2.2,16.5-3.9,43.3,2.2,72.3,3.1,12.1,18.5,18.5,31.4,11.4,19.8-10.8,29.2-26.1,28-45.5-1.8-30.1-28.4-41.8-47.6-46.3l-2.4-.4A9.9,9.9,0,0,0,857.4,904.7Z" style="fill:#f9fbfd"/><path d="M859.5,968.7c2.6,13.6,17.7,20.8,29.7,14.1h.3c18.6-10.5,27.4-25,26.1-43.2-2.1-29.3-28.9-39.8-47.3-43.6a9.1,9.1,0,0,0-10.8,7.9A215.2,215.2,0,0,0,859.5,968.7Z" style="fill:#fff"/><path d="M980.9,1618.2h80.4a55.2,55.2,0,0,0,55.2-55.3l-13.1-313.6a55.3,55.3,0,0,0-55.2-55.3H990.8a55.3,55.3,0,0,0-55.3,55.3l-9.8,313.6A55.2,55.2,0,0,0,980.9,1618.2Z" style="fill:#fff"/><path d="M1061.3,1613c26.8,0,48.7-22.5,48.7-49.4l-13.1-313.5c0-27.1-21.9-49.1-48.7-49.1H990.8a48.5,48.5,0,0,0-48.7,48.5l-9.9,314.4c0,26.7,21.9,49.1,48.7,49.1Z" style="fill:#b3cde6"/><path d="M941.9,1254.3c-.2,2.2-8.7,275-8.7,276.9,0,.1-.9,31.9-.8,32.1.3,26.2,21.9,48.3,48.2,48.3h40.2c.7.1,40-.3,40-.8,25.8,0,47-22.8,47-48.6l-6.4-164.1c.1-.7-6-141.7-6.5-142.3a49.8,49.8,0,0,0-48.8-48.7c-.3-.3-55.8-.4-56.2-.4a47.7,47.7,0,0,0-32.1,12.3A46.8,46.8,0,0,0,941.9,1254.3Z" style="fill:#b6cfe7"/><path d="M941.7,1259.3c-.4,4.4-8.6,268.4-8.5,272.2,0,.3-.8,31.1-.6,31.5.6,25.6,22,47.4,47.7,47.5l40.3.2c1.4.1,39.7-.5,39.8-1.6,24.8,0,45.2-23.2,45.2-48l-5.8-160.3c.2-1.5-5.8-137.7-6.8-138.9-1.2-26.3-22.9-47.1-48.9-48.2-.6-.5-54.3-.7-55.1-.8a47.2,47.2,0,0,0-31.5,12A45.7,45.7,0,0,0,941.7,1259.3Z" style="fill:#b9d1e8"/><path d="M941.5,1264.4c-.5,6.4-8.5,261.7-8.4,267.5,0,.4-.7,30.1-.3,30.7.9,25.1,22.1,46.6,47.2,46.7l40.4.4c2.1.2,39.4-.8,39.5-2.4,23.8,0,43.6-23.7,43.6-47.4l-5.2-156.6c.2-2.2-5.8-133.6-7.3-135.3-1.8-26-23.3-46-49-47.7-.8-.7-52.7-1.2-53.9-1.2a47,47,0,0,0-30.9,11.6A44.5,44.5,0,0,0,941.5,1264.4Z" style="fill:#bcd3e9"/><path d="M941.3,1269.4c-.7,8.6-8.4,255.1-8.2,262.8,0,.6-.6,29.2-.1,30.1,1.2,24.6,22.1,45.7,46.7,45.9l40.6.5c2.6.2,39-1.1,39.2-3.2,22.7,0,41.8-24.1,41.8-46.8l-4.6-152.8c.4-3.1-5.6-129.6-7.7-131.9-2.3-25.6-23.8-44.9-49-47.1-1.2-1-51.2-1.6-52.7-1.6a46.2,46.2,0,0,0-30.4,11.3A43.5,43.5,0,0,0,941.3,1269.4Z" style="fill:#bfd5ea"/><path d="M941.1,1274.4c-.9,10.8-8.3,248.5-8,258.1-.1.8-.5,28.4.1,29.4,1.5,24.1,22.2,44.9,46.2,45.1l40.7.7c3.3.2,38.7-1.4,38.9-4,21.7,0,40.1-24.5,40.1-46.2l-4-149.1c.5-3.8-5.5-125.5-8-128.3-3-25.2-24.3-43.9-49.1-46.6-1.5-1.3-49.7-2-51.6-2a45.7,45.7,0,0,0-29.8,10.9A42.2,42.2,0,0,0,941.1,1274.4Z" style="fill:#c2d7eb"/><path d="M940.9,1279.5c-1,12.9-8.2,241.8-7.9,253.4,0,.9-.4,27.4.4,28.7,1.8,23.5,22.2,44.1,45.7,44.3l40.8.8c4,.3,38.4-1.7,38.7-4.8,20.6,0,38.4-25,38.4-45.6l-3.5-145.3c.6-4.6-5.4-121.4-8.4-124.9-3.5-24.8-24.8-42.8-49.2-46-1.8-1.6-48.1-2.4-50.4-2.5a45.4,45.4,0,0,0-29.2,10.7C947,1256,941,1267,940.9,1279.5Z" style="fill:#c5d9ec"/><path d="M940.7,1284.5c-1.2,15.1-8.1,235.2-7.7,248.7-.1,1.1-.3,26.5.6,28.1,2.1,23,22.3,43.2,45.2,43.4l40.9,1c4.7.3,38.2-2,38.4-5.6,19.7,0,36.7-25.4,36.7-45l-2.8-141.6c.6-5.3-5.3-117.3-8.9-121.3-4.1-24.5-25.2-41.7-49.2-45.6-2.1-1.7-46.6-2.7-49.2-2.8a45,45,0,0,0-28.7,10.3C946.8,1261.6,940.8,1272.4,940.7,1284.5Z" style="fill:#c7daed"/><path d="M940.5,1289.5c-1.4,17.2-8,228.6-7.6,244-.1,1.3-.2,25.7.9,27.4,2.4,22.5,22.3,42.4,44.7,42.7l41,1c5.4.5,37.9-2.2,38.2-6.3,18.6,0,35-25.8,35-44.4l-2.3-137.8c.7-6.1-5.2-113.3-9.2-117.9-4.8-24.1-25.8-40.6-49.4-45-2.3-2-45-3.2-48-3.2a44.9,44.9,0,0,0-28.1,9.9C946.6,1267.3,940.7,1277.7,940.5,1289.5Z" style="fill:#cadcee"/><path d="M940.3,1294.5c-1.5,19.4-7.9,222.1-7.4,239.3-.1,1.5-.1,24.8,1.1,26.8,2.7,21.9,22.4,41.5,44.2,41.9l41.1,1.1c6.1.5,37.6-2.5,37.9-7,17.6,0,33.3-26.4,33.3-43.9l-1.7-134.1c.9-6.8-5-109.2-9.6-114.4-5.3-23.6-26.2-39.5-49.4-44.4-2.7-2.3-43.5-3.6-46.9-3.6a43.2,43.2,0,0,0-27.5,9.6C946.4,1272.9,940.5,1283.1,940.3,1294.5Z" style="fill:#cddeef"/><path d="M940.1,1299.6c-1.7,21.5-7.8,215.4-7.2,234.6-.2,1.5,0,23.8,1.3,26,3,21.5,22.4,40.8,43.7,41.1l41.2,1.3c6.8.5,37.3-2.8,37.7-7.8,16.5,0,31.5-26.8,31.5-43.3l-1-130.3c.9-7.6-5-105.2-10.1-110.9-5.9-23.3-26.7-38.5-49.5-43.9-2.9-2.6-41.9-4-45.7-4.1a44,44,0,0,0-26.9,9.3C946.2,1278.5,940.3,1288.4,940.1,1299.6Z" style="fill:#d0e0f0"/><path d="M939.9,1304.6c-1.8,23.7-7.7,208.8-7.1,229.9-.1,1.7.1,23,1.6,25.4,3.3,20.9,22.5,39.9,43.2,40.3l41.3,1.4c7.4.6,37-3,37.5-8.6,15.4,0,29.8-27.3,29.8-42.7l-.5-126.6c1-8.3-4.8-101.1-10.5-107.4-6.4-22.9-27.1-37.3-49.5-43.3-3.3-2.8-40.4-4.4-44.5-4.5a43.2,43.2,0,0,0-26.4,9C946,1284.2,940.1,1293.8,939.9,1304.6Z" style="fill:#d3e2f1"/><path d="M939.7,1309.6c-2,25.9-7.6,202.2-6.9,225.2-.2,1.9.2,22.1,1.8,24.7,3.6,20.4,22.5,39.1,42.6,39.5l41.6,1.6c8,.6,36.6-3.3,37.1-9.4,14.5,0,28.1-27.7,28.1-42.2V1426.3c1.1-9.1-4.7-97-10.8-103.9-7.1-22.5-27.7-36.3-49.7-42.9-3.5-3-38.8-4.7-43.3-4.8a42.2,42.2,0,0,0-25.8,8.6C945.8,1289.8,940,1299.1,939.7,1309.6Z" style="fill:#d6e4f2"/><path d="M939.5,1314.6c-2.2,28.1-7.5,195.6-6.8,220.6-.1,2,.4,21.1,2,24,4,19.9,22.7,38.2,42.2,38.7l41.7,1.7c8.7.7,36.3-3.6,36.9-10.2,13.4,0,26.3-28.1,26.3-41.6l.8-119c1.1-9.9-4.7-92.9-11.3-100.4-7.6-22.1-28.2-35.2-49.7-42.3-3.8-3.3-37.3-5.1-42.2-5.2a42.2,42.2,0,0,0-25.2,8.2C945.6,1295.5,939.8,1304.4,939.5,1314.6Z" style="fill:#d9e6f3"/><path d="M939.4,1319.7c-2.4,30.1-7.5,188.9-6.7,215.8-.2,2.2.4,20.3,2.2,23.3,4.3,19.4,22.7,37.4,41.7,38l41.8,1.8c9.4.7,36.1-3.9,36.6-11,12.4,0,24.7-28.6,24.7-41l1.3-115.2c1.3-10.7-4.5-88.9-11.7-96.9-8.2-21.8-28.6-34.2-49.8-41.8-4.1-3.6-35.7-5.6-40.9-5.7a42.1,42.1,0,0,0-24.7,8C945.4,1301.1,939.6,1309.8,939.4,1319.7Z" style="fill:#dce8f3"/><path d="M939.2,1324.7c-2.6,32.3-7.4,182.3-6.5,211.1-.2,2.4.5,19.4,2.4,22.7,4.6,18.8,22.8,36.6,41.2,37.1l41.9,2c10.1.7,35.8-4.2,36.4-11.8,11.3,0,22.9-29,22.9-40.4l1.9-111.5c1.4-11.4-4.4-84.8-12-93.4-8.8-21.3-29.2-33.1-49.9-41.2-4.4-3.8-34.2-6-39.8-6.1a41.8,41.8,0,0,0-24.1,7.6C945.2,1306.8,939.4,1315.1,939.2,1324.7Z" style="fill:#dfeaf4"/><path d="M939,1329.7c-2.8,34.5-7.3,175.7-6.4,206.5-.2,2.5.6,18.4,2.7,21.9,4.9,18.4,22.8,35.8,40.7,36.4l42,2c10.8.9,35.5-4.4,36.1-12.5,10.3,0,21.2-29.4,21.2-39.8l2.5-107.7c1.5-12.2-4.2-80.8-12.4-89.9-9.4-21-29.6-32-50-40.7-4.6-4.1-32.6-6.4-38.6-6.5a40.8,40.8,0,0,0-23.5,7.3C945,1312.4,939.3,1320.5,939,1329.7Z" style="fill:#e2ecf5"/><path d="M938.8,1334.7c-2.9,36.7-7.2,169.1-6.2,201.8-.2,2.7.7,17.6,2.9,21.3,5.2,17.8,22.9,34.9,40.2,35.5l42.1,2.2c11.5.9,35.2-4.7,35.9-13.3,9.3,0,19.5-29.9,19.5-39.2l3.1-104c1.5-12.9-4.2-76.6-12.9-86.4-9.9-20.6-30.1-30.9-50-40.2-5-4.3-31.1-6.7-37.4-6.8a40.4,40.4,0,0,0-23,6.9C944.8,1318,939.1,1325.8,938.8,1334.7Z" style="fill:#e5eef6"/><path d="M938.6,1339.8c-3.1,38.8-7.1,162.5-6,197-.3,2.9.8,16.7,3.1,20.6,5.5,17.3,23,34.1,39.7,34.8l42.2,2.3c12.1,1,34.9-5,35.6-14.1,8.3,0,17.8-30.3,17.8-38.6l3.7-100.2c1.7-13.7-4-72.6-13.2-82.9-10.6-20.3-30.6-29.9-50.1-39.7-5.3-4.6-29.6-7.1-36.3-7.3a40.1,40.1,0,0,0-22.4,6.7C944.6,1323.7,938.9,1331.1,938.6,1339.8Z" style="fill:#e8f0f7"/><path d="M938.4,1344.8c-3.3,40.9-7,155.9-5.9,192.4-.2,2.9.9,15.7,3.4,19.9,5.8,16.8,23,33.2,39.2,33.9l42.3,2.5c12.8,1,34.6-5.3,35.4-14.9,7.2,0,16.1-30.7,16.1-38l4.2-96.4c1.8-14.5-3.9-68.6-13.6-79.5-11.1-19.8-31.1-28.8-50.2-39.1-5.6-4.8-28-7.6-35.1-7.7a39.9,39.9,0,0,0-21.8,6.3C944.4,1329.3,938.7,1336.5,938.4,1344.8Z" style="fill:#ebf2f8"/><path d="M938.2,1349.8c-3.4,43.1-6.9,149.3-5.7,187.7-.3,3.1,1,14.9,3.6,19.2,6,16.3,23.1,32.5,38.7,33.2l42.5,2.6c13.4,1.1,34.2-5.5,35-15.7,6.2,0,14.4-31.2,14.4-37.4l4.9-92.7c1.8-15.2-3.9-64.5-14.1-75.9-11.7-19.5-31.5-27.7-50.2-38.6-5.9-5.1-26.5-8-34-8.1a39.7,39.7,0,0,0-21.2,5.9C944.2,1334.9,938.6,1341.8,938.2,1349.8Z" style="fill:#edf3f9"/><path d="M938,1354.8c-3.6,45.3-6.8,142.7-5.6,183-.2,3.3,1.2,14,3.9,18.6,6.3,15.7,23.1,31.6,38.2,32.4l42.6,2.7c14.1,1.1,33.9-5.8,34.8-16.5,5.1,0,12.6-31.6,12.6-36.8l5.5-88.9c1.9-16-3.7-60.5-14.4-72.5-12.4-19.1-32.1-26.6-50.4-38-6.1-5.4-24.9-8.4-32.7-8.5a38.8,38.8,0,0,0-20.7,5.6C944,1340.6,938.4,1347.2,938,1354.8Z" style="fill:#f0f5fa"/><path d="M937.8,1359.9c-3.7,47.4-6.7,136-5.4,178.3-.3,3.4,1.2,13,4.1,17.8,6.6,15.3,23.2,30.8,37.7,31.6l42.7,2.9c14.8,1.1,33.7-6.1,34.5-17.3,4.2,0,11-32.1,11-36.2l6-85.2c2-16.8-3.6-56.3-14.8-69-12.9-18.6-32.5-25.5-50.4-37.5-6.5-5.6-23.4-8.7-31.6-8.9a40.8,40.8,0,0,0-20.1,5.3C943.8,1346.2,938.2,1352.5,937.8,1359.9Z" style="fill:#f3f7fb"/><path d="M937.6,1364.9c-3.9,49.6-6.6,129.4-5.2,173.6-.3,3.6,1.3,12.2,4.3,17.2,6.9,14.7,23.2,29.9,37.1,30.8l42.9,3c15.5,1.2,33.4-6.4,34.3-18.1,3.1,0,9.2-32.5,9.2-35.6l6.7-81.4c2.1-17.6-3.5-52.3-15.3-65.5-13.5-18.3-33-24.5-50.5-37-6.7-5.8-21.8-9.1-30.4-9.3a38,38,0,0,0-19.4,5C943.6,1351.8,938,1357.8,937.6,1364.9Z" style="fill:#f6f9fc"/><path d="M937.4,1369.9c-4.1,51.8-6.5,122.8-5.1,168.9-.3,3.8,1.5,11.3,4.6,16.5,7.2,14.2,23.3,29.1,36.6,30l43,3.2c16.2,1.2,33.1-6.7,34-18.9,2.1,0,7.5-32.9,7.5-35l7.3-77.7c2.2-18.3-3.4-48.2-15.6-62-14.1-17.9-33.5-23.3-50.6-36.4-7.1-6.1-20.3-9.5-29.2-9.7a37.8,37.8,0,0,0-18.9,4.6C943.4,1357.5,937.9,1363.2,937.4,1369.9Z" style="fill:#f9fbfd"/><path d="M937.2,1375c-4.2,53.8-6.4,116.1-4.9,164.2-.3,3.9,1.5,10.4,4.8,15.8,7.5,13.6,23.3,28.3,36.1,29.2l43.1,3.2c16.8,1.4,32.8-6.9,33.8-19.6,1,0,5.8-33.4,5.8-34.4l7.8-73.9c2.3-19.1-3.2-44.2-16-58.5-14.7-17.6-34-22.3-50.7-35.9-7.3-6.4-18.7-10-28-10.1a39,39,0,0,0-18.3,4.2C943.1,1363.1,937.7,1368.5,937.2,1375Z" style="fill:#fcfdfe"/><path d="M995,1371.7c-12.4-10.8-29.9-13.9-44.6-6.6-7.5,3.6-12.9,8.8-13.4,14.9-4.4,56-6.4,109.5-4.8,159.5-1,13.6,23.2,42.2,40.7,43.5l43.2,3.4c17.5,1.4,32.5-7.2,33.5-20.4l12.5-104c2.4-19.8-3.1-40.1-16.4-55C1030.5,1389.9,1011.3,1385.8,995,1371.7Z" style="fill:#fff"/><path d="M233.6,1024.7,100.3,1237.9A23.2,23.2,0,0,1,61,1213.4l133.2-213.3a23.2,23.2,0,0,1,39.4,24.6Z" style="fill:#172f45"/><path d="M80.7,1239a13.6,13.6,0,0,1-7.1-2,13.2,13.2,0,0,1-5.9-8.3,13.7,13.7,0,0,1,1.6-10.1l133.3-213.3a13.2,13.2,0,0,1,11.3-6.2,13.9,13.9,0,0,1,7.1,2,13.4,13.4,0,0,1,4.2,18.4L92,1232.7A13.1,13.1,0,0,1,80.7,1239Z" style="fill:#172f45;opacity:0.1"/><path d="M84.1,1232.6a12.6,12.6,0,0,1-6.5-1.9,12.4,12.4,0,0,1-4-17l126-201.5a12.4,12.4,0,0,1,10.5-5.8,11.5,11.5,0,0,1,6.5,1.9,12.4,12.4,0,0,1,4,17l-126,201.5A12.3,12.3,0,0,1,84.1,1232.6Z" style="fill:#253d54;opacity:0.18181799999999998"/><path d="M87.6,1226.1a11.4,11.4,0,0,1-9.7-17.4l118.7-189.6a11.3,11.3,0,0,1,9.7-5.4,11.6,11.6,0,0,1,6,1.7,11.3,11.3,0,0,1,3.6,15.7L97.2,1220.8A11.4,11.4,0,0,1,87.6,1226.1Z" style="fill:#334c62;opacity:0.263636"/><path d="M91,1219.7a11,11,0,0,1-5.5-1.6,10.5,10.5,0,0,1-4.6-6.5,10.7,10.7,0,0,1,1.3-7.8l111.4-177.9a10.5,10.5,0,0,1,8.9-4.8,10.8,10.8,0,0,1,5.5,1.5,10.4,10.4,0,0,1,3.3,14.3L99.9,1214.8A10.5,10.5,0,0,1,91,1219.7Z" style="fill:#425a71;opacity:0.345455"/><path d="M94.5,1213.2a9.7,9.7,0,0,1-5-1.4,9.5,9.5,0,0,1-4.2-5.8,9.7,9.7,0,0,1,1.2-7.1l104.2-166.1a9.2,9.2,0,0,1,8-4.4,9.6,9.6,0,0,1,4.9,1.4,9.3,9.3,0,0,1,3,12.9L102.5,1208.8A9.3,9.3,0,0,1,94.5,1213.2Z" style="fill:#506880;opacity:0.42727299999999996"/><path d="M97.9,1206.8a8.7,8.7,0,0,1-4.4-1.3,8.2,8.2,0,0,1-3.7-5.2,8,8,0,0,1,1-6.4l96.9-154.2a8.3,8.3,0,0,1,7.1-4,9,9,0,0,1,4.5,1.3,8.4,8.4,0,0,1,2.7,11.5l-96.9,154.3A8.4,8.4,0,0,1,97.9,1206.8Z" style="fill:#5e778e;opacity:0.509091"/><path d="M101.4,1200.3a7.7,7.7,0,0,1-3.9-1.1,7.4,7.4,0,0,1-2.4-10.2l89.6-142.5a7.4,7.4,0,0,1,6.3-3.5,6.7,6.7,0,0,1,3.9,1.2,7.1,7.1,0,0,1,3.3,4.6,7,7,0,0,1-.9,5.6l-89.6,142.4A7.4,7.4,0,0,1,101.4,1200.3Z" style="fill:#6c859d;opacity:0.590909"/><path d="M104.8,1193.9a7,7,0,0,1-3.4-1,6.5,6.5,0,0,1-2.8-4,6.2,6.2,0,0,1,.8-4.8l82.3-130.7a6.5,6.5,0,0,1,5.5-3,5.9,5.9,0,0,1,3.4,1,6.3,6.3,0,0,1,2.9,3.9,6.5,6.5,0,0,1-.8,4.9l-82.4,130.7A6.4,6.4,0,0,1,104.8,1193.9Z" style="fill:#7a94ab;opacity:0.672727"/><path d="M108.3,1187.4a6,6,0,0,1-2.9-.8,5.5,5.5,0,0,1-2.4-3.4,5.1,5.1,0,0,1,.7-4l75.1-118.9a5.4,5.4,0,0,1,4.6-2.6,6,6,0,0,1,2.9.8,5.5,5.5,0,0,1,2.4,3.4,5.4,5.4,0,0,1-.7,4.1l-75.1,118.9A5.3,5.3,0,0,1,108.3,1187.4Z" style="fill:#88a2ba;opacity:0.754545"/><path d="M111.7,1181a4.8,4.8,0,0,1-2.3-.7,4.5,4.5,0,0,1-2-2.8,4.8,4.8,0,0,1,.6-3.3l67.8-107.1a4.4,4.4,0,0,1,3.8-2.1,4.8,4.8,0,0,1,2.3.7,4.5,4.5,0,0,1,2,2.8,3.9,3.9,0,0,1-.6,3.3l-67.8,107.1A4.4,4.4,0,0,1,111.7,1181Z" style="fill:#97b0c9;opacity:0.836364"/><path d="M115.2,1174.5a3.5,3.5,0,0,1-3.4-2.6,3.4,3.4,0,0,1,.5-2.6l60.5-95.3a3.7,3.7,0,0,1,3-1.6,4.1,4.1,0,0,1,1.8.5,3.2,3.2,0,0,1,1.5,2.1,3.4,3.4,0,0,1-.4,2.6l-60.6,95.3A3.4,3.4,0,0,1,115.2,1174.5Z" style="fill:#a5bfd7;opacity:0.9181819999999999"/><path d="M118.6,1168.1a2.8,2.8,0,0,1-1.2-.4,2.3,2.3,0,0,1-1.1-1.5,1.9,1.9,0,0,1,.3-1.8l53.3-83.5a2.2,2.2,0,0,1,2.1-1.2,1.7,1.7,0,0,1,1.2.4,2.6,2.6,0,0,1,1.2,1.5,2.3,2.3,0,0,1-.4,1.8l-53.2,83.5A2.7,2.7,0,0,1,118.6,1168.1Z" style="fill:#b3cde6"/><path d="M260.6,887.8s28.3,87.1,0,178.7c0,0-104.3-8.6-104.3-89.4S260.6,887.8,260.6,887.8Z" style="fill:#fff"/><path d="M255.9,1059.3c-8.7-1.3-27-4.8-45-13.3-31.9-15-48-38.2-48-68.9,0-50.1,44.7-70.3,73.8-78.1a18.9,18.9,0,0,1,23.4,14.7C266.2,944.4,272.6,1000.8,255.9,1059.3Z" style="fill:#b9d1e8"/><path d="M260,912.8c5.7,29.3,11.7,82.7-4,138.3-8.1,0-26.1-2.5-43.6-10.8-30.7-14.7-46.2-37.1-46.1-66.6.2-48.1,43.1-67.4,71.3-74.9a13.2,13.2,0,0,1,3.9-.6A17.9,17.9,0,0,1,260,912.8Z" style="fill:#bfd5ea"/><path d="M259.9,911.9c5.3,27.8,10.8,78.4-3.8,130.9-7.6,1.4-25.3-.1-42.2-8.3-29.5-14.2-44.3-35.8-44.1-64.2.4-46.1,41.5-64.6,68.6-71.8l3.7-.6A17.1,17.1,0,0,1,259.9,911.9Z" style="fill:#c6d9ec"/><path d="M259.8,911c4.9,26.4,9.9,74-3.6,123.6-7,2.8-24.4,2.2-40.9-5.8-28.2-13.9-42.4-34.7-42.1-61.9.6-44.1,39.9-61.8,66-68.6a22.5,22.5,0,0,1,3.6-.6A16.1,16.1,0,0,1,259.8,911Z" style="fill:#ccdeee"/><path d="M259.7,910.1c4.5,25,9.1,69.6-3.4,116.3-6.5,4.1-23.6,4.5-39.5-3.4-27.1-13.4-40.6-33.4-40.1-59.6.7-42.1,38.2-58.8,63.4-65.3a20.2,20.2,0,0,1,3.4-.6A15.2,15.2,0,0,1,259.7,910.1Z" style="fill:#d2e2f0"/><path d="M259.6,909.2c4.1,23.6,8.2,65.2-3.2,108.9-5.9,5.5-22.8,6.9-38.2-.9-25.8-12.9-38.6-32.2-38-57.2.9-40.1,36.6-56,60.7-62.2a18.8,18.8,0,0,1,3.3-.5A14.3,14.3,0,0,1,259.6,909.2Z" style="fill:#d9e6f2"/><path d="M259.5,908.3c3.8,22.2,7.3,60.8-3,101.6-5.3,6.8-21.9,9.2-36.8,1.6-24.6-12.6-36.8-31-36.1-54.9,1.1-38.1,35-53.2,58.2-59a15.9,15.9,0,0,1,3-.6A13.6,13.6,0,0,1,259.5,908.3Z" style="fill:#dfeaf5"/><path d="M259.4,907.4c3.4,20.8,6.5,56.4-2.8,94.3-4.8,8.1-21.1,11.5-35.4,4-23.5-12.1-34.9-29.8-34.1-52.5,1.3-36.1,33.3-50.4,55.5-55.8l2.9-.6A12.6,12.6,0,0,1,259.4,907.4Z" style="fill:#e6eef7"/><path d="M259.3,906.5c3,19.4,5.6,52-2.6,86.9-4.2,9.5-20.2,13.9-34.1,6.6-22.2-11.7-33-28.6-32.1-50.2,1.5-34.2,31.7-47.5,53-52.7l2.7-.5A11.6,11.6,0,0,1,259.3,906.5Z" style="fill:#ecf2f9"/><path d="M259.2,905.6c2.6,17.9,4.7,47.7-2.4,79.6-3.7,10.8-19.4,16.2-32.7,9-21-11.3-31.1-27.4-30.1-47.9,1.6-32.1,30.1-44.6,50.3-49.4l2.6-.5A10.7,10.7,0,0,1,259.2,905.6Z" style="fill:#f2f7fb"/><path d="M259.1,904.7c2.2,16.5,3.9,43.3-2.2,72.3-3.1,12.1-18.5,18.5-31.4,11.4-19.8-10.8-29.2-26.1-28-45.5,1.8-30.1,28.4-41.8,47.7-46.3l2.3-.4A9.9,9.9,0,0,1,259.1,904.7Z" style="fill:#f9fbfd"/><path d="M257,968.7c-2.6,13.6-17.7,20.8-29.7,14.1H227c-18.6-10.5-27.4-25-26.1-43.2,2.1-29.3,28.9-39.8,47.3-43.6a9.1,9.1,0,0,1,10.8,7.9A215.2,215.2,0,0,1,257,968.7Z" style="fill:#fff"/><path d="M135.6,1618.2H55.2A55.2,55.2,0,0,1,0,1562.9l13.1-313.6A55.3,55.3,0,0,1,68.3,1194h57.5a55.3,55.3,0,0,1,55.2,55.3l9.8,313.6A55.2,55.2,0,0,1,135.6,1618.2Z" style="fill:#fff"/><path d="M55.2,1613c-26.8,0-48.7-22.5-48.7-49.4l13.1-313.5c0-27.1,21.9-49.1,48.7-49.1h57.5a48.6,48.6,0,0,1,48.7,48.5l9.8,314.4c0,26.7-21.9,49.1-48.7,49.1Z" style="fill:#b3cde6"/><path d="M174.6,1254.3c.2,2.2,8.7,275,8.7,276.9,0,.1.9,31.9.8,32.1-.3,26.2-21.9,48.3-48.2,48.3H95.7c-.7.1-40-.3-40-.8-25.8,0-47-22.8-47-48.6l6.4-164.1c-.1-.7,6-141.7,6.5-142.3a49.8,49.8,0,0,1,48.8-48.7c.3-.3,55.9-.4,56.2-.4a47.7,47.7,0,0,1,32.1,12.3A46.8,46.8,0,0,1,174.6,1254.3Z" style="fill:#b6cfe7"/><path d="M174.8,1259.3c.4,4.4,8.6,268.4,8.5,272.2,0,.3.8,31.1.6,31.5-.6,25.6-22,47.4-47.7,47.5l-40.3.2c-1.4.1-39.7-.5-39.8-1.6-24.8,0-45.2-23.2-45.2-48l5.8-160.3c-.2-1.5,5.8-137.7,6.9-138.9,1.1-26.3,22.8-47.1,48.8-48.2.6-.5,54.3-.7,55.1-.8a47,47,0,0,1,31.5,12A45.7,45.7,0,0,1,174.8,1259.3Z" style="fill:#b9d1e8"/><path d="M175,1264.4c.5,6.4,8.5,261.7,8.4,267.5,0,.4.7,30.1.3,30.7-.9,25.1-22,46.6-47.2,46.7l-40.4.4c-2,.2-39.4-.8-39.5-2.4-23.8,0-43.6-23.7-43.6-47.4l5.2-156.6c-.2-2.2,5.8-133.6,7.3-135.3,1.8-26,23.3-46,49-47.7.8-.7,52.7-1.2,53.9-1.2a47,47,0,0,1,30.9,11.6A44.5,44.5,0,0,1,175,1264.4Z" style="fill:#bcd3e9"/><path d="M175.2,1269.4c.7,8.6,8.4,255.1,8.2,262.8.1.6.6,29.2.1,30.1-1.2,24.6-22.1,45.7-46.7,45.9l-40.5.5c-2.7.2-39.1-1.1-39.3-3.2-22.7,0-41.8-24.1-41.8-46.8l4.6-152.8c-.3-3.1,5.6-129.6,7.7-131.9,2.3-25.6,23.8-44.9,49-47.1,1.2-1,51.2-1.6,52.7-1.6a46.2,46.2,0,0,1,30.4,11.3A43.2,43.2,0,0,1,175.2,1269.4Z" style="fill:#bfd5ea"/><path d="M175.4,1274.4c.9,10.8,8.3,248.5,8,258.1.1.8.6,28.4-.1,29.4-1.5,24.1-22.1,44.9-46.2,45.1l-40.7.7c-3.3.2-38.7-1.4-38.9-4-21.7,0-40.1-24.5-40.1-46.2l4-149.1c-.5-3.8,5.5-125.5,8.1-128.3,2.9-25.2,24.2-43.9,49.1-46.6,1.4-1.3,49.6-2,51.5-2a45.7,45.7,0,0,1,29.8,10.9A42.2,42.2,0,0,1,175.4,1274.4Z" style="fill:#c2d7eb"/><path d="M175.6,1279.5c1,12.9,8.2,241.8,7.9,253.4.1.9.4,27.4-.4,28.7-1.8,23.5-22.2,44.1-45.7,44.3l-40.8.8c-4,.3-38.4-1.7-38.7-4.8-20.6,0-38.4-25-38.4-45.6L23,1411c-.6-4.6,5.4-121.4,8.4-124.9,3.6-24.8,24.8-42.8,49.2-46,1.8-1.6,48.1-2.4,50.4-2.5a45.4,45.4,0,0,1,29.2,10.7C169.5,1256,175.5,1267,175.6,1279.5Z" style="fill:#c5d9ec"/><path d="M175.8,1284.5c1.2,15.1,8.2,235.2,7.7,248.7.1,1.1.3,26.5-.6,28.1-2.1,23-22.3,43.2-45.2,43.4l-40.9,1c-4.7.3-38.1-2-38.4-5.6-19.7,0-36.7-25.4-36.7-45l2.8-141.6c-.6-5.3,5.3-117.3,8.9-121.3,4.1-24.5,25.2-41.7,49.2-45.6,2.1-1.7,46.6-2.7,49.2-2.8a44.8,44.8,0,0,1,28.7,10.3C169.7,1261.6,175.7,1272.4,175.8,1284.5Z" style="fill:#c7daed"/><path d="M176,1289.5c1.4,17.2,8.1,228.6,7.6,244,.1,1.3.2,25.7-.9,27.4-2.4,22.5-22.3,42.4-44.7,42.7l-41,1c-5.4.5-37.9-2.2-38.2-6.3-18.6,0-34.9-25.8-34.9-44.4l2.2-137.8c-.7-6.1,5.2-113.3,9.3-117.9,4.7-24.1,25.7-40.6,49.3-45,2.3-2,45-3.2,48-3.2a44.7,44.7,0,0,1,28.1,9.9C169.9,1267.3,175.9,1277.7,176,1289.5Z" style="fill:#cadcee"/><path d="M176.2,1294.5c1.5,19.4,8,222.1,7.4,239.3.1,1.5.1,24.8-1.1,26.8-2.7,21.9-22.4,41.5-44.2,41.9l-41.1,1.1c-6.1.5-37.6-2.5-37.9-7-17.6,0-33.3-26.4-33.3-43.9l1.7-134.1c-.9-6.8,5-109.2,9.6-114.4,5.3-23.6,26.2-39.5,49.4-44.4,2.7-2.3,43.5-3.6,46.9-3.6a43.2,43.2,0,0,1,27.5,9.6C170.1,1272.9,176,1283.1,176.2,1294.5Z" style="fill:#cddeef"/><path d="M176.4,1299.6c1.7,21.5,7.9,215.4,7.2,234.6.2,1.5,0,23.8-1.3,26-3,21.5-22.4,40.8-43.7,41.1l-41.2,1.3c-6.7.5-37.3-2.8-37.7-7.8-16.5,0-31.5-26.8-31.5-43.3l1-130.3c-.9-7.6,5-105.2,10.1-110.9,5.9-23.3,26.7-38.5,49.5-43.9,2.9-2.6,41.9-4,45.7-4.1a44,44,0,0,1,26.9,9.3C170.3,1278.5,176.2,1288.4,176.4,1299.6Z" style="fill:#d0e0f0"/><path d="M176.6,1304.6c1.9,23.7,7.8,208.8,7.1,229.9.1,1.7-.1,23-1.5,25.4-3.4,20.9-22.6,39.9-43.2,40.3l-41.4,1.4c-7.4.6-37-3-37.4-8.6-15.5,0-29.9-27.3-29.9-42.7l.5-126.6c-1-8.3,4.8-101.1,10.5-107.4,6.4-22.9,27.2-37.3,49.5-43.3,3.3-2.8,40.4-4.4,44.5-4.5a43.2,43.2,0,0,1,26.4,9C170.5,1284.2,176.4,1293.8,176.6,1304.6Z" style="fill:#d3e2f1"/><path d="M176.8,1309.6c2,25.9,7.7,202.2,6.9,225.2.2,1.9-.2,22.1-1.7,24.7-3.7,20.4-22.6,39.1-42.7,39.5l-41.5,1.6c-8.1.6-36.7-3.3-37.2-9.4-14.5,0-28.1-27.7-28.1-42.2V1426.3c-1.1-9.1,4.7-97,10.8-103.9,7.1-22.5,27.7-36.3,49.7-42.9,3.5-3,38.8-4.7,43.3-4.8a41.9,41.9,0,0,1,25.8,8.6C170.7,1289.8,176.6,1299.1,176.8,1309.6Z" style="fill:#d6e4f2"/><path d="M177,1314.6c2.2,28.1,7.6,195.6,6.8,220.6.1,2-.4,21.1-2,24-4,19.9-22.7,38.2-42.2,38.7l-41.7,1.7c-8.7.7-36.3-3.6-36.8-10.2-13.5,0-26.4-28.1-26.4-41.6l-.7-119c-1.2-9.9,4.6-92.9,11.2-100.4,7.6-22.1,28.2-35.2,49.7-42.3,3.8-3.3,37.3-5.1,42.2-5.2a42.2,42.2,0,0,1,25.2,8.2C170.9,1295.5,176.7,1304.4,177,1314.6Z" style="fill:#d9e6f3"/><path d="M177.2,1319.7c2.3,30.1,7.5,188.9,6.6,215.8.2,2.2-.4,20.3-2.2,23.3-4.3,19.4-22.7,37.4-41.7,38l-41.8,1.8c-9.4.7-36-3.9-36.6-11-12.4,0-24.7-28.6-24.7-41l-1.3-115.2c-1.3-10.7,4.5-88.9,11.7-96.9,8.2-21.8,28.6-34.2,49.8-41.8,4.1-3.6,35.7-5.6,40.9-5.7a42.1,42.1,0,0,1,24.7,8C171.1,1301.1,176.9,1309.8,177.2,1319.7Z" style="fill:#dce8f3"/><path d="M177.3,1324.7c2.6,32.3,7.5,182.3,6.5,211.1.2,2.4-.5,19.4-2.4,22.7-4.6,18.8-22.8,36.6-41.2,37.1l-41.9,2c-10.1.7-35.8-4.2-36.4-11.8-11.3,0-22.9-29-22.9-40.4l-1.9-111.5c-1.4-11.4,4.4-84.8,12-93.4,8.8-21.3,29.2-33.1,49.9-41.2,4.4-3.8,34.2-6,39.8-6.1a41.8,41.8,0,0,1,24.1,7.6C171.3,1306.8,177.1,1315.1,177.3,1324.7Z" style="fill:#dfeaf4"/><path d="M177.5,1329.7c2.8,34.5,7.4,175.7,6.4,206.5.2,2.5-.6,18.4-2.7,21.9-4.9,18.4-22.8,35.8-40.7,36.4l-42,2c-10.8.9-35.5-4.4-36.1-12.5-10.3,0-21.2-29.4-21.2-39.8l-2.5-107.7c-1.5-12.2,4.2-80.8,12.4-89.9,9.4-21,29.6-32,50-40.7,4.7-4.1,32.6-6.4,38.6-6.5a40.8,40.8,0,0,1,23.5,7.3C171.5,1312.4,177.2,1320.5,177.5,1329.7Z" style="fill:#e2ecf5"/><path d="M177.7,1334.7c2.9,36.7,7.3,169.1,6.2,201.8.2,2.7-.7,17.6-2.9,21.3-5.2,17.8-22.9,34.9-40.2,35.5l-42.1,2.2c-11.4.9-35.2-4.7-35.9-13.3-9.3,0-19.5-29.9-19.5-39.2l-3.1-104c-1.5-12.9,4.2-76.6,12.9-86.4,9.9-20.6,30.1-30.9,50-40.2,5-4.3,31.1-6.7,37.5-6.8a40.3,40.3,0,0,1,22.9,6.9C171.7,1318,177.4,1325.8,177.7,1334.7Z" style="fill:#e5eef6"/><path d="M177.9,1339.8c3.1,38.8,7.2,162.5,6.1,197,.2,2.9-.9,16.7-3.2,20.6-5.4,17.3-22.9,34.1-39.7,34.8l-42.2,2.3c-12.1,1-34.9-5-35.6-14.1-8.3,0-17.8-30.3-17.8-38.6l-3.7-100.2c-1.6-13.7,4.1-72.6,13.2-82.9,10.6-20.3,30.6-29.9,50.2-39.7,5.2-4.6,29.5-7.1,36.2-7.3a40.1,40.1,0,0,1,22.4,6.7C171.9,1323.7,177.6,1331.1,177.9,1339.8Z" style="fill:#e8f0f7"/><path d="M178.1,1344.8c3.3,40.9,7.1,155.9,5.9,192.4.2,2.9-.9,15.7-3.4,19.9-5.7,16.8-23,33.2-39.2,33.9l-42.3,2.5c-12.8,1-34.6-5.3-35.4-14.9-7.2,0-16-30.7-16-38l-4.3-96.4c-1.8-14.5,3.9-68.6,13.6-79.5,11.2-19.8,31.1-28.8,50.2-39.1,5.6-4.8,28-7.6,35.1-7.7a39.9,39.9,0,0,1,21.8,6.3C172.1,1329.3,177.8,1336.5,178.1,1344.8Z" style="fill:#ebf2f8"/><path d="M178.3,1349.8c3.4,43.1,7,149.3,5.7,187.7.3,3.1-1,14.9-3.6,19.2-6,16.3-23,32.5-38.7,33.2l-42.4,2.6c-13.5,1.1-34.3-5.5-35.1-15.7-6.2,0-14.4-31.2-14.4-37.4l-4.9-92.7c-1.8-15.2,3.9-64.5,14.1-75.9,11.7-19.5,31.5-27.7,50.2-38.6,5.9-5.1,26.5-8,34-8.1a39.7,39.7,0,0,1,21.2,5.9C172.3,1334.9,177.9,1341.8,178.3,1349.8Z" style="fill:#edf3f9"/><path d="M178.5,1354.8c3.6,45.3,6.9,142.7,5.6,183,.2,3.3-1.2,14-3.9,18.6-6.3,15.7-23.1,31.6-38.2,32.4l-42.6,2.7c-14.1,1.1-33.9-5.8-34.8-16.5-5.1,0-12.6-31.6-12.6-36.8l-5.5-88.9c-1.9-16,3.7-60.5,14.4-72.5,12.4-19.1,32.1-26.6,50.4-38,6.2-5.4,24.9-8.4,32.7-8.5a38.8,38.8,0,0,1,20.7,5.6C172.5,1340.6,178.1,1347.2,178.5,1354.8Z" style="fill:#f0f5fa"/><path d="M178.7,1359.9c3.8,47.4,6.8,136,5.4,178.3.3,3.4-1.2,13-4.1,17.8-6.6,15.3-23.2,30.8-37.6,31.6l-42.8,2.9c-14.8,1.1-33.7-6.1-34.5-17.3-4.2,0-11-32.1-11-36.2l-6-85.2c-2-16.8,3.6-56.3,14.8-69,12.9-18.6,32.5-25.5,50.4-37.5,6.5-5.6,23.4-8.7,31.6-8.9a40.8,40.8,0,0,1,20.1,5.3C172.7,1346.2,178.3,1352.5,178.7,1359.9Z" style="fill:#f3f7fb"/><path d="M178.9,1364.9c3.9,49.6,6.7,129.4,5.3,173.6.2,3.6-1.4,12.2-4.4,17.2-6.9,14.7-23.2,29.9-37.1,30.8l-42.9,3c-15.5,1.2-33.4-6.4-34.3-18.1-3.1,0-9.2-32.5-9.2-35.6l-6.6-81.4c-2.1-17.6,3.4-52.3,15.2-65.5,13.5-18.3,33-24.5,50.5-37,6.7-5.8,21.8-9.1,30.4-9.3a38.6,38.6,0,0,1,19.5,5C172.9,1351.8,178.5,1357.8,178.9,1364.9Z" style="fill:#f6f9fc"/><path d="M179.1,1369.9c4.1,51.8,6.6,122.8,5.1,168.9.3,3.8-1.4,11.3-4.6,16.5-7.2,14.2-23.3,29.1-36.6,30l-43,3.2c-16.1,1.2-33.1-6.7-34-18.9-2.1,0-7.5-32.9-7.5-35l-7.3-77.7c-2.2-18.3,3.4-48.2,15.6-62,14.1-17.9,33.5-23.3,50.6-36.4,7.1-6.1,20.3-9.5,29.3-9.7a38.3,38.3,0,0,1,18.9,4.6C173.2,1357.5,178.6,1363.2,179.1,1369.9Z" style="fill:#f9fbfd"/><path d="M179.3,1375c4.2,53.8,6.5,116.1,4.9,164.2.3,3.9-1.5,10.4-4.8,15.8-7.5,13.6-23.3,28.3-36.1,29.2l-43.1,3.2c-16.8,1.4-32.8-6.9-33.8-19.6-1,0-5.8-33.4-5.8-34.4l-7.8-73.9c-2.3-19.1,3.3-44.2,16-58.5,14.7-17.6,34-22.3,50.7-35.9,7.3-6.4,18.7-10,28-10.1a39,39,0,0,1,18.3,4.2C173.4,1363.1,178.8,1368.5,179.3,1375Z" style="fill:#fcfdfe"/><path d="M121.5,1371.7c12.4-10.8,29.9-13.9,44.6-6.6,7.5,3.6,12.9,8.8,13.4,14.9,4.4,56,6.4,109.5,4.8,159.5,1,13.6-23.2,42.2-40.7,43.5l-43.2,3.4c-17.5,1.4-32.5-7.2-33.5-20.4L54.4,1462c-2.4-19.8,3.1-40.1,16.4-55C86,1389.9,105.2,1385.8,121.5,1371.7Z" style="fill:#fff"/><path d="M823.3,831c-64.1-10.9-185.4-29.5-264.2-29.5s-201.6,18.8-265.5,29.6a51.2,51.2,0,0,0-42.8,50.2v345.6a195.1,195.1,0,0,0,45.7,125.4c45,53.8,102.2,123.2,143.7,175.4,10.1,12.6,22.8,22.7,36.1,30.6a162.6,162.6,0,0,0,165.8,0c13.3-7.9,26-18,36-30.6,41.2-51.7,96.8-120.2,141.6-173.7a197,197,0,0,0,46-126.4V881.3A50.9,50.9,0,0,0,823.3,831Z" style="fill:#fff"/><path d="M640.1,1548a153,153,0,0,1-161.7,0c-11.3-7-22-15.7-30.5-26.4-44.2-55.6-103.3-126.9-143.7-175.1-28.2-33.7-43.9-75.9-43.9-118.9V881.3A41.3,41.3,0,0,1,295,840.8c65-11,185.6-16.4,264-16.4s198.5,5.4,263.4,16.4a40.9,40.9,0,0,1,33.9,40.5v346.3a185.2,185.2,0,0,1-43,118.9c-41.3,49.4-97.4,118.1-142.8,175.1C662,1532.3,651.4,1540.9,640.1,1548Z" style="fill:#b3cde6"/><path d="M639.4,1534.1c-48.7,30.2-111.1,30.1-159.9.1-11.2-7-21.9-15.5-30.3-26-44-54.6-101.9-124.6-142-171.8a180.6,180.6,0,0,1-42.9-116.6V879.9a39.9,39.9,0,0,1,33.6-39.6C362.3,829.6,481.8,824,559.6,824s195.9,5.6,260.3,16.3c19.3,3.3,32.4,19.9,32.4,39.6v339.9c0,42.9-14.4,84.3-41.7,116.6-41,48.4-96.3,115.8-141.3,171.8A117,117,0,0,1,639.4,1534.1Z" style="fill:#b6cfe7"/><path d="M638.7,1520.3a152.5,152.5,0,0,1-158,0c-11.2-6.8-21.8-15.2-30.2-25.5-43.7-53.6-101.1-122.2-140.9-168.6A175.5,175.5,0,0,1,267.3,1212V878.5a38.9,38.9,0,0,1,32.9-38.6c64-10.6,182.5-16.2,259.7-16.2s195.5,5.6,259.5,16.2a39.3,39.3,0,0,1,32.9,38.6V1212a175.7,175.7,0,0,1-42.4,114.2c-40.8,47.5-96.2,113.7-140.9,168.6C660.6,1505.1,649.9,1513.5,638.7,1520.3Z" style="fill:#b9d1e8"/><path d="M638.1,1506.4a152.2,152.2,0,0,1-156.2,0c-11.2-6.7-21.8-14.9-30.2-25-43.3-52.6-101.6-119.9-141.1-165.3-27.5-31.7-43.3-71.5-43.3-111.9v-327c0-18.7,14.6-34.5,33.8-37.7,63.5-10.4,181.7-16.2,258.4-16.2s194,5.8,257.5,16.2a38.3,38.3,0,0,1,32.3,37.7v327a171.1,171.1,0,0,1-41.6,111.9c-40.5,46.6-95.3,111.4-139.7,165.3C659.7,1491.5,649.2,1499.7,638.1,1506.4Z" style="fill:#bcd3e9"/><path d="M637.4,1492.5a152.6,152.6,0,0,1-154.4.1c-11.1-6.6-21.6-14.7-30-24.6-43-51.5-100.7-117.5-139.9-162.1-27.3-31-42.8-69.9-42.8-109.6V875.8c0-18.2,14.2-33.6,33.1-36.7,63-10.2,180.3-16.2,256.4-16.2s192.1,6,255.1,16.2a37,37,0,0,1,31.4,36.7v320.5c0,40.4-14.2,79.3-40.8,109.6-40.2,45.7-94.4,109.3-138.4,162.1A116.7,116.7,0,0,1,637.4,1492.5Z" style="fill:#bfd5ea"/><path d="M636.7,1478.6a152.5,152.5,0,0,1-152.5.1c-11.1-6.5-21.6-14.4-29.9-24.1-42.7-50.5-99.9-115.2-138.8-158.8-27-30.4-42.2-68.5-42.2-107.3V874.4c0-17.7,13.8-32.7,32.4-35.8,62.6-9.9,179-16.1,254.4-16.1s191.7,6.2,254.2,16.1c18.1,3,32,18,32,35.8v314.1c0,39.5-15.2,77.6-41.5,107.3-39.9,44.7-94.3,107-138,158.8C658.5,1464.3,647.7,1472.2,636.7,1478.6Z" style="fill:#c2d7eb"/><path d="M636,1464.8a152.3,152.3,0,0,1-150.6,0c-11.1-6.3-21.5-14.1-29.8-23.7-42.4-49.4-98.5-112.7-137.1-155.5-26.8-29.7-41.2-67-41.2-104.9V873c0-17.2,13-31.9,31.3-34.8,62.1-9.7,177.2-16,252.1-16s189.6,6.3,251.7,16c17.8,2.9,30.9,17.5,30.9,34.8v307.7a156.8,156.8,0,0,1-40.7,104.9c-39.6,43.8-93.4,104.9-136.8,155.5C657.6,1450.7,647,1458.4,636,1464.8Z" style="fill:#c5d9ec"/><path d="M635.3,1450.9a152.3,152.3,0,0,1-148.7,0c-11.1-6.2-21.5-13.7-29.7-23.2-42.1-48.4-97.6-110.4-136-152.2-26.5-29.1-40.6-65.5-40.6-102.6V871.7c0-16.8,12.6-31.1,30.6-33.9,61.6-9.6,175.8-16,250.1-16s187.3,6.4,248.9,16c17.5,2.8,29.4,17,29.4,33.9v301.2a151.4,151.4,0,0,1-39.5,102.6c-39.2,42.9-92.1,102.6-135.2,152.2A110.4,110.4,0,0,1,635.3,1450.9Z" style="fill:#c7daed"/><path d="M634.7,1437a152.6,152.6,0,0,1-147,.1c-11-6.1-21.4-13.5-29.5-22.8-41.8-47.3-96.7-108-134.8-149-26.3-28.4-40.1-64-40.1-100.2V870.3c0-16.3,12.2-30.2,30-32.9,61.1-9.4,174.3-16,248-16s186.9,6.6,248,16c17.2,2.7,30,16.5,30,32.9v294.8c0,36.9-14.6,72.5-40.2,100.2-39,42-92,100.5-134.8,149C656.2,1423.5,645.6,1431,634.7,1437Z" style="fill:#cadcee"/><path d="M634,1423.1a152.4,152.4,0,0,1-145.1.1c-10.9-6-21.3-13.2-29.5-22.3-41.4-46.3-97.3-105.6-135.1-145.7-26-27.8-41-62.5-41-97.9V868.9c0-15.8,13.4-29.3,30.8-31.9,60.7-9.2,173.7-16,246.8-16s185.3,6.8,246,16c16.9,2.6,29.4,16,29.4,31.9v288.4c0,36-14,70.8-39.4,97.9-38.7,41-91.1,98.3-133.6,145.7C655.2,1410,644.8,1417.2,634,1423.1Z" style="fill:#cddeef"/><path d="M633.3,1409.3a152.8,152.8,0,0,1-143.2,0c-10.9-5.8-21.3-12.9-29.4-21.8-41.1-45.3-95.9-103.3-133.4-142.5-25.8-27.1-40-61-40-95.5V867.6c0-15.4,12.5-28.5,29.6-31.1,60.2-8.9,172-15.9,244.6-15.9s183.3,7,243.4,15.9c16.7,2.6,28.4,15.6,28.4,31.1v281.9c0,35.2-13.5,69.1-38.6,95.5-38.4,40.2-90.2,96.1-132.4,142.5C654.3,1396.4,644.1,1403.5,633.3,1409.3Z" style="fill:#d0e0f0"/><path d="M632.6,1395.4a152.9,152.9,0,0,1-141.4,0c-10.8-5.6-21.1-12.6-29.2-21.3-40.8-44.2-95-100.9-132.2-139.3-25.5-26.4-39.5-59.5-39.5-93.2V866.2c0-14.9,12.1-27.6,29-30.1,59.7-8.7,170.5-15.8,242.5-15.8s182.9,7.1,242.6,15.8c16.3,2.5,28.9,15.1,28.9,30.1v275.4c0,34.4-14.4,67.5-39.3,93.2-38.1,39.3-90.1,94-131.9,139.3C654.1,1382.8,643.4,1389.7,632.6,1395.4Z" style="fill:#d3e2f1"/><path d="M631.9,1381.5a153.2,153.2,0,0,1-139.5.1c-10.8-5.6-21.1-12.4-29.1-20.9-40.5-43.2-94.2-98.6-131.1-136-25.2-25.8-38.9-58-38.9-90.9v-269c0-14.4,11.8-26.7,28.3-29.1,59.2-8.6,169.1-15.8,240.5-15.8s180.5,7.2,239.7,15.8c16.1,2.4,27.5,14.6,27.5,29.1v269c0,33.5-13.4,65.8-38,90.9-37.8,38.3-89,91.7-130.5,136C652.8,1369.2,642.7,1376,631.9,1381.5Z" style="fill:#d6e4f2"/><path d="M631.3,1367.6a153.5,153.5,0,0,1-137.7.1c-10.8-5.4-21.1-12.1-29-20.4-40.3-42.1-93.3-96.2-129.9-132.8-25-25-38.4-56.5-38.4-88.5V863.5c0-14,11.4-25.9,27.7-28.2,58.7-8.4,167.7-15.8,238.5-15.8s178.5,7.4,237.3,15.8c15.7,2.2,26.5,14.1,26.5,28.2V1126c0,32.6-12.8,64.1-37.2,88.5-37.6,37.4-88.1,89.6-129.3,132.8C651.9,1355.6,641.9,1362.2,631.3,1367.6Z" style="fill:#d9e6f3"/><path d="M630.6,1353.8a154.1,154.1,0,0,1-135.9,0c-10.7-5.3-20.9-11.7-28.9-19.9-39.9-41.1-92.3-93.9-128.7-129.5-24.7-24.4-37.8-55-37.8-86.2V862.1c0-13.5,11-25,27-27.3,58.3-8.1,166.3-15.7,236.5-15.7s176.7,7.5,234.9,15.7c15.5,2.2,25.6,13.7,25.6,27.3v256.1c0,31.8-12.3,62.4-36.5,86.2-37.2,36.5-87.1,87.3-127.9,129.5A106.1,106.1,0,0,1,630.6,1353.8Z" style="fill:#dce8f3"/><path d="M629.9,1339.9a154.3,154.3,0,0,1-134,0c-10.7-5.1-20.9-11.4-28.8-19.4-39.6-40-92.9-91.5-129-126.3-24.5-23.7-38.8-53.5-38.8-83.8V860.7c0-13,12.2-24.1,27.8-26.3,57.8-7.9,165.6-15.6,235.2-15.6s176.7,7.6,234.5,15.6c15.2,2.1,26.5,13.2,26.5,26.3v249.7c0,30.9-13.3,60.7-37.2,83.8-36.9,35.6-87,85.2-127.5,126.3C650.7,1328.4,640.5,1334.7,629.9,1339.9Z" style="fill:#dfeaf4"/><path d="M629.2,1326a155,155,0,0,1-132.1.1c-10.7-5.1-20.8-11.2-28.7-19-39.3-39-91.6-89.2-127.3-123-24.3-23.1-37.8-52.1-37.8-81.5V859.3c0-12.5,11.3-23.2,26.7-25.3,57.3-7.7,163.9-15.6,232.9-15.6s174.6,7.8,232,15.6c14.9,2,25.4,12.7,25.4,25.3v243.3c0,30-12.7,59-36.4,81.5-36.6,34.6-86.1,82.9-126.3,123C649.8,1314.8,639.8,1321,629.2,1326Z" style="fill:#e2ecf5"/><path d="M628.5,1312.1a155.7,155.7,0,0,1-130.3.1c-10.6-4.9-20.7-10.9-28.5-18.5-39-38-90.7-86.8-126.2-119.8-24-22.4-37.2-50.5-37.2-79.1V858c0-12.1,10.9-22.4,26-24.4,56.9-7.5,162.5-15.6,230.9-15.6s172.8,7.9,229.6,15.6c14.6,1.9,24.5,12.2,24.5,24.4v236.8c0,29.1-12.2,57.2-35.6,79.1-36.3,33.8-85.2,80.8-125.1,119.8C648.8,1301.2,639,1307.2,628.5,1312.1Z" style="fill:#e5eef6"/><path d="M627.9,1298.3a156.9,156.9,0,0,1-128.5,0c-10.6-4.7-20.7-10.6-28.4-18-38.7-37-89.8-84.5-125-116.5-23.8-21.8-36.7-49.1-36.7-76.9V856.6c0-11.6,10.6-21.5,25.4-23.5,56.3-7.3,161-15.5,228.9-15.5s172.3,8.2,228.6,15.5c14.4,1.9,25.1,11.8,25.1,23.5v230.3c0,28.4-13.1,55.6-36.3,76.9-36.1,32.8-85.1,78.5-124.6,116.5C648.6,1287.7,638.3,1293.5,627.9,1298.3Z" style="fill:#e8f0f7"/><path d="M627.2,1284.4a158,158,0,0,1-126.6.1c-10.6-4.7-20.6-10.4-28.4-17.6-38.2-36-88.4-82.1-123.3-113.3-23.5-21.1-35.6-47.5-35.6-74.5V855.2c0-11.1,9.7-20.6,24.2-22.5,55.9-7.1,159.3-15.4,226.6-15.4s169.8,8.3,225.7,15.4c14.1,1.8,23.5,11.3,23.5,22.5v223.9c0,27.5-12.1,53.9-35,74.5-35.8,31.9-83.9,76.4-123.2,113.3C647.4,1274.1,637.6,1279.8,627.2,1284.4Z" style="fill:#ebf2f8"/><path d="M626.5,1270.5a158.6,158.6,0,0,1-124.8.1c-10.5-4.5-20.5-10.1-28.2-17.1-37.9-35-87.5-79.8-122.1-110-23.3-20.5-35.1-46.1-35.1-72.2V853.9c0-10.7,9.3-19.8,23.5-21.6,55.5-6.9,158-15.4,224.7-15.4s167.8,8.5,223.3,15.4c13.7,1.7,22.5,10.8,22.5,21.6v217.4c0,26.6-11.5,52.2-34.2,72.2-35.5,31-83,74.1-122,110C646.5,1260.5,636.9,1266,626.5,1270.5Z" style="fill:#edf3f9"/><path d="M625.8,1256.6a159.6,159.6,0,0,1-122.9.1c-10.5-4.4-20.4-9.8-28.1-16.6-37.6-34-88.1-77.4-122.4-106.8-23.1-19.8-36.1-44.6-36.1-69.8v-211c0-10.2,10.5-18.9,24.4-20.6,54.9-6.7,157.2-15.4,223.3-15.4s167.9,8.7,222.8,15.4c13.5,1.6,23.5,10.3,23.5,20.6v211c0,25.7-12.5,50.5-35,69.8-35.1,30.1-82.8,72-121.4,106.8C646.3,1246.9,636.2,1252.3,625.8,1256.6Z" style="fill:#f0f5fa"/><path d="M625.1,1242.8a161.3,161.3,0,0,1-121,0c-10.4-4.2-20.4-9.5-28-16.1-37.3-32.9-87.2-75.1-121.3-103.5-22.8-19.2-35.5-43.1-35.5-67.5V851.1c0-9.7,10.1-18,23.7-19.7,54.5-6.4,155.8-15.3,221.4-15.3s165.9,8.9,220.4,15.3c13.1,1.6,22.5,9.9,22.5,19.7v204.6c0,24.9-12,48.8-34.2,67.5-34.8,29.1-81.9,69.7-120.2,103.5C645.3,1233.3,635.4,1238.5,625.1,1242.8Z" style="fill:#f3f7fb"/><path d="M624.5,1228.9a163,163,0,0,1-119.2.1c-10.4-4.1-20.3-9.3-27.9-15.8-37.1-31.8-85.9-72.6-119.6-100.2-22.6-18.4-34.5-41.6-34.5-65.1V849.8c0-9.3,9.2-17.2,22.6-18.8,54-6.3,154.1-15.3,219-15.3s163.4,9,217.4,15.3c12.9,1.5,21,9.4,21,18.8v198.1c0,24-10.9,47.1-32.9,65.1-34.6,28.2-80.8,67.6-118.8,100.2C644.1,1219.7,634.7,1224.8,624.5,1228.9Z" style="fill:#f6f9fc"/><path d="M623.8,1215a163.9,163.9,0,0,1-117.4.1c-10.3-3.9-20.2-8.9-27.8-15.3-36.7-30.8-85.4-70.3-118.9-96.9-22.3-17.8-34.4-40.1-34.4-62.8V848.4c0-8.8,9.3-16.3,22.4-17.8,53.5-6.1,152.9-15.2,217.3-15.2s163.1,9.1,216.7,15.2c12.6,1.4,21.6,8.9,21.6,17.8v191.7c0,23.1-11.9,45.4-33.6,62.8-34.3,27.3-80.7,65.3-118.3,96.9C643.9,1206.1,634,1211.1,623.8,1215Z" style="fill:#f9fbfd"/><path d="M623.1,1201.1a165.7,165.7,0,0,1-115.5.1c-10.3-3.8-20.2-8.6-27.7-14.8-36.4-29.8-84-67.9-117.2-93.7-22.1-17.1-33.4-38.6-33.4-60.5V847c0-8.3,8.5-15.4,21.2-16.8,53.1-5.9,151.3-15.2,215.1-15.2s161.1,9.3,214.1,15.2c12.3,1.3,20.6,8.4,20.6,16.8v185.2c0,22.3-11.3,43.8-32.8,60.5-34,26.4-79.8,63.2-117.1,93.7C642.9,1192.5,633.3,1197.4,623.1,1201.1Z" style="fill:#fcfdfe"/><path d="M622.4,1187.3a168.5,168.5,0,0,1-113.6,0c-10.3-3.6-20.1-8.3-27.6-14.3-36.1-28.7-83.2-65.6-116.1-90.4-21.7-16.5-32.8-37.2-32.8-58.2V845.6c0-7.8,8.1-14.5,20.6-15.9,52.6-5.6,149.8-15.1,213-15.1s159.2,9.5,211.8,15.1c12,1.3,19.6,8,19.6,15.9v178.8c0,21.5-10.8,42.1-32,58.2-33.7,25.4-78.9,60.9-115.9,90.4C642,1178.9,632.6,1183.6,622.4,1187.3Z" style="fill:#fff"/><path d="M833.3,906.4a54,54,0,0,0-51.9-54.7H767.3l.5,18.5h5.8l7.3.2a37.4,37.4,0,0,1,25.4,11c6.3,6.6,11,15.4,11,25.1V1198c0,56.3-13.7,111.7-38.5,162.2h-.4l-52.8,108.4c16.5-20.5,33.7-41.6,50.6-62.1l18.5-38.2h-.5A386.5,386.5,0,0,0,833.3,1198Z" style="fill:#172f45"/><polygon points="767.8 870.2 767.8 870.2 767.8 870.2 767.8 870.2" style="fill:#172f45"/><path d="M283.3,906.4c0-14.6,5.3-28.1,14.8-37.9a53.6,53.6,0,0,1,37-16.8h14.1l-.5,18.5h-5.8l-7.3.2a37.4,37.4,0,0,0-25.4,11c-6.3,6.6-10.9,15.4-10.9,25.1V1198c0,56.3,13.7,111.7,38.4,162.2h.4l52.8,108.4c-16.5-20.5-33.7-41.6-50.6-62.1l-18.5-38.2h.5c-26-53-39-111.3-39-170.4Z" style="fill:#172f45"/><polygon points="348.7 870.2 348.7 870.2 348.7 870.2 348.7 870.2" style="fill:#172f45"/><path d="M640.5,1004.1a31.1,31.1,0,0,0-22.2-9.1H498.2a31.1,31.1,0,0,0-22.2,9.1c-5.8,5.8-9.7,13.2-9.7,21.5v140c0,8.4,3.9,14.6,9.7,20.5s13.9,7.9,22.2,7.9H628.3c5.4,0,11.1-1.2,15-5.1s7-7.8,7-13.3v-150C650.3,1017.3,646.3,1009.9,640.5,1004.1Zm-23.2,151.5c0,2.7-.5,4.8-2.5,6.7a8.2,8.2,0,0,1-6.5,2.7H508.2a8.2,8.2,0,0,1-6.5-2.7c-2-1.9-2.4-4-2.4-6.7v-120a6.6,6.6,0,0,1,2.4-5.8c2-2,3.8-1.8,6.5-1.8H608.3c2.7,0,4.5-.2,6.5,1.8s2.5,3.1,2.5,5.8Zm-29-118.6h-79v118h39v-39h10l10,19.6V1155h39v-19.4l-19.5-30a18.9,18.9,0,0,0,13.8-5.9,19.4,19.4,0,0,0,5.7-14.1v-30a17.3,17.3,0,0,0-5.5-13.4C597.9,1038.3,593.7,1037,588.3,1037Zm-20,49h-20v-20h20Z" style="fill:#172f45"/><path d="M787.3,862.6c0-22.7-63.5-41.6-143.6-41.6H472.4c-80.1,0-147.1,18.9-147.1,41.6v15.3c0,22.6,67,41.1,147.1,41.1H643.7c80.1,0,143.6-18.5,143.6-41.1Z" style="fill:#172f45"/><path d="M728.3,818.7c0-17.1-46-29.7-106.2-29.7H493.3c-60.2,0-112,12.6-112,29.7v11.5c0,17,51.8,30.8,112,30.8H622.1c60.2,0,106.2-13.8,106.2-30.8Z" style="fill:url(#a)"/><path d="M622.1,847H493.3c-59.2,0-110.2-12.6-111.8-29.3,0,.3-.2.7-.2,1v11.5c0,17,51.8,30.8,112,30.8H622.1c60.2,0,106.2-13.8,106.2-30.8V818.7a3.4,3.4,0,0,0-.1-1C726.8,834.4,681.3,847,622.1,847Z" style="fill:url(#b)"/><path d="M556.5,518.7a23.2,23.2,0,0,1,23.2,23.2l.2,251.4a23.2,23.2,0,0,1-46.3.1l-.3-251.5A23.3,23.3,0,0,1,556.5,518.7Z" style="fill:#172f45"/><path d="M549.7,804.7a13.3,13.3,0,0,0,20.4-11.4l-.2-251.4a13.3,13.3,0,0,0-6.3-11.3,13.9,13.9,0,0,0-7.1-2,13.6,13.6,0,0,0-9.5,3.9,13.3,13.3,0,0,0-3.9,9.4l.3,251.5A13.1,13.1,0,0,0,549.7,804.7Z" style="fill:#172f45;opacity:0.1"/><path d="M550.2,797.4a12.4,12.4,0,0,0,18.9-10.5l-.3-237.6a12.5,12.5,0,0,0-12.4-12.4,12.8,12.8,0,0,0-8.8,3.7,12.3,12.3,0,0,0-3.6,8.7l.3,237.6A12.3,12.3,0,0,0,550.2,797.4Z" style="fill:#253d54;opacity:0.18181799999999998"/><path d="M550.7,790.1a11.4,11.4,0,0,0,14-1.6,11.2,11.2,0,0,0,3.3-8.1l-.4-223.7a11.2,11.2,0,0,0-5.3-9.6,10.9,10.9,0,0,0-6.1-1.8,11.2,11.2,0,0,0-8,3.4,11.4,11.4,0,0,0-3.3,8l.4,223.8A11.2,11.2,0,0,0,550.7,790.1Z" style="fill:#334c62;opacity:0.263636"/><path d="M551.1,782.8a11,11,0,0,0,5.5,1.6A10.4,10.4,0,0,0,567,774l-.5-209.9a10.2,10.2,0,0,0-4.9-8.8,10.4,10.4,0,0,0-5.5-1.6,10.1,10.1,0,0,0-7.3,3.1,9.9,9.9,0,0,0-3,7.3l.4,209.9A10.5,10.5,0,0,0,551.1,782.8Z" style="fill:#425a71;opacity:0.345455"/><path d="M551.6,775.5a9.7,9.7,0,0,0,5,1.4,9.4,9.4,0,0,0,9.4-9.4l-.6-196a9.3,9.3,0,0,0-4.4-8,9.7,9.7,0,0,0-5-1.4,9.6,9.6,0,0,0-9.4,9.4l.6,196A9.2,9.2,0,0,0,551.6,775.5Z" style="fill:#506880;opacity:0.42727299999999996"/><path d="M552.1,768.2a8.7,8.7,0,0,0,4.4,1.3,8.4,8.4,0,0,0,6-2.5,8.2,8.2,0,0,0,2.4-5.9l-.6-182.2a8.3,8.3,0,0,0-4-7.1,7.6,7.6,0,0,0-4.4-1.3A8,8,0,0,0,550,573a8.3,8.3,0,0,0-2.5,5.9l.6,182.2A8.3,8.3,0,0,0,552.1,768.2Z" style="fill:#5e778e;opacity:0.509091"/><path d="M552.6,760.9a7.7,7.7,0,0,0,3.9,1.1,7.2,7.2,0,0,0,5.2-2.1,7.5,7.5,0,0,0,2.2-5.3l-.7-168.3a7.4,7.4,0,0,0-3.5-6.3,7.7,7.7,0,0,0-3.9-1.1,7.5,7.5,0,0,0-5.3,2.2,7.2,7.2,0,0,0-2.1,5.2l.7,168.3A7.4,7.4,0,0,0,552.6,760.9Z" style="fill:#6c859d;opacity:0.590909"/><path d="M553.1,753.6a6.5,6.5,0,0,0,3.4,1,6.5,6.5,0,0,0,6.4-6.4l-.8-154.5a6.2,6.2,0,0,0-3-5.4,6.1,6.1,0,0,0-3.4-1,6,6,0,0,0-4.6,1.9,6.3,6.3,0,0,0-1.8,4.5l.7,154.5A6.4,6.4,0,0,0,553.1,753.6Z" style="fill:#7a94ab;opacity:0.672727"/><path d="M553.5,746.3a6,6,0,0,0,2.9.8,5.5,5.5,0,0,0,5.4-5.4L561,601.1a5.4,5.4,0,0,0-5.5-5.4,5.1,5.1,0,0,0-3.8,1.6,5.3,5.3,0,0,0-1.6,3.8l.9,140.6A5.3,5.3,0,0,0,553.5,746.3Z" style="fill:#88a2ba;opacity:0.754545"/><path d="M554,739a4.8,4.8,0,0,0,2.4.7,4.4,4.4,0,0,0,3.1-1.3,4.6,4.6,0,0,0,1.3-3.1l-.9-126.8a4.7,4.7,0,0,0-2.1-3.8,4.8,4.8,0,0,0-2.4-.6,4.3,4.3,0,0,0-3.1,1.2,4.8,4.8,0,0,0-1.3,3.2l.9,126.7A4.4,4.4,0,0,0,554,739Z" style="fill:#97b0c9;opacity:0.836364"/><path d="M554.5,731.7a4.1,4.1,0,0,0,1.8.5,3.3,3.3,0,0,0,2.5-1,3,3,0,0,0,.9-2.4l-.9-112.9a3.2,3.2,0,0,0-1.7-2.9,2.7,2.7,0,0,0-1.8-.5,3.4,3.4,0,0,0-2.4.9,3.3,3.3,0,0,0-1,2.5l1,112.9A3.5,3.5,0,0,0,554.5,731.7Z" style="fill:#a5bfd7;opacity:0.9181819999999999"/><path d="M555,724.4a2.8,2.8,0,0,0,1.3.4,2.6,2.6,0,0,0,1.7-.7,2.3,2.3,0,0,0,.7-1.7l-1-99.1a2.6,2.6,0,0,0-1.2-2.1,2.8,2.8,0,0,0-1.3-.4,2.4,2.4,0,0,0-1.7.7,2.3,2.3,0,0,0-.7,1.7l1,99.1A2.6,2.6,0,0,0,555,724.4Z" style="fill:#b3cde6"/><path d="M1016.4,302s-14.1,90.6,0,185.9c0,0,52.1-9,52.1-93S1016.4,302,1016.4,302Z" style="fill:#fff"/><path d="M1018.8,480.4a56,56,0,0,0,22.4-13.8c16-15.7,24.1-39.8,24.1-71.7,0-52.1-22.4-73.1-36.9-81.3-5.3-3-10.7,4.1-11.7,15.2C1013.6,360.8,1010.4,419.6,1018.8,480.4Z" style="fill:#b9d1e8"/><path d="M1027.8,313.3c-5-2.8-10.1,3.9-11.1,14.5a24.6,24.6,0,0,0-.2,2.8c-2.8,31-5.4,85.1,2.2,141.2,4.1.1,13.1-2.5,21.8-11.2,15.3-15.3,23.1-38.6,23-69.3C1063.4,341.2,1041.9,321.1,1027.8,313.3Z" style="fill:#bfd5ea"/><path d="M1027.3,313c-4.7-2.6-9.5,3.7-10.5,13.7l-.3,2.7c-2.5,29.5-4.9,80.7,2.2,133.9,3.8,1.4,12.6-.2,21.1-8.7,14.7-14.8,22.1-37.3,22-66.8C1061.6,339.6,1040.9,320.4,1027.3,313Z" style="fill:#c6d9ec"/><path d="M1026.8,312.7c-4.5-2.4-9,3.5-9.9,12.9l-.3,2.6c-2.4,28-4.5,76.2,2,126.5,3.5,2.9,12.2,2.3,20.5-6.1,14.1-14.4,21.2-36,21-64.4C1059.8,338,1039.9,319.8,1026.8,312.7Z" style="fill:#ccdeee"/><path d="M1026.3,312.4c-4.2-2.2-8.5,3.4-9.4,12.2-.1.8-.1,1.6-.2,2.4-2.2,26.4-4.2,71.7,1.9,119.1,3.2,4.3,11.8,4.7,19.7-3.5,13.5-13.9,20.3-34.8,20-61.9C1058,336.4,1038.9,319.1,1026.3,312.4Z" style="fill:#d2e2f0"/><path d="M1025.8,312.1c-4-2-8,3.2-8.8,11.4a16.4,16.4,0,0,0-.2,2.3c-2,24.9-3.8,67.2,1.7,111.7,3,5.7,11.4,7.2,19.1-.9,12.9-13.5,19.3-33.5,19-59.5C1056.2,334.8,1037.8,318.4,1025.8,312.1Z" style="fill:#d9e6f2"/><path d="M1025.2,311.9c-3.7-1.9-7.3,2.9-8.2,10.5a16.4,16.4,0,0,1-.2,2.2c-1.8,23.4-3.4,62.8,1.7,104.4,2.7,7.1,10.9,9.5,18.4,1.6,12.3-13,18.3-32.2,18-57.1C1054.3,333.2,1036.8,317.8,1025.2,311.9Z" style="fill:#dfeaf5"/><path d="M1024.7,311.6c-3.4-1.7-6.8,2.7-7.6,9.7-.1.7-.1,1.4-.2,2.1-1.6,21.8-3,58.3,1.5,97,2.4,8.5,10.6,12,17.7,4.2,11.7-12.6,17.5-31,17.1-54.6C1052.5,331.6,1035.8,317.1,1024.7,311.6Z" style="fill:#e6eef7"/><path d="M1024.2,311.3c-3.2-1.5-6.3,2.5-7,9a11.1,11.1,0,0,0-.2,1.9c-1.5,20.3-2.7,53.8,1.4,89.6,2.1,9.9,10.1,14.4,17,6.8,11.1-12.1,16.5-29.7,16-52.2C1050.7,330,1034.8,316.4,1024.2,311.3Z" style="fill:#ecf2f9"/><path d="M1023.7,311c-2.9-1.4-5.7,2.4-6.5,8.2,0,.6-.1,1.2-.1,1.8a484.3,484.3,0,0,0,1.2,82.3c1.9,11.3,9.7,16.8,16.4,9.4,10.5-11.8,15.5-28.5,15-49.9C1048.9,328.4,1033.8,315.7,1023.7,311Z" style="fill:#f2f7fb"/><path d="M1023.2,310.7c-2.7-1.2-5.2,2.2-5.9,7.4-.1.6-.1,1.1-.2,1.7a485.5,485.5,0,0,0,1.2,74.9c1.5,12.7,9.2,19.3,15.6,12,9.9-11.3,14.7-27.3,14.1-47.4C1047,326.9,1032.8,315,1023.2,310.7Z" style="fill:#f9fbfd"/><path d="M1018.2,386.1c1.3,14.1,8.9,21.7,14.9,14.7h.1c9.3-10.9,13.7-26,13-45-1-30.4-14.4-41.4-23.6-45.3-2.6-1.1-5.1,2.7-5.4,8.2A463.2,463.2,0,0,0,1018.2,386.1Z" style="fill:#fff"/><path d="M1011.4,518a18.5,18.5,0,0,1-18.5-18.4l-.2-200.3a18.5,18.5,0,1,1,37,0V499.5A18.4,18.4,0,0,1,1011.4,518Z" style="fill:#172f45"/><path d="M1016.8,290.3a10.1,10.1,0,0,0-5.6-1.6,10.4,10.4,0,0,0-7.5,3.1,10.7,10.7,0,0,0-3.2,7.5l.2,200.2a10.7,10.7,0,0,0,5.1,9.1,11,11,0,0,0,5.6,1.6,10.6,10.6,0,0,0,7.5-3.1,10.8,10.8,0,0,0,3.1-7.6l-.2-200.2A10.3,10.3,0,0,0,1016.8,290.3Z" style="fill:#172f45;opacity:0.1"/><path d="M1017.3,296.1a9.3,9.3,0,0,0-5.2-1.5,9.9,9.9,0,0,0-9.8,9.9l.2,189.2a9.9,9.9,0,0,0,16.9,6.9,9.6,9.6,0,0,0,2.8-7l-.2-189.2A9.6,9.6,0,0,0,1017.3,296.1Z" style="fill:#253d54;opacity:0.18181799999999998"/><path d="M1017.9,301.9a9.2,9.2,0,0,0-4.8-1.4,9.2,9.2,0,0,0-9.1,9.1l.3,178.2a9.1,9.1,0,0,0,4.3,7.7,10.2,10.2,0,0,0,4.8,1.3,9,9,0,0,0,6.4-2.6,9.3,9.3,0,0,0,2.7-6.4l-.3-178.2A9.4,9.4,0,0,0,1017.9,301.9Z" style="fill:#334c62;opacity:0.263636"/><path d="M1018.4,307.7a8.3,8.3,0,0,0-4.4-1.2,8.2,8.2,0,0,0-8.2,8.2l.3,167.2a8.4,8.4,0,0,0,3.9,7,8.8,8.8,0,0,0,4.4,1.2,8.2,8.2,0,0,0,5.9-2.4,8.4,8.4,0,0,0,2.4-5.8l-.4-167.2A8.4,8.4,0,0,0,1018.4,307.7Z" style="fill:#425a71;opacity:0.345455"/><path d="M1018.9,313.5a7.7,7.7,0,0,0-3.9-1.1,7.5,7.5,0,0,0-7.5,7.5l.4,156.1a7.5,7.5,0,0,0,3.6,6.3,6.9,6.9,0,0,0,3.9,1.2,7.5,7.5,0,0,0,7.5-7.5l-.4-156.1A7.6,7.6,0,0,0,1018.9,313.5Z" style="fill:#506880;opacity:0.42727299999999996"/><path d="M1019.5,319.3a7.5,7.5,0,0,0-3.6-1,6.5,6.5,0,0,0-4.7,2,6.3,6.3,0,0,0-2,4.7l.5,145.1a6.8,6.8,0,0,0,3.2,5.7,7.4,7.4,0,0,0,3.5,1,6.7,6.7,0,0,0,4.8-2,6.7,6.7,0,0,0,1.9-4.7l-.5-145.1A6.9,6.9,0,0,0,1019.5,319.3Z" style="fill:#5e778e;opacity:0.509091"/><path d="M1020,325.1a6.5,6.5,0,0,0-3.1-.8,5.9,5.9,0,0,0-4.2,1.7,5.8,5.8,0,0,0-1.7,4.1l.5,134.1a6.1,6.1,0,0,0,2.8,5,5.6,5.6,0,0,0,3.1.9,5.8,5.8,0,0,0,5.9-5.9l-.5-134A6.1,6.1,0,0,0,1020,325.1Z" style="fill:#6c859d;opacity:0.590909"/><path d="M1020.5,331a5,5,0,0,0-2.7-.8,4.9,4.9,0,0,0-3.6,1.5,4.8,4.8,0,0,0-1.5,3.6l.6,123a5,5,0,0,0,2.4,4.3,5.3,5.3,0,0,0,2.7.8,5.1,5.1,0,0,0,3.7-1.5,5.1,5.1,0,0,0,1.4-3.6l-.6-123A5,5,0,0,0,1020.5,331Z" style="fill:#7a94ab;opacity:0.672727"/><path d="M1021,336.8a4.1,4.1,0,0,0-2.2-.7,4.4,4.4,0,0,0-3.1,1.3,3.9,3.9,0,0,0-1.2,3l.6,112a4.4,4.4,0,0,0,2.1,3.7,4,4,0,0,0,2.2.6,4.3,4.3,0,0,0,3.1-1.2,4.4,4.4,0,0,0,1.3-3.1l-.7-112A4.2,4.2,0,0,0,1021,336.8Z" style="fill:#88a2ba;opacity:0.754545"/><path d="M1021.6,342.6a4.1,4.1,0,0,0-1.9-.5,3.5,3.5,0,0,0-2.5,1,3.3,3.3,0,0,0-1,2.5l.7,100.9a3.3,3.3,0,0,0,1.7,3,3,3,0,0,0,1.9.5,2.8,2.8,0,0,0,2.4-1,3.3,3.3,0,0,0,1.1-2.5l-.7-100.9A4,4,0,0,0,1021.6,342.6Z" style="fill:#97b0c9;opacity:0.836364"/><path d="M1022.1,348.4a2.3,2.3,0,0,0-1.4-.4,2.8,2.8,0,0,0-2,.8,2.7,2.7,0,0,0-.8,1.9l.8,89.9a2.9,2.9,0,0,0,1.3,2.4,3.3,3.3,0,0,0,1.5.4,2.7,2.7,0,0,0,2.7-2.7l-.8-90A2.8,2.8,0,0,0,1022.1,348.4Z" style="fill:#a5bfd7;opacity:0.9181819999999999"/><path d="M1022.6,354.2a1.7,1.7,0,0,0-1-.3,2,2,0,0,0-1.4.6,2.1,2.1,0,0,0-.5,1.3l.8,78.9a2,2,0,0,0,.9,1.7,2,2,0,0,0,1.1.3,2.1,2.1,0,0,0,1.9-1.9l-.8-78.9A2.1,2.1,0,0,0,1022.6,354.2Z" style="fill:#b3cde6"/><path d="M100.1,302s14.1,90.6,0,185.9c0,0-52.1-9-52.1-93S100.1,302,100.1,302Z" style="fill:#fff"/><path d="M97.7,480.4a56.7,56.7,0,0,1-22.4-13.8c-16-15.7-24.1-39.8-24.1-71.7,0-52.1,22.4-73.1,36.9-81.3,5.3-3,10.7,4.1,11.7,15.2C102.9,360.8,106.1,419.6,97.7,480.4Z" style="fill:#b9d1e8"/><path d="M88.7,313.3c5-2.8,10.1,3.9,11.1,14.5a24.6,24.6,0,0,1,.2,2.8c2.8,31,5.4,85.1-2.2,141.2-4.1.1-13.1-2.5-21.8-11.2l-.2-.2C60.6,445.2,52.9,421.9,53,391.3,53.1,341.2,74.6,321.1,88.7,313.3Z" style="fill:#bfd5ea"/><path d="M89.2,313c4.7-2.6,9.5,3.7,10.5,13.7l.3,2.7c2.5,29.5,4.9,80.7-2.2,133.9-3.8,1.4-12.6-.2-21.1-8.7a.3.3,0,0,1-.1-.2c-14.7-14.8-22-37.2-21.9-66.6C54.9,339.6,75.6,320.4,89.2,313Z" style="fill:#c6d9ec"/><path d="M89.7,312.7c4.5-2.4,9,3.5,10,12.9a22.8,22.8,0,0,0,.2,2.6c2.4,28,4.6,76.2-2,126.5-3.5,2.9-12.2,2.3-20.4-6.1h-.2c-14-14.4-21-36-20.9-64.3C56.7,338,76.6,319.8,89.7,312.7Z" style="fill:#ccdeee"/><path d="M90.2,312.4c4.2-2.2,8.5,3.4,9.4,12.2a19.4,19.4,0,0,1,.2,2.4c2.2,26.4,4.2,71.7-1.9,119.1-3.2,4.3-11.8,4.7-19.7-3.4v-.2c-13.5-14-20.2-34.8-19.9-61.8C58.5,336.4,77.6,319.1,90.2,312.4Z" style="fill:#d2e2f0"/><path d="M90.7,312.1c4-2,8,3.2,8.8,11.4a16.4,16.4,0,0,1,.2,2.3c2.1,24.9,3.8,67.2-1.7,111.7-3,5.7-11.4,7.2-19-.8l-.2-.2C66,423,59.6,403,59.9,377.1,60.4,334.8,78.7,318.4,90.7,312.1Z" style="fill:#d9e6f2"/><path d="M91.3,311.9c3.7-1.9,7.3,2.9,8.2,10.5a16.4,16.4,0,0,0,.2,2.2c1.8,23.4,3.4,62.8-1.7,104.4-2.6,7.1-10.9,9.5-18.3,1.7l-.2-.2c-12.2-13-18.2-32.2-17.9-57C62.2,333.2,79.7,317.8,91.3,311.9Z" style="fill:#dfeaf5"/><path d="M91.8,311.6c3.4-1.7,6.8,2.7,7.6,9.7.1.7.1,1.4.2,2.1,1.6,21.8,3,58.3-1.5,97-2.4,8.5-10.5,12-17.6,4.3h-.2c-11.7-12.7-17.4-31-17-54.6C64,331.6,80.7,317.1,91.8,311.6Z" style="fill:#e6eef7"/><path d="M92.3,311.3c3.2-1.5,6.3,2.5,7,9a11.1,11.1,0,0,1,.2,1.9c1.5,20.3,2.7,53.8-1.4,89.6-2.1,9.9-10.1,14.4-16.9,7l-.2-.2c-11-12.2-16.4-29.7-15.9-52.2C65.8,330,81.7,316.4,92.3,311.3Z" style="fill:#ecf2f9"/><path d="M92.8,311c2.9-1.4,5.8,2.4,6.5,8.2.1.6.1,1.2.2,1.8,1.2,18.8,2.2,49.4-1.3,82.3-1.9,11.3-9.7,16.8-16.3,9.5,0-.1-.1-.1-.1-.2-10.5-11.7-15.5-28.5-15-49.8C67.6,328.4,82.7,315.7,92.8,311Z" style="fill:#f2f7fb"/><path d="M93.4,310.7c2.6-1.2,5.1,2.2,5.8,7.4.1.6.1,1.1.2,1.7a473.1,473.1,0,0,1-1.2,74.9C96.7,407.4,89,414,82.7,406.8c-.1,0-.1-.1-.2-.2-9.8-11.3-14.6-27.2-14-47.3C69.5,326.9,83.7,315,93.4,310.7Z" style="fill:#f9fbfd"/><path d="M98.3,386.1c-1.3,14.1-8.9,21.7-14.9,14.7h-.1c-9.3-10.9-13.7-26-13-45,1-30.4,14.4-41.4,23.6-45.3,2.6-1.1,5.1,2.7,5.4,8.2A463.2,463.2,0,0,1,98.3,386.1Z" style="fill:#fff"/><path d="M86.7,499.5l.2-200.2a18.5,18.5,0,1,1,36.9,0l-.2,200.3a18.5,18.5,0,1,1-36.9-.1Z" style="fill:#172f45"/><path d="M99.7,290.3a10.1,10.1,0,0,1,5.6-1.6,10.8,10.8,0,0,1,7.6,3.1,10.6,10.6,0,0,1,3.1,7.5l-.2,200.2a10.7,10.7,0,0,1-18.2,7.6,10.8,10.8,0,0,1-3.1-7.6l.2-200.2A10.5,10.5,0,0,1,99.7,290.3Z" style="fill:#172f45;opacity:0.1"/><path d="M99.2,296.1a9.3,9.3,0,0,1,5.2-1.5,9.9,9.9,0,0,1,9.8,9.9L114,493.7a9.8,9.8,0,0,1-4.7,8.3,9.3,9.3,0,0,1-5.2,1.5,9.8,9.8,0,0,1-7-2.9,10,10,0,0,1-2.8-7l.2-189.2A9.8,9.8,0,0,1,99.2,296.1Z" style="fill:#253d54;opacity:0.18181799999999998"/><path d="M98.6,301.9a9.2,9.2,0,0,1,4.8-1.4,8.9,8.9,0,0,1,6.4,2.7,9.1,9.1,0,0,1,2.7,6.4l-.3,178.2a9.1,9.1,0,0,1-4.3,7.7,9.8,9.8,0,0,1-4.8,1.3,9,9,0,0,1-6.4-2.6,9.3,9.3,0,0,1-2.7-6.4l.4-178.2A9.1,9.1,0,0,1,98.6,301.9Z" style="fill:#334c62;opacity:0.263636"/><path d="M98.1,307.7a8.3,8.3,0,0,1,4.4-1.2,7.8,7.8,0,0,1,5.8,2.4,7.5,7.5,0,0,1,2.4,5.8l-.3,167.2a8.4,8.4,0,0,1-3.9,7,8.6,8.6,0,0,1-4.4,1.2,8.2,8.2,0,0,1-5.9-2.4,8.4,8.4,0,0,1-2.4-5.8l.4-167.2A8.4,8.4,0,0,1,98.1,307.7Z" style="fill:#425a71;opacity:0.345455"/><path d="M97.6,313.5a7.7,7.7,0,0,1,3.9-1.1,7.5,7.5,0,0,1,7.5,7.5L108.6,476a7.3,7.3,0,0,1-3.6,6.3,6.7,6.7,0,0,1-3.9,1.2,7.5,7.5,0,0,1-7.5-7.5L94,319.9A7.6,7.6,0,0,1,97.6,313.5Z" style="fill:#506880;opacity:0.42727299999999996"/><path d="M97.1,319.3a6.8,6.8,0,0,1,3.5-1,6.8,6.8,0,0,1,6.7,6.7l-.5,145.1a6.8,6.8,0,0,1-3.2,5.7,7.1,7.1,0,0,1-3.5,1,6.7,6.7,0,0,1-4.8-2,6.7,6.7,0,0,1-1.9-4.7L93.9,325A6.8,6.8,0,0,1,97.1,319.3Z" style="fill:#5e778e;opacity:0.509091"/><path d="M96.5,325.1a6.8,6.8,0,0,1,3.1-.8,5.9,5.9,0,0,1,4.2,1.7,5.8,5.8,0,0,1,1.7,4.1L105,464.2a6.1,6.1,0,0,1-2.8,5,5.6,5.6,0,0,1-3.1.9,5.8,5.8,0,0,1-5.9-5.9l.5-134A6.1,6.1,0,0,1,96.5,325.1Z" style="fill:#6c859d;opacity:0.590909"/><path d="M96,331a5,5,0,0,1,2.7-.8,4.9,4.9,0,0,1,3.6,1.5,4.8,4.8,0,0,1,1.5,3.6l-.6,123a5,5,0,0,1-2.4,4.3,5.3,5.3,0,0,1-2.7.8,5.1,5.1,0,0,1-5.1-5.1l.6-123A5,5,0,0,1,96,331Z" style="fill:#7a94ab;opacity:0.672727"/><path d="M95.5,336.8a4.1,4.1,0,0,1,2.2-.7,4.4,4.4,0,0,1,3.1,1.3,4.3,4.3,0,0,1,1.3,3l-.7,112a4.4,4.4,0,0,1-2.1,3.7,4,4,0,0,1-2.2.6,4.1,4.1,0,0,1-4.3-4.3l.6-112A4.2,4.2,0,0,1,95.5,336.8Z" style="fill:#88a2ba;opacity:0.754545"/><path d="M94.9,342.6a4.1,4.1,0,0,1,1.9-.5,3.4,3.4,0,0,1,3.5,3.5l-.7,100.9a3.3,3.3,0,0,1-1.7,3,3.6,3.6,0,0,1-4.3-.5,3.3,3.3,0,0,1-1.1-2.5l.8-100.9A3.7,3.7,0,0,1,94.9,342.6Z" style="fill:#97b0c9;opacity:0.836364"/><path d="M94.4,348.4a2.4,2.4,0,0,1,1.5-.4,2.7,2.7,0,0,1,2.7,2.7l-.8,89.9a2.9,2.9,0,0,1-1.3,2.4,3.3,3.3,0,0,1-1.5.4,2.7,2.7,0,0,1-2.7-2.7l.8-90A2.8,2.8,0,0,1,94.4,348.4Z" style="fill:#a5bfd7;opacity:0.9181819999999999"/><path d="M93.9,354.2a1.7,1.7,0,0,1,1-.3,2,2,0,0,1,1.4.6,1.7,1.7,0,0,1,.5,1.3L96,434.7a2,2,0,0,1-.9,1.7,2,2,0,0,1-1.1.3,2.1,2.1,0,0,1-1.9-1.9l.8-78.9A2.1,2.1,0,0,1,93.9,354.2Z" style="fill:#b3cde6"/><rect x="116.3" width="886" height="759" rx="271.8" style="fill:#fff"/><rect x="130.3" y="17" width="857" height="726" rx="245.7" style="fill:#b3cde6"/><path d="M986.3,487.2C986.3,622.8,875.9,733,740.2,733H376.9c-135.7,0-246.6-110.2-246.6-245.8V264.7C130.3,127.6,242.4,17,379.5,17H737.6c137.1,0,248.7,110.6,248.7,247.7Z" style="fill:#bad2e8"/><path d="M984.3,477.3C984.3,613,875,723,739.3,723H378.4c-135.7,0-246.1-110-246.1-245.7v-210C132.3,128.8,245,17,383.5,17H734.2A249.8,249.8,0,0,1,984.3,267.3Z" style="fill:#c1d6eb"/><path d="M984.3,467.5C984.3,603.2,874.1,714,738.4,714H379.9c-135.7,0-247.6-110.8-247.6-246.5V269.8C132.3,129.9,247.6,17,387.6,17H730.7c140,0,253.6,112.9,253.6,252.8Z" style="fill:#c8dbed"/><path d="M984.3,457.7C984.3,593.4,873.2,704,737.5,704H381.4c-135.7,0-245.1-110.6-245.1-246.3V272.4A255,255,0,0,1,391.6,17H727.3c141.3,0,257,114.1,257,255.4Z" style="fill:#cfdfef"/><path d="M984.3,447.9c0,135.7-112,246.1-247.7,246.1H382.9c-135.7,0-246.6-110.4-246.6-246.1v-173C136.3,132.2,252.9,17,395.6,17H723.8c142.8,0,260.5,115.2,260.5,257.9Z" style="fill:#d6e4f1"/><path d="M980.3,438.1C980.3,573.8,871.4,684,735.7,684H384.4c-135.7,0-245.1-110.2-245.1-245.9V277.5A260,260,0,0,1,399.7,17H720.4c144.1,0,259.9,116.3,259.9,260.5Z" style="fill:#dce8f4"/><path d="M980.3,428.3C980.3,564,870.5,674,734.8,674h-349c-135.6,0-246.5-110-246.5-245.7V280.1C139.3,134.5,258.2,17,403.7,17H716.9c145.6,0,263.4,117.5,263.4,263.1Z" style="fill:#e3edf6"/><path d="M980.3,418.5C980.3,554.1,869.6,664,733.9,664H387.3c-135.7,0-245-109.9-245-245.5V282.6A265.1,265.1,0,0,1,407.8,17H713.5c147,0,266.8,118.6,266.8,265.6Z" style="fill:#eaf1f8"/><path d="M980.3,408.6C980.3,544.3,868.7,654,733,654H388.8c-135.7,0-246.5-109.7-246.5-245.4V285.2C142.3,136.8,263.4,17,411.8,17H710c148.4,0,270.3,119.8,270.3,268.2Z" style="fill:#f1f6fa"/><path d="M977.3,398.8A244.8,244.8,0,0,1,732.2,644H390.3c-135.7,0-244-109.5-244-245.2V287.7C146.3,137.9,266.1,17,415.9,17H706.6A270.3,270.3,0,0,1,977.3,287.7Z" style="fill:#f8fafd"/><path d="M703.2,17H419.9C268.7,17,146.3,139.1,146.3,290.3V389c0,135.7,109.8,246,245.5,246H731.3c135.7,0,246-110.3,246-246V290.3C977.3,139.1,854.4,17,703.2,17Z" style="fill:#fff"/><path d="M198.4,373.3c-34.3,0-56.8,6.1-71.4,12.8-4.4,2-6.7,4.1-10.7,6.1v31.9a13,13,0,0,0,10.4-5.1h-.2c.3,0,4.1-4.5,14.9-9s28.8-8.9,57.1-8.9a13.9,13.9,0,1,0-.1-27.8Z" style="fill:#172f45"/><path d="M1003.3,389.5c-2-1.1-4.4-2.3-6.8-3.4-14.7-6.7-37.5-12.8-71.9-12.8a13.9,13.9,0,1,0,0,27.8c28.3,0,46.2,4.5,57,8.9s15,9,15,9h.1a17,17,0,0,0,6.6,4.4Z" style="fill:#172f45"/><rect x="198.3" y="128" width="720" height="537" rx="226.2" style="fill:#172f45"/><path d="M424.6,638c-110.3,0-200.3-89.7-200.3-200V353.8c0-110.2,90-199.8,200.3-199.8H691.9c110.3,0,200.4,89.6,200.4,199.8V438c0,110.3-90.1,200-200.4,200Z" style="opacity:0.30000000000000004;fill:url(#c)"/><g style="opacity:0.30000000000000004"><path d="M892.3,357v-3.2c0-.1-.4.2-.4.2H862.3V318h26.2c-.2,0-.4-4-.6-4H862.3V275h13.3c-.5,0-1-3-1.5-3H862.3V249.5l-3-5.1V272h-46V236h39.8c-.3,0-.5-.9-.7-1.2a8.8,8.8,0,0,0-.6-1,5.6,5.6,0,0,1-1.2-1.8H813.3V197H815c-1.1,0-2.1-2-3.1-2.8s-.4-.5-.7-.6-.9-.7-.9-.9v.3h-43V168.8c0-.5-3-.9-3-1.3V193h-43V157h6.4a25.7,25.7,0,0,1-4.7-.8h-.9c-3-.5-6.1-.8-9.2-1.2h-.7l-9-.7h-2.1c-3.1-.2-6.1-.2-9.2-.2H424.6c-3.1,0-6.1,0-9.2.2h-2.1l-9,.7h-.7l-9.2,1.1h-.9a25.7,25.7,0,0,1-4.7.8h6.5v36h-46V168.8c0,.2-1.4.4-2,.7l-.8.2-1.2.4V193h-39v-.3c0,.2-.7.5-1,.7s-.4.7-.7.8-2,2.8-3.1,2.8h1.8v35H265.9a5,5,0,0,1-1.2,1.7l-.5,1c-.3.3-.5,1.3-.8,1.3h39.9v36h-43V239.6c0,.6-.7,1.2-1.1,1.7s-.6,1-1,1.5.1,1.1-.9,1.6V272H242.4c-.5,0-1,3-1.5,3h16.4v39H228.6c-.2,0-.4,4-.6,4h29.3v36H224.6s-.3-.3-.3-.2V357h33v36h-33v3h33v39h-33v3c0,.1.3,1,.3,1h32.7v36H228c.2,0,.4,3,.6,3h28.7v36H239.5c.3,0,.5,1,.7,1.6l.3.5c.1.3.3.9.4.9h16.4v30.4c1,.5.7,1.1,1,1.6a11.9,11.9,0,0,0,.9,1.5c.4.6,1.1,1.1,1.1,1.7V517h43v40H263.4c.3,0,.5.3.8.6a2.2,2.2,0,0,0,.5.8c.4.5.8,1.6,1.2,1.6h37.4v32h-5.9c.1.1.1.4.2.5s2.6,2.4,3.9,3.4h1.8v.7c0,.4.9.8,1.4,1.2l.6.5c.3.3,1,.5,1,.8V596h39v25.7l1.1.4.8.3c.6.2,2.1.4,2.1.7V596h46v39h-6.5a14.5,14.5,0,0,1,2.9.4l3.9.5,5.8.7,3.8.4,6.4.5,3.2.2c3.3.2,6.5.3,9.8.3H691.9c3.3,0,6.6-.1,9.8-.3l3.2-.2,6.5-.5,3.7-.4,5.8-.8,3.9-.4a14.5,14.5,0,0,1,2.9-.4h-6.4V596h43v28.3c0-.4,3-.8,3-1.2V596h43v3.2c0-.3.6-.5.9-.8s.4-.3.6-.5.5-.8,1.5-1.2V596H815c1.3-1,2.6-2.3,3.9-3.4s.1-.3.2-.3V592h-5.8V560h37.3c.4,0,.8-1.3,1.2-1.8s.4-.2.5-.4.5-.8.8-.8H813.3V517h46v30.4l3-5.1V517h13.3c.2,0,.3-.6.4-.9l.3-.5c.2-.6.4-1.6.7-1.6H862.3V478h25.6c.2,0,.4-3,.6-3H862.3V439h29.6a10.4,10.4,0,0,0,.4-1v-3h-30V396h30v-3h-30V357Zm-589,157h-43V478h43Zm0-39h-43V439h43Zm0-40h-43V396h43Zm0-42h-43V357h43Zm0-39h-43V318h43Zm0-40h-43V275h43Zm42,278h-39V560h39Zm0-35h-39V517h39Zm0-43h-39V478h39Zm0-39h-39V439h39Zm0-40h-39V396h39Zm0-42h-39V357h39Zm0-39h-39V318h39Zm0-40h-39V275h39Zm0-42h-39V236h39Zm0-40h-39V197h39Zm328-75h45v36h-45Zm0,40h45v35h-45Zm0,39h45v36h-45Zm0,39h45v39h-45Zm0,43h45v36h-45Zm0,39h45v36h-45Zm0,39h45v39h-45Zm0,43h45v36h-45Zm0,39h45v36h-45Zm0,39h45v40h-45Zm0,43h45v32h-45Zm-43-403h39v36h-39Zm0,40h39v35h-39Zm0,39h39v36h-39Zm0,39h39v39h-39Zm0,43h39v36h-39Zm0,39h39v36h-39Zm0,39h39v39h-39Zm0,43h39v36h-39Zm0,39h39v36h-39Zm0,39h39v40h-39Zm0,43h39v32h-39Zm-46-403h43v36h-43Zm0,40h43v35h-43Zm0,39h43v36h-43Zm0,39h43v39h-43Zm0,43h43v36h-43Zm0,39h43v36h-43Zm0,39h43v39h-43Zm0,43h43v36h-43Zm0,39h43v36h-43Zm0,39h43v40h-43Zm0,43h43v32h-43Zm-49-403h46v36h-46Zm0,40h46v35h-46Zm0,39h46v36h-46Zm0,39h46v39h-46Zm0,43h46v36h-46Zm0,39h46v36h-46Zm0,39h46v39h-46Zm0,43h46v36h-46Zm0,39h46v36h-46Zm0,39h46v40h-46Zm0,43h46v32h-46Zm-46-403h43v36h-43Zm0,40h43v35h-43Zm0,39h43v36h-43Zm0,39h43v39h-43Zm0,43h43v36h-43Zm0,39h43v36h-43Zm0,39h43v39h-43Zm0,43h43v36h-43Zm0,39h43v36h-43Zm0,39h43v40h-43Zm0,43h43v32h-43Zm-46-403h43v36h-43Zm0,40h43v35h-43Zm0,39h43v36h-43Zm0,39h43v39h-43Zm0,43h43v36h-43Zm0,39h43v36h-43Zm0,39h43v39h-43Zm0,43h43v36h-43Zm0,39h43v36h-43Zm0,39h43v40h-43Zm0,43h43v32h-43Zm-45-403h42v36h-42Zm0,40h42v35h-42Zm0,39h42v36h-42Zm0,39h42v39h-42Zm0,43h42v36h-42Zm0,39h42v36h-42Zm0,39h42v39h-42Zm0,43h42v36h-42Zm0,39h42v36h-42Zm0,39h42v40h-42Zm0,43h42v32h-42Zm-49-363h46v35h-46Zm0,39h46v36h-46Zm0,39h46v39h-46Zm0,43h46v36h-46Zm0,39h46v36h-46Zm0,39h46v39h-46Zm0,43h46v36h-46Zm0,39h46v36h-46Zm0,39h46v40h-46Zm0,75V560h46v32Zm49,43V596h42v39Zm45,0V596h43v39Zm46,0V596h43v39Zm46,0V596h46v39Zm49,0V596h43v39Zm46,0V596h39v39Zm43,0V596h45v39Zm91-43h-43V560h43Zm0-35h-43V517h43Zm0-43h-43V478h43Zm0-39h-43V439h43Zm0-40h-43V396h43Zm0-42h-43V357h43Zm0-39h-43V318h43Zm0-40h-43V275h43Zm0-42h-43V236h43Zm0-40h-43V197h43Zm46,360h-43V560h43Zm0-35h-43V517h43Zm0-43h-43V478h43Zm0-39h-43V439h43Zm0-40h-43V396h43Zm0-42h-43V357h43Zm0-39h-43V318h43Zm0-40h-43V275h43Zm0-42h-43V236h43Zm0-40h-43V197h43Zm49,282h-46V478h46Zm0-39h-46V439h46Zm0-40h-46V396h46Zm0-42h-46V357h46Zm0-39h-46V318h46Zm0-40h-46V275h46Z" style="fill:url(#d)"/></g><path d="M413.3,465c0,173,289.9,186,289.9,0Z" style="fill:#172f45;opacity:0.2"/><path d="M412.6,465c0,170,291.3,183,291.3,0Z" style="fill:#172f45;opacity:0.263636"/><path d="M411.9,461c0,167,292.7,181,292.7,0Z" style="fill:#172f45;opacity:0.327273"/><path d="M411.2,461c0,164,294.1,177,294.1,0Z" style="fill:#172f45;opacity:0.390909"/><path d="M410.5,458c0,164,295.5,174,295.5,0Z" style="fill:#172f45;opacity:0.454545"/><path d="M409.8,458c0,157,296.9,170,296.9,0Z" style="fill:#172f45;opacity:0.518182"/><path d="M409.2,455c0,157,298.1,167,298.1,0Z" style="fill:#172f45;opacity:0.581818"/><path d="M408.5,455c0,151,299.5,163,299.5,0Z" style="fill:#172f45;opacity:0.645455"/><path d="M407.8,451c0,151,300.9,161,300.9,0Z" style="fill:#172f45;opacity:0.7090909999999999"/><path d="M407.1,451c0,148,302.3,158,302.3,0Z" style="fill:#172f45;opacity:0.7727269999999999"/><path d="M406.4,449c0,143,303.7,153,303.7,0Z" style="fill:#172f45;opacity:0.836364"/><path d="M405.7,449c0,140,305.1,150,305.1,0Z" style="fill:#172f45;opacity:0.9"/><path d="M404.5,435c0,141,307.5,151,307.5,0Z" style="fill:#3ccbff"/><ellipse cx="751.2" cy="339.6" rx="74.4" ry="83.3" style="fill:#172f45;opacity:0.4"/><ellipse cx="751.2" cy="337.6" rx="74.4" ry="82" style="fill:#172f45;opacity:0.471429"/><ellipse cx="751.2" cy="335.6" rx="74.4" ry="80.7" style="fill:#172f45;opacity:0.5428569999999999"/><ellipse cx="751.2" cy="333.6" rx="74.4" ry="79.5" style="fill:#172f45;opacity:0.614286"/><ellipse cx="751.2" cy="331.6" rx="74.4" ry="78.2" style="fill:#172f45;opacity:0.6857139999999999"/><ellipse cx="751.2" cy="329.6" rx="74.4" ry="76.9" style="fill:#172f45;opacity:0.757143"/><ellipse cx="751.2" cy="327.6" rx="74.4" ry="75.7" style="fill:#172f45;opacity:0.828571"/><circle cx="751.2" cy="325.6" r="74.4" style="fill:#172f45;opacity:0.9"/><circle cx="751.2" cy="312.5" r="73.6" transform="translate(-51.7 181) rotate(-13.3)" style="fill:#3ccbff"/><circle cx="751.2" cy="312.5" r="70.3" style="fill:#fff;opacity:0"/><circle cx="751.2" cy="313.9" r="68.9" style="fill:#e3f8ff;opacity:0.14285699999999998"/><circle cx="751.2" cy="315.3" r="67.5" transform="translate(-2.9 623.6) rotate(-45)" style="fill:#c7f0ff;opacity:0.28571399999999997"/><circle cx="751.2" cy="316.7" r="66.1" style="fill:#abe9ff;opacity:0.428571"/><circle cx="751.2" cy="318.1" r="64.7" style="fill:#90e1ff;opacity:0.571429"/><circle cx="751.2" cy="319.5" r="63.3" transform="translate(-5.9 624.8) rotate(-45)" style="fill:#74daff;opacity:0.714286"/><circle cx="751.2" cy="320.9" r="61.9" style="fill:#58d2ff;opacity:0.857143"/><circle cx="751.2" cy="322.3" r="60.5" style="fill:#3ccbff"/><ellipse cx="371.8" cy="339.6" rx="74.4" ry="83.3" style="fill:#172f45;opacity:0.4"/><ellipse cx="371.8" cy="337.6" rx="74.4" ry="82" style="fill:#172f45;opacity:0.471429"/><ellipse cx="371.8" cy="335.6" rx="74.4" ry="80.7" style="fill:#172f45;opacity:0.5428569999999999"/><ellipse cx="371.8" cy="333.6" rx="74.4" ry="79.5" style="fill:#172f45;opacity:0.614286"/><ellipse cx="371.8" cy="331.6" rx="74.4" ry="78.2" style="fill:#172f45;opacity:0.6857139999999999"/><ellipse cx="371.8" cy="329.6" rx="74.4" ry="76.9" style="fill:#172f45;opacity:0.757143"/><ellipse cx="371.8" cy="327.6" rx="74.4" ry="75.7" style="fill:#172f45;opacity:0.828571"/><circle cx="371.8" cy="325.6" r="74.4" style="fill:#172f45;opacity:0.9"/><circle cx="371.8" cy="312.5" r="73.6" transform="translate(-112.1 354.4) rotate(-45)" style="fill:#3ccbff"/><circle cx="371.8" cy="312.5" r="70.3" style="fill:#fff;opacity:0"/><circle cx="371.8" cy="313.9" r="68.9" style="fill:#e3f8ff;opacity:0.14285699999999998"/><circle cx="371.8" cy="315.3" r="67.5" transform="translate(-20.5 604.7) rotate(-76.7)" style="fill:#c7f0ff;opacity:0.28571399999999997"/><circle cx="371.8" cy="316.7" r="66.1" style="fill:#abe9ff;opacity:0.428571"/><circle cx="371.8" cy="318.1" r="64.7" style="fill:#90e1ff;opacity:0.571429"/><circle cx="371.8" cy="319.5" r="63.3" transform="translate(-24.6 608) rotate(-76.7)" style="fill:#74daff;opacity:0.714286"/><circle cx="371.8" cy="320.9" r="61.9" style="fill:#58d2ff;opacity:0.857143"/><circle cx="371.8" cy="322.3" r="60.5" style="fill:#3ccbff"/><circle cx="558.3" cy="57.4" r="40.9" style="fill:#172f45"/><circle cx="558.3" cy="57.4" r="27.8" style="opacity:0.30000000000000004;fill:url(#e)"/><circle cx="558.3" cy="57.4" r="14.7" style="opacity:0.30000000000000004;fill:url(#f)"/><path d="M552.1,57.4a5.8,5.8,0,0,1,5.9-5.9,5.9,5.9,0,0,1,5.9,5.9,6,6,0,0,1-5.9,5.9A5.9,5.9,0,0,1,552.1,57.4Z" style="fill:#fff;opacity:0.2"/></svg>