<svg xmlns="http://www.w3.org/2000/svg" xmlns:xlink="http://www.w3.org/1999/xlink" viewBox="0 0 949.4 1057.6"><defs><clipPath id="f5f36d57-4cf0-42c6-879e-3583ddaf8ab6" transform="translate(-136.8 -45.7)"><polygon points="586.1 1031.2 579.3 846.1 776.6 846.1 769.9 1031.2 586.1 1031.2" style="fill:none"/></clipPath></defs><title>robot-hero-vector</title><g id="abfcebf5-9cf5-4941-80e5-295a4f6d9a3f" data-name="Robot"><g id="b7a82db6-e329-4c55-814f-aacd2430d5d2" data-name="Arm"><line x1="195" y1="494.7" x2="358.6" y2="658.3" style="fill:#172f45"/><rect x="383.6" y="506.5" width="60" height="231.4" transform="translate(-455.6 429) rotate(-45)" style="fill:#172f45"/></g><circle id="bf161e8c-4f20-4288-9f20-f86f494e5ba2" data-name="Wrist Joint" cx="105.1" cy="279.8" r="35.5" style="fill:#d1d3d4"/><g id="b2648e94-0dcf-4f56-879c-4e9faa01b3b9" data-name="Hand"><path id="f2c32155-5afc-4e7e-9672-b5a1dd77d461" data-name="Thumb Finger" d="M292.2,221.9c-8.6,8.7-17.1,17.2-25.5,25.8l1,4.2,2.3,9.9,4.6,19.9.8.7,36.8-43.5A63.2,63.2,0,0,0,292.2,221.9Z" transform="translate(-136.8 -45.7)" style="fill:#d1d3d4"/><path id="ba602f72-d477-4b33-80c2-6692332ad46a" data-name="Pinky Finger" d="M190.3,242.5q-15-24-30.2-48.4a62.7,62.7,0,0,0-23.3,12.2l25.6,49.2C171.5,250.7,180.8,246.4,190.3,242.5Z" transform="translate(-136.8 -45.7)" style="fill:#d1d3d4"/><path id="ad832f83-f93a-4c8c-97ee-9fdeb46d9d5d" data-name="Index Finger" d="M251.2,167.7a62.6,62.6,0,0,0-25.9,4.4q2.7,28.7,5.3,56.8c9.9-2.6,19.9-4.8,30-6.5" transform="translate(-136.8 -45.7)" style="fill:#d1d3d4"/><path id="b8eaef19-63ba-40e1-b0e7-8862f1943a3f" data-name="Middle Finger" d="M211.7,234.5l13-4.4q-10-26.2-20.2-53.1a65.1,65.1,0,0,0-25,8.5l16,54.5,13-4.4Z" transform="translate(-136.8 -45.7)" style="fill:#d1d3d4"/><path id="b9f97d42-e7dc-4309-ba10-3c9a27e203c2" data-name="Palm" d="M262.4,229.5a331.8,331.8,0,0,0-97.3,32.8q15.8,34.9,32.1,71.9a327.1,327.1,0,0,0,83.3-28c-3.6-15.1-7.1-29.9-10.5-44.5l-2.4-9.9C265.9,244.3,264.1,236.9,262.4,229.5Z" transform="translate(-136.8 -45.7)" style="fill:#eeeff1"/></g><g id="bb1f8336-bbc4-498b-88e7-381064638881" data-name="Forearm"><path d="M247.1,339.7q36.2,98.4,72.4,196.9" transform="translate(-136.8 -45.7)" style="fill:#172f45"/><path d="M291.3,547q-35.4-96.3-70.7-192.5a97.8,97.8,0,0,1,56.2-20.9q35.6,96.4,70.8,192.7Z" transform="translate(-136.8 -45.7)" style="fill:#172f45"/></g><circle id="f866b3b9-6b53-45d3-81cd-ceb7e977e29f" data-name="Arm Joint" cx="180.3" cy="472" r="41.7" style="fill:#d1d3d4"/><g id="e20d8b6a-7c91-4709-9aaa-e3ebbd57cbbe" data-name="Shoulder Joints"><path d="M449,685.5a52,52,0,0,0,36.8,63.6l26.8-100.3A51.9,51.9,0,0,0,449,685.5Z" transform="translate(-136.8 -45.7)" style="fill:#d1d3d4"/><path d="M882.7,747.9,855.8,848.2a51.9,51.9,0,1,0,26.9-100.3Z" transform="translate(-136.8 -45.7)" style="fill:#d1d3d4"/></g><rect id="a98cd86b-8a72-45f2-be10-5e0c5de79de4" data-name="Neck" x="642.9" y="633.5" width="127.8" height="62.07" transform="translate(59.3 -205.9) rotate(15)" style="fill:#1a3a57"/><g id="a78513e0-cc18-40c6-878e-285146f2924e" data-name="Body"><path d="M799.9,1077c-126.6-34.4-253.4-70.2-380-101.8,27.7-103.8,55.3-209.1,83-315,4.8-18.6,23.5-30.4,41.6-26.1,104.8,24.7,209.7,55.7,314.4,89.8,18.1,5.9,28.9,25.3,24,43.1C855.3,868.8,827.6,972.4,799.9,1077Z" transform="translate(-136.8 -45.7)" style="fill:#eeeff1"/></g><path id="eb415fc2-b159-42d3-b9a6-16c476f933b8" data-name="Head" d="M921.1,696.2A2617.4,2617.4,0,0,1,505.4,584.8c-37.5-13.7-59.3-56.8-49.1-95l65.4-244c10.3-38.1,50.6-64.6,90-57.7a2623.1,2623.1,0,0,1,415.7,111.4c37.5,13.7,59.2,56.8,49,94.9L1011,638.5C1000.8,676.6,960.4,703,921.1,696.2Z" transform="translate(-136.8 -45.7)" style="fill:#eeeff1"/><path id="b405d1e4-7e3f-4709-8eda-78d99d9b2488" data-name="Screen" d="M868.8,634.2a2007.3,2007.3,0,0,1-287.2-76.9c-37.5-13.4-59.3-56.6-49.1-94.6l41.6-155.3c10.2-38,50.6-64.5,89.9-57.4a2023.1,2023.1,0,0,1,287.1,77c37.6,13.4,59.3,56.6,49.1,94.6q-20.7,77.7-41.6,155.2C948.4,614.9,908,641.4,868.8,634.2Z" transform="translate(-136.8 -45.7)" style="fill:#172f45"/><g id="e6740100-dddf-4d95-8257-077d5645ce92" data-name="Face"><circle cx="878.3" cy="451.4" r="39.5" transform="translate(78.2 1137.3) rotate(-75)" style="fill:#2489d3"/><circle cx="664.8" cy="394.2" r="39.5" transform="translate(-24.8 888.7) rotate(-75)" style="fill:#2489d3"/><path d="M735.5,557.3c36.1,9.6,75.2-19.2,87.3-64.5l-130.7-35C680,503,699.4,547.6,735.5,557.3Z" transform="translate(-136.8 -45.7)" style="fill:#2489d3"/></g><g id="ebfacb74-6e22-4da7-bea7-1cb3ddd54638" data-name="Ears"><path d="M1081.8,526.7c7.6-28.4,4.9-54.1-5.7-59.5l-29,108.1C1059.1,575.9,1074.2,555,1081.8,526.7Z" transform="translate(-136.8 -45.7)" style="fill:#eeeff1"/><path d="M1076.1,467l.6-2.2c2.6-9.8-.9-19.2-7.8-21.1l-5.3-1.4-39.8,148.3,5.3,1.4c7,1.9,14.7-4.5,17.4-14.3l.5-2.2v-.2l29-108.1Z" transform="translate(-136.8 -45.7)" style="fill:#172f45"/><path d="M450.9,357.6c-7.6,28.4-4.9,54,5.8,59.5L485.6,309C473.7,308.4,458.5,329.2,450.9,357.6Z" transform="translate(-136.8 -45.7)" style="fill:#eeeff1"/><path d="M486.3,306.6l-.6,2.2v.2L456.7,417.1v.2l-.6,2.2c-2.6,9.8.9,19.2,7.9,21l5.3,1.5,39.7-148.3-5.3-1.4C496.7,290.4,488.9,296.8,486.3,306.6Z" transform="translate(-136.8 -45.7)" style="fill:#172f45"/></g><g id="e1d4728b-830a-4c35-bd38-d54cd4b7d4dc" data-name="Antenna"><rect x="806.5" y="126.2" width="84.9" height="16" transform="matrix(0.26, -0.97, 0.97, 0.26, 362.78, 873.75)" style="fill:#eeeff1"/><path d="M839.2,170.2c-43.6-11.7-86.8,8.2-96.5,44.4l157.9,42.2C910.3,220.7,882.8,181.9,839.2,170.2Z" transform="translate(-136.8 -45.7)" style="fill:#d1d3d4"/><circle cx="728.7" cy="26.5" r="26.5" style="fill:#febd17"/></g></g><g id="b46b7f2d-b588-49cd-92d0-3eeeb2c821a3" data-name="Laptop"><path id="b6548686-07af-418a-bec1-c72080a1e2c0" data-name="Screen" d="M961.9,1103.3H394.1a8.8,8.8,0,0,1-8.7-8.1L360,793.5a18.1,18.1,0,0,1,17.9-20H978.1a18.1,18.1,0,0,1,17.9,20l-25.4,301.7A8.8,8.8,0,0,1,961.9,1103.3Z" transform="translate(-136.8 -45.7)" style="fill:#233847"/><g id="b0f43a87-80d1-44e8-b01e-a2f5f2d7acfe" data-name="Company Logo"><g style="isolation:isolate"><g style="clip-path:url(#f5f36d57-4cf0-42c6-879e-3583ddaf8ab6)"><path d="M678,886.1a61.4,61.4,0,0,0-22,4.1,58.2,58.2,0,0,0-18.1,11.3,55.9,55.9,0,0,0-12.4,16.6,53.4,53.4,0,0,0-5.2,20.2h13.8a14,14,0,0,1,1.6-2.6,11.9,11.9,0,0,1,2.3-2.2,13.6,13.6,0,0,1,3-1.3,8.8,8.8,0,0,1,3.3-.5h1.1l-.3-22.2h73.1l-13,17.7H664.6v8.2h39.4l1.7-1.5,2-1.1,2.2-.7,2.4-.2a8.8,8.8,0,0,1,3.3.5,11.1,11.1,0,0,1,2.9,1.3,10,10,0,0,1,2.4,2.2,9.7,9.7,0,0,1,1.5,2.6h13.2a53.4,53.4,0,0,0-5.2-20.2,55.9,55.9,0,0,0-12.4-16.6A58.2,58.2,0,0,0,700,890.2a61.4,61.4,0,0,0-22-4.1" transform="translate(-136.8 -45.7)" style="fill:#eeeff1"/><path d="M735.4,946.4H722.2a8.5,8.5,0,0,1-1.7,2.5,13.7,13.7,0,0,1-2.3,1.9,10.8,10.8,0,0,1-2.9,1.3,11.3,11.3,0,0,1-3.2.5,9.9,9.9,0,0,1-2.4-.3,12.9,12.9,0,0,1-2.1-.7l-2-1.1a10.7,10.7,0,0,1-1.6-1.4l-1,1.2H664.8v9.4h52.6L705,976.6H645.9l-.3-24.1h-1a11.3,11.3,0,0,1-3.2-.5,9.5,9.5,0,0,1-2.9-1.3,10.6,10.6,0,0,1-2.3-1.9,8.5,8.5,0,0,1-1.7-2.5H620.6a53.2,53.2,0,0,0,6,19.7,56.2,56.2,0,0,0,12.7,15.6,57.7,57.7,0,0,0,17.6,10.4,60.5,60.5,0,0,0,42.2,0,57.7,57.7,0,0,0,17.6-10.4,56.2,56.2,0,0,0,12.7-15.6,53.2,53.2,0,0,0,6-19.7" transform="translate(-136.8 -45.7)" style="fill:#eeeff1"/><path d="M644.6,946.2a4.7,4.7,0,0,1-1.7-.3,4.2,4.2,0,0,1-1.4-.9,3,3,0,0,1-.9-1.3,3.7,3.7,0,0,1-.4-1.5,4.1,4.1,0,0,1,.3-1.6,3,3,0,0,1,.9-1.3,4.2,4.2,0,0,1,1.4-.9,4.7,4.7,0,0,1,1.7-.3,4.5,4.5,0,0,1,1.6.3,4.2,4.2,0,0,1,1.4.9,3,3,0,0,1,.9,1.3,2.9,2.9,0,0,1,.4,1.6,3.7,3.7,0,0,1-.3,1.5,4.3,4.3,0,0,1-.9,1.3,4.2,4.2,0,0,1-1.4.9,4.5,4.5,0,0,1-1.6.3m-.2-12.4a10.5,10.5,0,0,0-3,.5,11.9,11.9,0,0,0-2.5,1.3,9.5,9.5,0,0,0-1.9,2.1,7.6,7.6,0,0,0-1.1,2.6H620.2v3.8H636a6.4,6.4,0,0,0,1.2,2.5,7.3,7.3,0,0,0,1.9,2,8.2,8.2,0,0,0,2.6,1.4,8.6,8.6,0,0,0,6.3-.2,8.4,8.4,0,0,0,2.8-1.8,8.1,8.1,0,0,0,1.8-2.6,8.8,8.8,0,0,0,.7-3.2,7.3,7.3,0,0,0-.8-3.3,8.3,8.3,0,0,0-1.9-2.7,8.8,8.8,0,0,0-2.8-1.7,7.7,7.7,0,0,0-3.4-.7" transform="translate(-136.8 -45.7)" style="fill:#eeeff1"/><path d="M712.6,946.2a4.7,4.7,0,0,1-1.7-.3,4.4,4.4,0,0,1-2.2-2.2,3.7,3.7,0,0,1-.4-1.5,7.5,7.5,0,0,1,.4-1.6,3,3,0,0,1,.9-1.3,4.2,4.2,0,0,1,1.4-.9,4.7,4.7,0,0,1,1.7-.3,4.1,4.1,0,0,1,1.6.3,3.4,3.4,0,0,1,1.4.9,3,3,0,0,1,.9,1.3,4.1,4.1,0,0,1,.3,1.6,3.7,3.7,0,0,1-.3,1.5,4.5,4.5,0,0,1-1,1.3,3.4,3.4,0,0,1-1.4.9,4.1,4.1,0,0,1-1.6.3m.1-12.4a8,8,0,0,0-3.4.7,10,10,0,0,0-2.8,1.7,8.3,8.3,0,0,0-1.9,2.7,7.2,7.2,0,0,0-.7,3.3,8.7,8.7,0,0,0,.6,3.2,8.3,8.3,0,0,0,1.9,2.6,7.1,7.1,0,0,0,2.7,1.8,9.8,9.8,0,0,0,3.4.7,9.9,9.9,0,0,0,3-.5,10.4,10.4,0,0,0,4.5-3.4,8,8,0,0,0,1.1-2.5h14.5v-3.9H721.2a8.5,8.5,0,0,0-3-4.7,9.9,9.9,0,0,0-2.5-1.3,9.4,9.4,0,0,0-3-.5" transform="translate(-136.8 -45.7)" style="fill:#eeeff1"/><path d="M677.9,1001.9h-.4a67.2,67.2,0,0,1-24.8-4.9,64.7,64.7,0,0,1-20.1-12.9A61.5,61.5,0,0,1,618.9,965a57.8,57.8,0,0,1-.9-46.8,63.9,63.9,0,0,1,13.3-19.8,66.5,66.5,0,0,1,20.6-13.8,67.3,67.3,0,0,1,26-5.1h1.6a66.6,66.6,0,0,1,25.6,5.6,63,63,0,0,1,20.2,14,60.8,60.8,0,0,1,12.9,20,58.8,58.8,0,0,1,4.2,23.6,57.6,57.6,0,0,1-5.6,22.9A59.4,59.4,0,0,1,723,984.4a63.2,63.2,0,0,1-20.2,12.8,67.7,67.7,0,0,1-24.9,4.7m0-155.8h-7.5l-2.5.3h-.5l-.5.2-.3.4a3.5,3.5,0,0,0-.1.6l-.9,4.2c-.2,1.5-.5,2.9-.8,4.3l-.9,4.3c-.2,1.4-.5,2.8-.8,4.2s-.1.3-.1.5l-.2.3-.4.3h-.5l-4.5,1-4.4,1.3a36.6,36.6,0,0,0-4.3,1.5l-4.2,1.7-.3.2h-1.5l-.3-.2-.4-.3-3.1-2.9-3.3-2.9-3.2-2.8-3.2-2.9-.3-.2-.2-.2h-1.3c-1.5.8-2.9,1.7-4.3,2.6l-4.1,2.8-3.9,3-3.7,3.2-.4.4c-.1.1-.1.2-.2.4a.8.8,0,0,0,.1.4,1.7,1.7,0,0,0,.2.5c.6,1.2,1.2,2.5,1.9,3.8s1.2,2.6,1.9,3.8,1.2,2.6,1.9,3.8,1.2,2.6,1.9,3.8a2.5,2.5,0,0,1,.2.7,1.1,1.1,0,0,1,.1.5c-.1.2-.1.4-.2.6l-.4.5a31.7,31.7,0,0,0-3,3.4c-1,1.2-1.9,2.3-2.8,3.6s-1.7,2.4-2.4,3.7-1.6,2.5-2.3,3.8l-.3.5-.3.3-.4.2H606l-4.3-.4-4.2-.5-4.3-.4-4.3-.5h-.8l-.3.2-.2.3c-.1.1-.1.2-.2.4s-1.2,2.9-1.7,4.3l-1.4,4.4c-.4,1.5-.8,3-1.1,4.5s-.7,2.9-1,4.4a2.5,2.5,0,0,0-.1.8.8.8,0,0,0,.2.5,1,1,0,0,0,.4.5l.6.4,3.8,1.9,3.7,1.9,3.8,2,3.7,1.9.3.2.2.3c.1.1.2.2.2.3a.4.4,0,0,1,.1.3c-.1,1.4-.2,2.9-.2,4.4a32.3,32.3,0,0,0,0,4.4,33.7,33.7,0,0,0,.3,4.4,31.8,31.8,0,0,0,.6,4.3v.5c0,.2-.1.3-.1.5l-.3.3-.5.3-3.6,2-3.6,2-3.5,2-3.6,1.9-.5.3c-.1.2-.2.3-.2.4a.6.6,0,0,0-.1.4,1.3,1.3,0,0,0,.1.6c.4,1.4.9,2.9,1.4,4.4l1.5,4.3,1.8,4.2c.6,1.4,1.3,2.8,2,4.2l.3.4c.1.1.1.2.3.3h1.2l4.1-.5,4.1-.5,4.2-.5,4.1-.5h1l.3.3.2.3c.7,1.2,1.5,2.3,2.3,3.5l2.6,3.3c.8,1.1,1.8,2.1,2.7,3.2l2.9,3a.5.5,0,0,1,.3.4.5.5,0,0,1,.2.4v.3l-.2.5-1.7,3.5c-.5,1.2-1.1,2.3-1.6,3.5l-1.7,3.5c-.5,1.2-1.1,2.3-1.6,3.5a1.7,1.7,0,0,0-.2.5v.4a.5.5,0,0,0,.2.4c.1.1.2.3.4.4l3.7,2.8,3.9,2.7,3.9,2.5,4.1,2.3h.4c.1,0,.2,0,.2.1h.2c.1,0,.2,0,.2-.1h.3c0-.1.1-.1.2-.2s.1-.1.2-.2l3-2.5,3-2.6,2.9-2.6,3-2.6.3-.2.3-.2h1.4l4,1.6,3.9,1.3,4.1,1.1,4.1.8.8.2.5.4.3.5a1.4,1.4,0,0,1,.2.7c.3,1.2.5,2.4.8,3.5s.5,2.4.8,3.6.5,2.4.8,3.6.5,2.3.7,3.5.1.4.2.6l.3.4.5.3h19l.6-.2.5-.2.3-.3c0-.2.1-.3.2-.6s.5-2.4.7-3.6.6-2.4.8-3.6.6-2.4.8-3.6.6-2.4.8-3.7.1-.4.2-.6l.3-.4a.5.5,0,0,1,.5-.3l.7-.2,4.2-.9,4.2-1.2,4.2-1.4,4-1.6h1.3a.2.2,0,0,1,.2.2l3.1,2.6,3,2.6,3.1,2.7,3,2.6c.1.1.2.1.2.2h1.4l4.1-2.3,3.9-2.5,3.9-2.7,3.7-2.9a.8.8,0,0,0,.4-.4l.2-.3v-.5c-.1-.1-.1-.3-.2-.4s-1.1-2.4-1.7-3.5l-1.7-3.6c-.5-1.1-1.1-2.3-1.6-3.5s-1.2-2.4-1.7-3.6l-.2-.4v-.3c0-.1.1-.2.1-.3l.3-.4,3.2-3.3c1-1.1,2-2.2,2.9-3.4l2.7-3.6,2.5-3.8a.5.5,0,0,1,.2-.4l.3-.2h1l4.1.4,4.2.4,4.2.4,4.1.5h1.2l.3-.3.3-.5,1.8-4.1c.6-1.4,1.2-2.8,1.7-4.3l1.5-4.2,1.2-4.4a1.3,1.3,0,0,0,.1-.6V960l-.3-.4-.5-.3-3.6-1.9-3.6-1.9-3.7-1.9-3.6-1.9-.4-.3-.3-.3a.6.6,0,0,1-.1-.4v-.5c.2-1.4.4-2.9.5-4.3s.2-2.8.2-4.2,0-2.8,0-4.2l-.3-4.3v-.6a4.3,4.3,0,0,1,.1-.5l.4-.5.5-.4,3.8-1.9,3.7-2,3.7-2,3.8-2.1c.2,0,.3-.1.4-.3l.3-.3a.6.6,0,0,0,.1-.4v-.5c-.3-1.4-.6-2.8-1-4.2s-.7-2.7-1.1-4-.8-2.7-1.3-4.1l-1.5-4a13.9,13.9,0,0,1-.6-1.3,5.6,5.6,0,0,0-.5-.8l-.5-.4h-3l-3.7.5-3.7.4-3.7.4-3.7.5h-.9l-.3-.2-.4-.3-.3-.4c-.6-1.2-1.4-2.4-2.1-3.6l-2.4-3.5-2.6-3.3-2.8-3.2-.4-.5c-.1-.2-.2-.3-.2-.5a1.1,1.1,0,0,1,.1-.5,1.4,1.4,0,0,1,.2-.6l1.9-3.7,1.9-3.8c.6-1.3,1.2-2.6,1.9-3.8s1.2-2.6,1.9-3.8.1-.4.2-.6V872c-.1-.1-.1-.2-.2-.4s-.2-.3-.4-.4l-3.8-3.2-3.9-3-4.1-2.8-4.2-2.6h-.3c0-.1-.1-.1-.2-.1h-.8l-.3.2-.3.2-3.2,2.9-3.2,2.9-3.2,2.8-3.2,2.9-.3.3-.4.2h-1.6l-4.1-1.7a36.6,36.6,0,0,0-4.3-1.5l-4.4-1.3-4.4-1a1.1,1.1,0,0,1-.6-.2.5.5,0,0,1-.4-.2l-.3-.4c0-.2-.1-.3-.1-.6s-.5-2.7-.8-4.1-.6-2.8-.8-4.2l-.9-4.2c-.3-1.4-.5-2.8-.8-4.2a.8.8,0,0,0-.2-.6l-.3-.5a.5.5,0,0,0-.4-.2H688l-2.6-.3h-7.5" transform="translate(-136.8 -45.7)" style="fill:#eeeff1"/></g></g></g></g></svg>