<svg xmlns="http://www.w3.org/2000/svg" viewBox="0 0 1498.9 1516.6"><title>erovoutika-icon</title><path d="M1359.5,831.5a611.9,611.9,0,0,0,0-146.5l139.4-74.1L1442.3,437l-156.2,21.9a617.6,617.6,0,0,0-86.2-118.4l69.2-141.9L1121.2,91.1,1007.7,200.6a604.8,604.8,0,0,0-139.4-45.2L840.9,0H658L630.6,155.4a604.8,604.8,0,0,0-139.4,45.2L377.7,91.1l-148,107.5,69.2,141.9a617.6,617.6,0,0,0-86.2,118.4L56.5,437,0,610.9,139.3,685a626.1,626.1,0,0,0,0,146.5L0,905.6l56.5,174,156.2-22a615.2,615.2,0,0,0,86.2,118.5L229.7,1318l148,107.5L491.2,1316a612.1,612.1,0,0,0,134.4,44.2l5,1L658,1516.6H840.9l27.4-155.4a609.6,609.6,0,0,0,139.4-45.2l113.5,109.5L1269.1,1318l-69.2-141.9a615.2,615.2,0,0,0,86.2-118.5l156.2,22,56.6-174ZM749.4,1257.7c-275.8,0-499.4-223.6-499.4-499.4S473.6,258.9,749.4,258.9s499.5,223.6,499.5,499.4S1025.3,1257.7,749.4,1257.7Z" transform="translate(0 0)" style="fill:#0e00ff"/><path d="M749.4,309.8C512.2,309.8,318,494,302,727.1H409a85.5,85.5,0,0,1,79.5-54.2,79.2,79.2,0,0,1,8.5.5V494.7c0,3.9,560.6-1.3,560.6-1.3L959.9,634.9H646.1v66.8H951.8a85.3,85.3,0,0,1,143.3,25.4h101.8C1180.8,494,986.7,309.8,749.4,309.8Z" transform="translate(0 0)" style="fill:#0e00ff"/><path d="M1015.6,843.6a85.1,85.1,0,0,1-63.9-28.8l-7.3,10.3H646.1v77.2h411.5l-95.2,141.4H497V843.2a79.4,79.4,0,0,1-8.5.4,85.3,85.3,0,0,1-77.9-50.5H302.3c17.7,231.4,211.2,413.7,447.1,413.7s429.4-182.3,447.2-413.7h-103A85.4,85.4,0,0,1,1015.6,843.6Z" transform="translate(0 0)" style="fill:#0e00ff"/><path d="M489.1,826.4a68.2,68.2,0,1,0-66.4-83.6H300.4v31H422.7A68.3,68.3,0,0,0,489.1,826.4Zm0-101.4a33.3,33.3,0,1,1-33.3,33.3A33.3,33.3,0,0,1,489.1,725Z" transform="translate(0 0)" style="fill:#0e00ff"/><path d="M1018.6,690.1a68.2,68.2,0,1,0,66.3,83.7h112.8V742.7H1084.9A68.1,68.1,0,0,0,1018.6,690.1Zm0,101.5a33.3,33.3,0,1,1,33.2-33.3A33.3,33.3,0,0,1,1018.6,791.6Z" transform="translate(0 0)" style="fill:#0e00ff"/></svg>