<svg xmlns="http://www.w3.org/2000/svg" viewBox="0 0 937 934.1"><title>favicon</title><rect width="937" height="934.14" rx="300" style="fill:#0f3695"/><path d="M468.5,197.8c-143,0-260,111-269.6,251.5h64.5a51.5,51.5,0,0,1,47.8-32.7,44.1,44.1,0,0,1,5.2.3V309.2c0,2.4,337.8-.7,337.8-.7l-58.9,85.2h-189V434H590.4a51.4,51.4,0,0,1,86.4,15.3h61.3C728.5,308.8,611.5,197.8,468.5,197.8Z" style="fill:#fff"/><path d="M628.9,519.5a51.4,51.4,0,0,1-38.5-17.3l-4.4,6.2H406.3v46.5H654.2l-57.3,85.2H316.4V519.3l-5.2.2a51.4,51.4,0,0,1-46.9-30.4H199c10.7,139.4,127.3,249.3,269.5,249.3S727.3,628.5,738,489.1H675.9A51.4,51.4,0,0,1,628.9,519.5Z" style="fill:#fff"/><path d="M311.6,509.1a41.1,41.1,0,1,0-40-50.4H197.9v18.7h73.7A41,41,0,0,0,311.6,509.1Zm0-61.1a20.1,20.1,0,1,1-20.1,20.1A20.1,20.1,0,0,1,311.6,448Z" style="fill:#fff"/><path d="M630.7,427a41.1,41.1,0,1,0,40,50.4h67.9V458.7h-68A41.1,41.1,0,0,0,630.7,427Zm0,61.1a20.1,20.1,0,1,1,20-20A20,20,0,0,1,630.7,488.1Z" style="fill:#fff"/><path d="M910.2,553.1C887,540.5,864,527.6,840.8,515c-3.2-1.7-4.4-3.4-4-7.4,2.9-27.8,3.1-55.7-.5-83.5-.6-4.6.4-7.2,4.6-9.5,22.9-12.8,45.5-26.1,68.3-39,3.4-1.9,4.4-3.8,3.5-7.6-6.5-26.8-14.4-53-25.5-78.3-6.1-14.1-6.1-13.8-21.3-11.7-22.7,3.1-45.5,5.7-68.3,8.7-4.1.5-6.4-.7-8.5-4.4a345.7,345.7,0,0,0-47.5-64.6c-3.1-3.3-3.3-5.8-1.4-9.8,11.1-23.7,21.8-47.6,32.9-71.4,1.8-3.7,1.2-5.9-1.9-8.7a488.9,488.9,0,0,0-74-53.8c-3.4-2-5.5-1.7-8.3,1-19.2,17.9-38.5,35.5-57.7,53.5-3.3,3.1-5.8,3.9-10.2,1.8a337,337,0,0,0-78.9-25.6c-4.2-.8-5.6-2.6-6.3-6.4-5.1-25.8-10.3-51.6-15.3-77.5-.8-4.3-2.7-6-7-6.4a427.8,427.8,0,0,0-90.5,0c-4,.4-5.8,1.7-6.7,5.9-5,26.3-10.5,52.4-15.6,78.7-.6,3.5-1.8,4.9-5.5,5.6a346.2,346.2,0,0,0-79.4,25.8c-4.6,2.1-7.4,1.9-11.3-1.7-19-18-38.5-35.5-57.6-53.4-3-2.8-5-2.8-8.3-.8a477.9,477.9,0,0,0-74,53.9c-2.7,2.5-3.1,4.4-1.5,7.7,11.2,23.9,22,48,33.2,71.8,2.2,4.5,1.6,7.2-1.7,10.7a338.2,338.2,0,0,0-49.7,69.2c-2.3,4.1-4.7,5.1-9,4.7-26.2-3-52.5-5.6-78.7-8.6-4.1-.5-5.6.7-7.2,4.2-11.9,27.4-20.3,55.9-27,85-1.3,5.7.4,7.9,5.1,10.5,22.9,12.3,45.6,24.9,68.3,37.6,1.7,1,3.8,3.6,3.6,5.2-2.8,28.9-3,57.7.7,86.4.6,4-.6,6.2-4.2,8.1-22.9,13-45.7,26.3-68.7,39.3-3.7,2.1-4.4,4.2-3.5,8.1a474.6,474.6,0,0,0,28.9,86.2c1.7,3.9,3.7,5.3,8.2,4.7,26.3-3.5,52.7-6.6,79.1-10,3.4-.5,5.1.4,6.8,3.3A345.4,345.4,0,0,0,196,719c2.5,2.6,2.6,4.7,1.1,7.9-11.2,24.1-22.1,48.3-33.3,72.4-1.8,3.8-1.3,6,1.8,8.7a490.4,490.4,0,0,0,74.1,53.9c3.3,2,5.4,1.8,8.3-.9,19.3-18.1,38.8-35.9,58-54,3.3-3.1,5.8-3.3,9.8-1.5,24.8,11.4,50.4,20.1,77.2,25.1,5.6,1.1,7.6,3.7,8.6,9,4.7,25,9.9,49.8,14.6,74.8,1,4.8,2.9,6.9,7.7,7.1,24.1.6,44.6.6,44.6.6s26.6.2,44.7-.6c4.5-.7,6.5-1.8,7.4-6.5,4.8-25.4,10.2-50.6,15-76,.9-4.9,2.7-7.3,7.9-8.3,27.7-5.2,54.2-14.3,79.8-26.2,3.1-1.5,4.9-.9,7.4,1.3,19.7,18.4,39.7,36.5,59.4,54.9,2.7,2.5,4.5,2.9,7.8,1a489.5,489.5,0,0,0,74-53.9c3.2-2.9,3.3-5,1.6-8.7-11.3-24.2-22.4-48.6-33.7-72.8-1.4-3-1.3-4.9,1-7.4A356.5,356.5,0,0,0,792.7,647c1.7-3.2,3.6-4,7.2-3.6l79.2,8.5c4.4.5,6.4-.7,8.1-4.7a486.8,486.8,0,0,0,26.9-85.7C915.1,557.1,914.1,555.1,910.2,553.1ZM466,769.3c-169.8-1.8-300.2-140-299.3-304.5.8-160.8,134-302.2,308.8-298.2C644.4,170.6,771,309.2,770.2,471,769.4,630.7,637.8,770.6,466,769.3Z" style="fill:#fff"/></svg>